<?xml version="1.0" encoding="utf-8"?>
<!-- Generator: Adobe Illustrator 22.0.0, SVG Export Plug-In . SVG Version: 6.00 Build 0)  -->
<svg version="1.1" id="Calque_1" xmlns="http://www.w3.org/2000/svg" xmlns:xlink="http://www.w3.org/1999/xlink" x="0px" y="0px"
	 viewBox="0 0 432 432" style="enable-background:new 0 0 432 432;" xml:space="preserve">
<style type="text/css">
	.st0{fill:#BA874D;}
	.st1{fill:#008D36;}
	.st2{fill:#BE1622;}
	.st3{fill:#F39200;}
	.st4{fill:#634E42;}
	.st5{fill:#FFFFFF;}
	.st6{fill:#9B191E;}
	.st7{fill:#E99F2E;}
	.st8{fill:#D4870C;}
	.st9{fill:#9E191F;}
	.st10{fill:#C91517;}
	.st11{fill:#BE1919;}
	.st12{fill:#E6332A;}
	.st13{fill:#005F2D;}
	.st14{fill:#008639;}
	.st15{fill:#3AAA35;}
	.st16{fill:#00983B;}
	.st17{fill:#A81A17;}
	.st18{fill:#C7D6E1;}
	.st19{fill:#2CA949;}
	.st20{fill:#68B659;}
	.st21{fill:#CE8837;}
	.st22{fill:#8FAFD3;}
	.st23{fill:#878787;}
	.st24{fill:#936037;}
	.st25{fill:#A86D3E;}
	.st26{fill:#432918;}
	.st27{fill:#F6F6F6;}
	.st28{fill:#DB0D15;}
	.st29{fill:#683C11;}
	.st30{fill:#1D71B8;}
	.st31{fill:#29235C;}
	.st32{fill:#575756;}
	.st33{fill:#00A19A;}
	.st34{fill:#EDEDED;}
	.st35{fill:#2C8AB8;}
	.st36{fill:#B2B2B2;}
	.st37{fill:#C6C6C6;}
	.st38{fill:#2FAC66;}
	.st39{fill:#999999;}
	.st40{fill:#E68787;}
	.st41{fill:#95C11F;}
	.st42{fill:#F8C3C4;}
	.st43{fill:#EA5055;}
	.st44{fill:#C69B6A;}
	.st45{fill:#C29560;}
	.st46{fill:#CBBBA0;}
	.st47{fill:#CBB0A0;}
	.st48{fill:#EF7D81;}
	.st49{fill:#DCC2A4;}
	.st50{fill:#AE7A3E;}
	.st51{fill:#006633;}
	.st52{fill:#ABD194;}
	.st53{fill:#57B144;}
	.st54{fill:#B08048;}
	.st55{fill:#FDD5A8;}
	.st56{fill:#D41A27;}
	.st57{fill:#7B6A58;}
	.st58{fill:#FBDDDE;}
	.st59{fill:#D71927;}
	.st60{fill:#AE1921;}
	.st61{fill:#C49064;}
	.st62{fill:#D71016;}
	.st63{fill:#C11717;}
	.st64{fill:#E30613;}
	.st65{fill:#D61116;}
	.st66{fill:#CB1518;}
	.st67{fill:#BB1918;}
	.st68{fill:#A1191F;}
	.st69{fill:#4D3D34;}
	.st70{fill:#C8A5CE;}
	.st71{fill:#951B81;}
	.st72{fill:#2985BB;}
	.st73{fill:#448DC0;}
	.st74{fill:#007BB4;}
	.st75{fill:#4A94D0;}
	.st76{fill:#3A8FCD;}
	.st77{fill:#258ACA;}
	.st78{fill:#739AC0;}
	.st79{fill:#B11918;}
	.st80{fill:#E6C6A4;}
	.st81{fill:#F1E0CE;}
	.st82{fill:#42352C;}
	.st83{fill:#A08A7E;}
	.st84{fill:#B9B8B9;}
	.st85{fill:#A3A2A3;}
	.st86{fill:#D9D8D9;}
	.st87{fill:#CDCBCC;}
	.st88{fill:#80A1C5;}
	.st89{fill:#6391BA;}
</style>
<g>
	<g>
		<path class="st10" d="M318.5,290.6c-23.1-16.4-41.3-15.9-41.3-15.9c-18.1-62.7-32.9-65.9-89.2-65.9c-19.8,0-39.5,2.2-51.5,20.6
			c-9.5,11.8-13.5,48.2-13.5,48.2s-28.4,10.8-28.4,69.1c0,0,13.4-0.1,15.9-0.1c0,0-0.8-40.3,34.4-40.3s35.3,39.4,35.3,39.4L242,345
			c0,0,0.3-39.5,37-39.5s37,40.6,37,40.6s14.9,3.9,18.8,0C338.5,342.2,341.6,307,318.5,290.6z M188.5,272.1h-53
			c6.2-42.7,16.8-53,53-53V272.1z M198.3,272.1v-53c22.4,0,58-4.4,66.9,53H198.3z"/>
		<g>
			<circle cx="279.4" cy="339.9" r="27.3"/>
			<circle class="st5" cx="279.4" cy="339.9" r="12.9"/>
			<circle cx="279.4" cy="339.9" r="4.9"/>
		</g>
		<g>
			<circle cx="144.6" cy="339.9" r="27.3"/>
			<circle class="st5" cx="144.6" cy="339.9" r="12.9"/>
			<circle cx="144.6" cy="339.9" r="4.9"/>
		</g>
		<path class="st12" d="M318,311.7c4.3,1.1,11.1,0.9,16.1,0.6c-2.8-8.1-7.6-16.1-15.6-21.8c-0.5-0.4-1-0.7-1.5-1
			C315.3,296.2,312.3,310.3,318,311.7z"/>
		<path class="st12" d="M108.5,311.5c1.5-3.7-1.1-8.9-4.5-13.2c-2.9,5.7-5.4,13-7.1,22C101.6,318.9,106.7,316.1,108.5,311.5z"/>
		<g>
			<path d="M201.5,284.1c4.2,0,8.4,0,12.6,0c3.1,0,3.2-4.9,0-4.9c-4.2,0-8.4,0-12.6,0C198.4,279.2,198.4,284.1,201.5,284.1
				L201.5,284.1z"/>
		</g>
	</g>
	<path class="st13" d="M320.2,178.1c-40.1-14.2-85.7-72.7-69.7-47c-10.1-6-8.9-8.6-8.2,3.1c-12.5-13.5-12.6-3.5,8.3,14.1
		c0.7,0.6,1.6,1.1,2.2,2c-3.8-0.4-29.7-24.1-31.9-32.4c-3.3-12.2-11.4-4.1-2,5.5c0.3,0.3,2.8,3.1,2.5,4.2c-1-0.4-1.1-2.1-3-3.2
		c-4.8-2.9-0.5,4.5,3,8.9c6.1,7.6,1.1,7.2,16.8,19.1c-5.3,1.4-36.9-30.8-38.1-31.8c-1-0.9-1.6,1.1-0.7,2.2c5.5,6.9-0.8,0.3,4,7.6
		c-3.2-1.2-12.9-17.8-14.8-18.5c-2.3-0.9-5.2,2,6.4,15.6c0.5,0.6,1.1,1.2,1.6,2c-0.1,0-3.8-0.9-3.3,1c1.3,5,5.2,4,4.9,6.8
		c-1.2-0.6-21.2-15.8-24.6-19.4c-2.1-2.2-0.9,1.4-5.3-2.8c-1.2-1.1-2.7-1.3-2.7,0.5c-0.1,3.8,3.5,3.7,13,17.8
		c2.2,3.2,0.1,1.8-0.2,1.4c-10.4-12.1-19.3-16.2-9.3-7c1.9,1.8,4.8,4.7,6.7,7.3c-3,1.9-26.1-21.7-28.1-22.5
		c-1.7-0.7-3.7,1.3-0.1,7.1c-1.8-0.3-3.2,1.1-1.1,3.1c2.1,2,5.2,4.3,4.9,5c-2.4,0.1-2.6,1.9-4.1,0.1c-3.7-4.5-7.6-10.3-8.7-6.8
		c-0.5,1.7,7.9,10.9,7.5,12.3c-2.9,1-1.3,2.1-1.5,3.1c-2.8-0.7-13.8-13.1-13-12.3c-0.6-0.4-2.5-0.9,1.8,4.3c-1-0.1-4.7-2.8-6.1-5.7
		c-2.9-6-12.8-15.5-10.8-9c1.6,5.2,4.2,6.3,3.4,8.3c-1.1,2.7,8.1,12.8,8.3,13.9c-2.6,0-23.2-20.9-20.5-14.3
		c2.4,5.9,5.6,4.4,12.2,17.5c-0.1,0-5.1-5.4-4.5-1.3c0.4,2.3,2.4,3.7,2.1,4.2c-1.4,0.2-9.2-8.4-8.3-2.6c0.4,2.7,0.7,1.4,1.3,3.7
		c0.8,3.1-4.3-0.8,5,10.8c1.9,2.4-10.5-2.4-17.4-1c-3.1,0.6-1.5,3.7-1.6,4.6c-3.4,23.2,2.9,19.7,19.9,22.3c-0.1,0.5-9.1,11-6.8,13.9
		c2.4,3.1,2.1,2.9,1.5,3.8c-7.3,11.3-2.9,14.1-1.3,12.3c2.5-2.7,4.6-12.3,10.4-11.7c0.3,0.8,0.3,1.5-0.2,2.2
		c-5.6,10-0.1,8.7-1.4,11.6c-2.3,4.8,0.8,6.6,2,5.2c1-1.3-1-1.7,5.4-9.8c2.3,5.2-8.9,9.5,0.7,14.7c0.9,0.5,2.3-0.2,1.9-1.5
		c-0.6-2,1.3-0.6,3.2-1.9c0.2-0.1,0.4-0.4,0.8-0.2c-2.3,4.7-2.2,4.5-0.5,5.4c1.4,0.7,1.8-0.3,2.2-1.3c0.6-1.2,1.8,0.7,2.7-1.9
		c0.5-1.5,1.4-3.8,3-3.8c0,0.8-3.6,5.6-1.8,7.4c3.7,3.6,3.5,0.8,9.7-6c2.3,3.3,3.6,0.4,4.7-1.2c0,1.3-1.5,2.5-0.5,3.3
		c4.2,3.3,12.5-9.9,13.9-9.9c0.2,0.9-0.5,0.5-1.5,4.6c-0.4,1.6,1.1,3.6,3,0.4c2.9-5.1,2.6-4.8,3-4.7c-3.3,6.7,0.8,4.1-0.5,6.2
		c-0.9,1.4,0.9,4.7,3.9,1.9c5.8-5.5,5.3-5.1,5.7-5c0,2.5,1.8,2.8,2.5,1.1c2.2-5,1.9-5.2,2.6-5.5c0.4,1.1-1.3,2.5,0.1,3.9
		c0.9,0.9,0.3,1.6-0.5,4.7c-0.3,1,1.5,2.6,2.5,1.6c1-1,1.5,1.2,2.7-0.5c0.9-1.2,1-2.6,2.2-4.3c0.8,0.4,1,0.9,0.7,1.6
		c-0.8,1.9,1.3,1.1,0.7,3.4c-0.5,2.1-1.2,3.5,1.1,4c1.5,0.3,1.1-1.4,2.8-4.1c0.3,0.5,0.2,0.9,0.1,1.3c-0.2,1.3,2.3,3.5,3.3,0.7
		c4.1-10.8,4.5-8.3,6.4-9.4c2.7-1.6-5.8,8.5-1.6,9.7c0.5,0.2,3,4.5,4.2,1.1c0.8-2.2,3.4-7.4,4.6-9.8c0.4,1.3-1.1,3.5,1.4,4.2
		c2.5,0.7,1.1-4.9,6.6-8.6c-1,1.6-1.4,3.4-2.3,5c-5,9.7-4.7,9.2-3,10.6c2,1.5,2.6-2.7,4.8-5.9c0.5,0.1,1,4,4.7-0.1
		c0.4-0.5,0.6-1.1,1.3-1.5c-0.2,1.6,0.6,1.6,3.5,3.4c3.2,2,2.5-4.6,10.4-8.7c-2.1,6.3-8.9,12.5-4.6,14.2c1.3,0.5,1.9-1.5,2.8-2.9
		c1.1-1.7,1.4,0.7,3.4,0.4c3.2,7.3,5.2,2.2,10.7-7.4c0,4.4-0.1,2.3-0.8,5.3c-0.5,2.3,2.6-1.4-1.1,9.8c-0.3,0.8,0.7,2.8,2.1-2.3
		c0.5-1.9,1.2-0.3,1.9-2.2c1.3-3.7,2.4,1.9,4-1.4c1-2,1.2-3.4,6.8-9.9c24.2-27.7,9.5-15.6,43.3-27.4c6.7-2.3,8.9-4,12-2.9
		c1.6,0.6,1-1.3,2.8-0.8c0.7,0.2,1.2-0.2,1.5-0.9C327.2,180.7,323,179.1,320.2,178.1z"/>
	<path class="st12" d="M186.6,134c0.1,22.6,0.4,45.1,0.7,67.7c0.6,37.8,1.2,75.6,3.5,113.3c0.5,7.4,0.9,14.8,1.8,22.2
		c0.3,2.4,0.5,4.9,1.1,7.3c1.2,5.4,6.3,5.8,9.9,4.5c3.5-1.3,3.4-4,3.7-8.2c0.4-6,0.4-12,0.5-18.1c0-18-0.5-36-1.2-54
		c-1.4-38.2-3.4-76.4-6.2-114.5c-0.4-5.5,0.4-18.6-2.3-23.4C195.9,126.8,186.6,134,186.6,134z"/>
	<g>
		<g>
			<path class="st12" d="M294.6,174.7c-3.2-3.9-5.7,6.8-3.4,9.6c0.8,0.9,1.4,1.8,1.9,2.9c0.3,0.6,0,0.3,0.3,1c0,0.1,0,0.1,0,0.1
				c0,0.2,0,0.3,0,0.4c0,0-0.1,0.1-0.1,0.3c0.2-0.9-0.2,0.5-0.3,0.8c-0.1,0.3-0.8,1.6-1.4,2.3c-3.7,4.8-10,7.6-15.8,8.8
				c-19.6,4.1-38.5-7.2-50.7-21.6c-11.9-14.1-19.2-31.3-24-48.9c-0.5-2-1.9-3.8-3.8-2.2c-1.9,1.5-2,5.6-1.4,7.7
				c7.9,29.1,24,63.2,54.6,74.1c14.9,5.3,36.8,4.5,45.8-10.9C300.6,191.5,300.1,181.6,294.6,174.7z"/>
			<path class="st12" d="M189.1,130.5c-9.3,13.1-24.6,30.5-42.7,26.6c-4.7-1-9.2-3.8-12.2-7.5c-1.2-1.5-2.1-3.1-2.8-4.8
				c0,0-0.3-1-0.3-1.2c0-0.1,0-0.2,0.1-0.4c0.5-1.9,0.5-6.1-1.6-7.1c-2.3-1.1-3.4,2.2-3.8,3.8c-3,11.9,6.2,24.2,17.2,27.8
				c20.9,6.8,39.2-14,49.8-29C194.9,135.7,192.8,125.2,189.1,130.5z M131,143.5C131,143.5,131,143.5,131,143.5c0-0.1,0-0.1,0-0.2
				C131,143.4,131,143.4,131,143.5z M131,143.7C131,143.9,131,143.8,131,143.7L131,143.7z"/>
		</g>
		<g>
			<path class="st12" d="M264.4,72.2c-6.7-12.4-23.4-6.1-32.7-0.7c-16.9,9.8-30.8,26-35.6,45.1c-0.5,1.8-0.5,6.1,1.6,7.1
				c2.3,1.1,3.4-2.2,3.8-3.8c3.6-14.4,15.2-26.9,27.2-35c6.9-4.6,22.4-13.7,30.2-6c2,2,2.2,4.5,2.3,7.2c0,0.1,0,0.1,0,0.2
				c0,0,0,0,0,0c0,0.6,0,1.3,0,1.9c0,0.7-0.1,1.4-0.1,2.1c-0.1,1.8,0,0.4-0.2,1.8c-1.2,7.6-4.5,15-10.6,20.9
				c-12.4,11.9-31.2,14.1-47.6,13.9c-4.1-0.1-4.6,11.2-0.6,11.3c17,0.3,35.5-2.2,48.9-13.7c8.3-7.1,13.3-17.4,15.1-28
				C267.5,88.8,268.1,79.2,264.4,72.2z"/>
			<path class="st12" d="M162.7,74.3c-8.8-6-25.8-14.9-35.1-5.1c-5.7,6-5.7,16.2-4.9,24c1.1,10.2,4.8,20.4,11.9,28
				c13.2,14.2,33.6,17.3,52.1,17c4.1-0.1,4.5-11.4,0.6-11.3c-23.7,0.4-52.6-6.3-58.3-32.7c-0.4-2.1-0.4-2-0.6-4.1
				c-0.1-0.7-0.1-1.5-0.2-2.2c0-0.4,0-0.8,0-1.1c0,0,0,0,0,0c0-1.9-0.1-4.1,0.7-5.8c4.5-9.9,21.4-1.9,27.4,1.6
				c14.3,8.3,27.7,22.2,31.7,38.6c0.5,2,1.9,3.7,3.8,2.2c1.9-1.5,2-5.6,1.4-7.7C189,98.5,177,84,162.7,74.3z"/>
		</g>
		<path class="st10" d="M195.2,116c-8.8,0.4-15.7,3.9-15.7,12.8c0,8.6,6.9,13.5,15.7,13.5c8.8,0,15.7-4.8,15.7-13.4
			C210.9,120,204,116.3,195.2,116z"/>
	</g>
</g>
</svg>
