  0
SECTION
  2
HEADER
  9
$ACADVER
  1
AC1024
  9
$ACADMAINTVER
 70
     6
  9
$DWGCODEPAGE
  3
UNDEFINED
  9
$INSBASE
 10
0.0
 20
0.0
 30
0.0
  9
$EXTMIN
 10
1.000000000000000E+20
 20
1.000000000000000E+20
 30
1.000000000000000E+20
  9
$EXTMAX
 10
-1.000000000000000E+20
 20
-1.000000000000000E+20
 30
-1.000000000000000E+20
  9
$LIMMIN
 10
0.0
 20
0.0
  9
$LIMMAX
 10
12.0
 20
9.0
  9
$ORTHOMODE
 70
     0
  9
$REGENMODE
 70
     1
  9
$FILLMODE
 70
     1
  9
$QTEXTMODE
 70
     0
  9
$MIRRTEXT
 70
     1
  9
$LTSCALE
 40
1.0
  9
$ATTMODE
 70
     1
  9
$TEXTSIZE
 40
0.2
  9
$TRACEWID
 40
0.05
  9
$TEXTSTYLE
  7
Standard
  9
$CLAYER
  8
0
  9
$CELTYPE
  6
ByLayer
  9
$CECOLOR
 62
   256
  9
$CELTSCALE
 40
1.0
  9
$DISPSILH
 70
     0
  9
$DIMSCALE
 40
1.0
  9
$DIMASZ
 40
0.18
  9
$DIMEXO
 40
0.0625
  9
$DIMDLI
 40
0.38
  9
$DIMRND
 40
0.0
  9
$DIMDLE
 40
0.0
  9
$DIMEXE
 40
0.18
  9
$DIMTP
 40
0.0
  9
$DIMTM
 40
0.0
  9
$DIMTXT
 40
0.18
  9
$DIMCEN
 40
0.09
  9
$DIMTSZ
 40
0.0
  9
$DIMTOL
 70
     0
  9
$DIMLIM
 70
     0
  9
$DIMTIH
 70
     1
  9
$DIMTOH
 70
     1
  9
$DIMSE1
 70
     0
  9
$DIMSE2
 70
     0
  9
$DIMTAD
 70
     0
  9
$DIMZIN
 70
     0
  9
$DIMBLK
  1

  9
$DIMASO
 70
     1
  9
$DIMSHO
 70
     1
  9
$DIMPOST
  1

  9
$DIMAPOST
  1

  9
$DIMALT
 70
     0
  9
$DIMALTD
 70
     2
  9
$DIMALTF
 40
25.4
  9
$DIMLFAC
 40
1.0
  9
$DIMTOFL
 70
     0
  9
$DIMTVP
 40
0.0
  9
$DIMTIX
 70
     0
  9
$DIMSOXD
 70
     0
  9
$DIMSAH
 70
     0
  9
$DIMBLK1
  1

  9
$DIMBLK2
  1

  9
$DIMSTYLE
  2
Standard
  9
$DIMCLRD
 70
     0
  9
$DIMCLRE
 70
     0
  9
$DIMCLRT
 70
     0
  9
$DIMTFAC
 40
1.0
  9
$DIMGAP
 40
0.09
  9
$DIMJUST
 70
     0
  9
$DIMSD1
 70
     0
  9
$DIMSD2
 70
     0
  9
$DIMTOLJ
 70
     1
  9
$DIMTZIN
 70
     0
  9
$DIMALTZ
 70
     0
  9
$DIMALTTZ
 70
     0
  9
$DIMUPT
 70
     0
  9
$DIMDEC
 70
     4
  9
$DIMTDEC
 70
     4
  9
$DIMALTU
 70
     2
  9
$DIMALTTD
 70
     2
  9
$DIMTXSTY
  7
Standard
  9
$DIMAUNIT
 70
     0
  9
$DIMADEC
 70
     0
  9
$DIMALTRND
 40
0.0
  9
$DIMAZIN
 70
     0
  9
$DIMDSEP
 70
    46
  9
$DIMATFIT
 70
     3
  9
$DIMFRAC
 70
     0
  9
$DIMLDRBLK
  1

  9
$DIMLUNIT
 70
     2
  9
$DIMLWD
 70
    -2
  9
$DIMLWE
 70
    -2
  9
$DIMTMOVE
 70
     0
  9
$DIMFXL
 40
1.0
  9
$DIMFXLON
 70
     0
  9
$DIMJOGANG
 40
0.7853981633974483
  9
$DIMTFILL
 70
     0
  9
$DIMTFILLCLR
 70
     0
  9
$DIMARCSYM
 70
     0
  9
$DIMLTYPE
  6

  9
$DIMLTEX1
  6

  9
$DIMLTEX2
  6

  9
$DIMTXTDIRECTION
 70
     0
  9
$LUNITS
 70
     2
  9
$LUPREC
 70
     4
  9
$SKETCHINC
 40
0.1
  9
$FILLETRAD
 40
0.5
  9
$AUNITS
 70
     0
  9
$AUPREC
 70
     0
  9
$MENU
  1
.
  9
$ELEVATION
 40
0.0
  9
$PELEVATION
 40
0.0
  9
$THICKNESS
 40
0.0
  9
$LIMCHECK
 70
     0
  9
$CHAMFERA
 40
0.5
  9
$CHAMFERB
 40
0.5
  9
$CHAMFERC
 40
1.0
  9
$CHAMFERD
 40
0.0
  9
$SKPOLY
 70
     0
  9
$TDCREATE
 40
2458065.396099526
  9
$TDUCREATE
 40
2458065.60443287
  9
$TDUPDATE
 40
2458065.396099526
  9
$TDUUPDATE
 40
2458065.60443287
  9
$TDINDWG
 40
0.0000000116
  9
$TDUSRTIMER
 40
0.0000000116
  9
$USRTIMER
 70
     1
  9
$ANGBASE
 50
0.0
  9
$ANGDIR
 70
     0
  9
$PDMODE
 70
     0
  9
$PDSIZE
 40
0.0
  9
$PLINEWID
 40
0.0
  9
$SPLFRAME
 70
     0
  9
$SPLINETYPE
 70
     6
  9
$SPLINESEGS
 70
     8
  9
$HANDSEED
  5
87
  9
$SURFTAB1
 70
     6
  9
$SURFTAB2
 70
     6
  9
$SURFTYPE
 70
     6
  9
$SURFU
 70
     6
  9
$SURFV
 70
     6
  9
$UCSBASE
  2

  9
$UCSNAME
  2

  9
$UCSORG
 10
0.0
 20
0.0
 30
0.0
  9
$UCSXDIR
 10
1.0
 20
0.0
 30
0.0
  9
$UCSYDIR
 10
0.0
 20
1.0
 30
0.0
  9
$UCSORTHOREF
  2

  9
$UCSORTHOVIEW
 70
     0
  9
$UCSORGTOP
 10
0.0
 20
0.0
 30
0.0
  9
$UCSORGBOTTOM
 10
0.0
 20
0.0
 30
0.0
  9
$UCSORGLEFT
 10
0.0
 20
0.0
 30
0.0
  9
$UCSORGRIGHT
 10
0.0
 20
0.0
 30
0.0
  9
$UCSORGFRONT
 10
0.0
 20
0.0
 30
0.0
  9
$UCSORGBACK
 10
0.0
 20
0.0
 30
0.0
  9
$PUCSBASE
  2

  9
$PUCSNAME
  2

  9
$PUCSORG
 10
0.0
 20
0.0
 30
0.0
  9
$PUCSXDIR
 10
1.0
 20
0.0
 30
0.0
  9
$PUCSYDIR
 10
0.0
 20
1.0
 30
0.0
  9
$PUCSORTHOREF
  2

  9
$PUCSORTHOVIEW
 70
     0
  9
$PUCSORGTOP
 10
0.0
 20
0.0
 30
0.0
  9
$PUCSORGBOTTOM
 10
0.0
 20
0.0
 30
0.0
  9
$PUCSORGLEFT
 10
0.0
 20
0.0
 30
0.0
  9
$PUCSORGRIGHT
 10
0.0
 20
0.0
 30
0.0
  9
$PUCSORGFRONT
 10
0.0
 20
0.0
 30
0.0
  9
$PUCSORGBACK
 10
0.0
 20
0.0
 30
0.0
  9
$USERI1
 70
     0
  9
$USERI2
 70
     0
  9
$USERI3
 70
     0
  9
$USERI4
 70
     0
  9
$USERI5
 70
     0
  9
$USERR1
 40
0.0
  9
$USERR2
 40
0.0
  9
$USERR3
 40
0.0
  9
$USERR4
 40
0.0
  9
$USERR5
 40
0.0
  9
$WORLDVIEW
 70
     1
  9
$SHADEDGE
 70
     3
  9
$SHADEDIF
 70
    70
  9
$TILEMODE
 70
     1
  9
$MAXACTVP
 70
    64
  9
$PINSBASE
 10
0.0
 20
0.0
 30
0.0
  9
$PLIMCHECK
 70
     0
  9
$PEXTMIN
 10
1.000000000000000E+20
 20
1.000000000000000E+20
 30
1.000000000000000E+20
  9
$PEXTMAX
 10
-1.000000000000000E+20
 20
-1.000000000000000E+20
 30
-1.000000000000000E+20
  9
$PLIMMIN
 10
0.0
 20
0.0
  9
$PLIMMAX
 10
12.0
 20
9.0
  9
$UNITMODE
 70
     0
  9
$VISRETAIN
 70
     1
  9
$PLINEGEN
 70
     0
  9
$PSLTSCALE
 70
     1
  9
$TREEDEPTH
 70
  3020
  9
$CMLSTYLE
  2
Standard
  9
$CMLJUST
 70
     0
  9
$CMLSCALE
 40
1.0
  9
$PROXYGRAPHICS
 70
     1
  9
$MEASUREMENT
 70
     0
  9
$CELWEIGHT
370
    -1
  9
$ENDCAPS
280
     0
  9
$JOINSTYLE
280
     0
  9
$LWDISPLAY
290
     1
  9
$INSUNITS
 70
     1
  9
$HYPERLINKBASE
  1

  9
$STYLESHEET
  1

  9
$XEDIT
290
     1
  9
$CEPSNTYPE
380
     0
  9
$PSTYLEMODE
290
     1
  9
$FINGERPRINTGUID
  2
{F7283BD4-6F21-7EF2-855F-DB11EEA5DDFB}
  9
$VERSIONGUID
  2
{FAEB1C32-E019-11D5-929B-00C0DF256EC4}
  9
$EXTNAMES
290
     1
  9
$PSVPSCALE
 40
0.0
  9
$OLESTARTUP
290
     0
  9
$SORTENTS
280
   127
  9
$INDEXCTL
280
     0
  9
$HIDETEXT
280
     1
  9
$XCLIPFRAME
280
     2
  9
$HALOGAP
280
     0
  9
$OBSCOLOR
 70
   257
  9
$OBSLTYPE
280
     0
  9
$INTERSECTIONDISPLAY
280
     0
  9
$INTERSECTIONCOLOR
 70
   257
  9
$DIMASSOC
280
     2
  9
$PROJECTNAME
  1

  9
$CAMERADISPLAY
290
     0
  9
$LENSLENGTH
 40
50.0
  9
$CAMERAHEIGHT
 40
0.0
  9
$STEPSPERSEC
 40
2.0
  9
$STEPSIZE
 40
6.0
  9
$3DDWFPREC
 40
2.0
  9
$PSOLWIDTH
 40
0.25
  9
$PSOLHEIGHT
 40
4.0
  9
$LOFTANG1
 40
1.570796326794897
  9
$LOFTANG2
 40
1.570796326794897
  9
$LOFTMAG1
 40
0.0
  9
$LOFTMAG2
 40
0.0
  9
$LOFTPARAM
 70
     7
  9
$LOFTNORMALS
280
     1
  9
$LATITUDE
 40
37.795
  9
$LONGITUDE
 40
-122.394
  9
$NORTHDIRECTION
 40
0.0
  9
$TIMEZONE
 70
 -8000
  9
$LIGHTGLYPHDISPLAY
280
     1
  9
$TILEMODELIGHTSYNCH
280
     1
  9
$CMATERIAL
347
3C
  9
$SOLIDHIST
280
     1
  9
$SHOWHIST
280
     1
  9
$DWFFRAME
280
     2
  9
$DGNFRAME
280
     2
  9
$REALWORLDSCALE
290
     1
  9
$INTERFERECOLOR
 62
   256
  9
$CSHADOW
280
     0
  9
$SHADOWPLANELOCATION
 40
0.0
  0
ENDSEC
  0
SECTION
  2
CLASSES
  0
CLASS
  1
ACDBDICTIONARYWDFLT
  2
AcDbDictionaryWithDefault
  3
ObjectDBX Classes
 90
        0
 91
        4
280
     0
281
     0
  0
CLASS
  1
VISUALSTYLE
  2
AcDbVisualStyle
  3
ObjectDBX Classes
 90
     4095
 91
        4
280
     0
281
     0
  0
CLASS
  1
MATERIAL
  2
AcDbMaterial
  3
ObjectDBX Classes
 90
     1153
 91
        4
280
     0
281
     0
  0
CLASS
  1
SUN
  2
AcDbSun
  3
SCENEOE
 90
     1024
 91
        4
280
     0
281
     0
  0
ENDSEC
  0
SECTION
  2
TABLES
  0
TABLE
  2
VPORT
  5
8
330
0
100
AcDbSymbolTable
 70
     1
  0
VPORT
  5
29
330
8
100
AcDbSymbolTableRecord
100
AcDbViewportTableRecord
  2
*Active
 70
     0
 10
0.0
 20
0.0
 11
1.0
 21
1.0
 12
0.0
 22
0.0
 13
0.0
 23
0.0
 14
0.5
 24
0.5
 15
0.5
 25
0.5
 16
0.0
 26
0.0
 36
1.0
 17
3.0
 27
3.0
 37
0.0
 40
6.0
 41
1.0
 42
50.0
 43
0.0
 44
0.0
 50
0.0
 51
0.0
 71
     0
 72
   100
 73
     1
 74
     3
 75
     0
 76
     0
 77
     0
 78
     0
281
     0
 65
     1
110
0.0
120
0.0
130
0.0
111
1.0
121
0.0
131
0.0
112
0.0
122
1.0
132
0.0
 79
     0
146
0.0
 60
     3
 61
     5
292
     1
282
     1
141
0.0
142
0.0
 63
   250
361
3F
  0
ENDTAB
  0
TABLE
  2
LTYPE
  5
5
330
0
100
AcDbSymbolTable
 70
     1
  0
LTYPE
  5
14
330
5
100
AcDbSymbolTableRecord
100
AcDbLinetypeTableRecord
  2
ByBlock
 70
     0
  3

 72
    65
 73
     0
 40
0.0
  0
LTYPE
  5
15
330
5
100
AcDbSymbolTableRecord
100
AcDbLinetypeTableRecord
  2
ByLayer
 70
     0
  3

 72
    65
 73
     0
 40
0.0
  0
LTYPE
  5
16
330
5
100
AcDbSymbolTableRecord
100
AcDbLinetypeTableRecord
  2
Continuous
 70
     0
  3
Solid line
 72
    65
 73
     0
 40
0.0
  0
ENDTAB
  0
TABLE
  2
LAYER
  5
2
330
0
100
AcDbSymbolTable
 70
     2
  0
LAYER
  5
10
330
2
100
AcDbSymbolTableRecord
100
AcDbLayerTableRecord
  2
0
 70
     0
 62
     7
  6
Continuous
370
    -3
390
F
347
3E
  0
LAYER
  5
40
330
2
100
AcDbSymbolTableRecord
100
AcDbLayerTableRecord
  2
Calque 1
 70
     0
 62
     7
  6
Continuous
370
    -3
390
F
347
3E
  0
ENDTAB
  0
TABLE
  2
STYLE
  5
3
330
0
100
AcDbSymbolTable
 70
     1
  0
STYLE
  5
11
330
3
100
AcDbSymbolTableRecord
100
AcDbTextStyleTableRecord
  2
Standard
 70
     0
 40
0.0
 41
1.0
 50
0.0
 71
     0
 42
0.2
  3
txt
  4

  0
ENDTAB
  0
TABLE
  2
VIEW
  5
6
330
0
100
AcDbSymbolTable
 70
     0
  0
ENDTAB
  0
TABLE
  2
UCS
  5
7
330
0
100
AcDbSymbolTable
 70
     0
  0
ENDTAB
  0
TABLE
  2
APPID
  5
9
330
0
100
AcDbSymbolTable
 70
     1
  0
APPID
  5
12
330
9
100
AcDbSymbolTableRecord
100
AcDbRegAppTableRecord
  2
ACAD
 70
     0
  0
ENDTAB
  0
TABLE
  2
DIMSTYLE
  5
A
330
0
100
AcDbSymbolTable
 70
     1
100
AcDbDimStyleTable
  0
DIMSTYLE
105
27
330
A
100
AcDbSymbolTableRecord
100
AcDbDimStyleTableRecord
  2
Standard
 70
     0
178
     0
340
11
  0
ENDTAB
  0
TABLE
  2
BLOCK_RECORD
  5
1
330
0
100
AcDbSymbolTable
 70
     9
  0
BLOCK_RECORD
  5
1F
330
1
100
AcDbSymbolTableRecord
100
AcDbBlockTableRecord
  2
*Model_Space
340
22
 70
     0
280
     1
281
     0
  0
BLOCK_RECORD
  5
1B
330
1
100
AcDbSymbolTableRecord
100
AcDbBlockTableRecord
  2
*Paper_Space
340
1E
 70
     0
280
     1
281
     0
  0
BLOCK_RECORD
  5
23
330
1
100
AcDbSymbolTableRecord
100
AcDbBlockTableRecord
  2
*Paper_Space0
340
26
 70
     0
280
     1
281
     0
  0
BLOCK_RECORD
  5
41
330
1
100
AcDbSymbolTableRecord
100
AcDbBlockTableRecord
  2
block 2
340
0
102
{BLKREFS
331
42
102
}
 70
     0
280
     1
281
     0
  0
BLOCK_RECORD
  5
45
330
1
100
AcDbSymbolTableRecord
100
AcDbBlockTableRecord
  2
block 3
340
0
102
{BLKREFS
331
46
102
}
 70
     0
280
     1
281
     0
  0
BLOCK_RECORD
  5
4D
330
1
100
AcDbSymbolTableRecord
100
AcDbBlockTableRecord
  2
block 4
340
0
102
{BLKREFS
331
4E
102
}
 70
     0
280
     1
281
     0
  0
BLOCK_RECORD
  5
56
330
1
100
AcDbSymbolTableRecord
100
AcDbBlockTableRecord
  2
block 5
340
0
102
{BLKREFS
331
57
102
}
 70
     0
280
     1
281
     0
  0
BLOCK_RECORD
  5
63
330
1
100
AcDbSymbolTableRecord
100
AcDbBlockTableRecord
  2
block 6
340
0
102
{BLKREFS
331
64
102
}
 70
     0
280
     1
281
     0
  0
BLOCK_RECORD
  5
6D
330
1
100
AcDbSymbolTableRecord
100
AcDbBlockTableRecord
  2
block 7
340
0
102
{BLKREFS
331
6E
102
}
 70
     0
280
     1
281
     0
  0
BLOCK_RECORD
  5
71
330
1
100
AcDbSymbolTableRecord
100
AcDbBlockTableRecord
  2
block 8
340
0
102
{BLKREFS
331
72
102
}
 70
     0
280
     1
281
     0
  0
BLOCK_RECORD
  5
7B
330
1
100
AcDbSymbolTableRecord
100
AcDbBlockTableRecord
  2
block 9
340
0
102
{BLKREFS
331
7C
102
}
 70
     0
280
     1
281
     0
  0
ENDTAB
  0
ENDSEC
  0
SECTION
  2
BLOCKS
  0
BLOCK
  5
20
330
1F
100
AcDbEntity
  8
0
100
AcDbBlockBegin
  2
*Model_Space
 70
     0
 10
0.0
 20
0.0
 30
0.0
  3
*Model_Space
  1

  0
ENDBLK
  5
21
330
1F
100
AcDbEntity
  8
0
100
AcDbBlockEnd
  0
BLOCK
  5
1C
330
1B
100
AcDbEntity
 67
     1
  8
0
100
AcDbBlockBegin
  2
*Paper_Space
 70
     0
 10
0.0
 20
0.0
 30
0.0
  3
*Paper_Space
  1

  0
ENDBLK
  5
1D
330
1B
100
AcDbEntity
 67
     1
  8
0
100
AcDbBlockEnd
  0
BLOCK
  5
24
330
23
100
AcDbEntity
  8
0
100
AcDbBlockBegin
  2
*Paper_Space0
 70
     0
 10
0.0
 20
0.0
 30
0.0
  3
*Paper_Space0
  1

  0
ENDBLK
  5
25
330
23
100
AcDbEntity
  8
0
100
AcDbBlockEnd
  0
BLOCK
  5
43
330
41
100
AcDbEntity
  8
0
100
AcDbBlockBegin
  2
block 2
 70
     0
 10
0.0
 20
0.0
 30
0.0
  3
block 2
  1

  0
INSERT
  5
46
330
41
100
AcDbEntity
  8
Calque 1
100
AcDbBlockReference
  2
block 3
 10
0.0
 20
0.0
 30
0.0
  0
SPLINE
  5
69
330
41
100
AcDbEntity
  8
Calque 1
370
     0
100
AcDbSpline
210
0.0
220
0.0
230
1.0
 70
    11
 71
     3
 72
   356
 73
   352
 74
     0
 42
0.0000000001
 43
0.0000000001
 12
1.0
 22
0.0
 32
0.0
 13
1.0
 23
0.0
 33
0.0
 40
0.0
 40
0.0
 40
0.0
 40
0.0
 40
1.0
 40
1.0
 40
1.0
 40
2.0
 40
2.0
 40
2.0
 40
3.0
 40
3.0
 40
3.0
 40
4.0
 40
4.0
 40
4.0
 40
5.0
 40
5.0
 40
5.0
 40
6.0
 40
6.0
 40
6.0
 40
7.0
 40
7.0
 40
7.0
 40
8.0
 40
8.0
 40
8.0
 40
9.0
 40
9.0
 40
9.0
 40
10.0
 40
10.0
 40
10.0
 40
11.0
 40
11.0
 40
11.0
 40
12.0
 40
12.0
 40
12.0
 40
13.0
 40
13.0
 40
13.0
 40
14.0
 40
14.0
 40
14.0
 40
15.0
 40
15.0
 40
15.0
 40
16.0
 40
16.0
 40
16.0
 40
17.0
 40
17.0
 40
17.0
 40
18.0
 40
18.0
 40
18.0
 40
19.0
 40
19.0
 40
19.0
 40
20.0
 40
20.0
 40
20.0
 40
21.0
 40
21.0
 40
21.0
 40
22.0
 40
22.0
 40
22.0
 40
23.0
 40
23.0
 40
23.0
 40
24.0
 40
24.0
 40
24.0
 40
25.0
 40
25.0
 40
25.0
 40
26.0
 40
26.0
 40
26.0
 40
27.0
 40
27.0
 40
27.0
 40
28.0
 40
28.0
 40
28.0
 40
29.0
 40
29.0
 40
29.0
 40
30.0
 40
30.0
 40
30.0
 40
31.0
 40
31.0
 40
31.0
 40
32.0
 40
32.0
 40
32.0
 40
33.0
 40
33.0
 40
33.0
 40
34.0
 40
34.0
 40
34.0
 40
35.0
 40
35.0
 40
35.0
 40
36.0
 40
36.0
 40
36.0
 40
37.0
 40
37.0
 40
37.0
 40
38.0
 40
38.0
 40
38.0
 40
39.0
 40
39.0
 40
39.0
 40
40.0
 40
40.0
 40
40.0
 40
41.0
 40
41.0
 40
41.0
 40
42.0
 40
42.0
 40
42.0
 40
43.0
 40
43.0
 40
43.0
 40
44.0
 40
44.0
 40
44.0
 40
45.0
 40
45.0
 40
45.0
 40
46.0
 40
46.0
 40
46.0
 40
47.0
 40
47.0
 40
47.0
 40
48.0
 40
48.0
 40
48.0
 40
49.0
 40
49.0
 40
49.0
 40
50.0
 40
50.0
 40
50.0
 40
51.0
 40
51.0
 40
51.0
 40
52.0
 40
52.0
 40
52.0
 40
53.0
 40
53.0
 40
53.0
 40
54.0
 40
54.0
 40
54.0
 40
55.0
 40
55.0
 40
55.0
 40
56.0
 40
56.0
 40
56.0
 40
57.0
 40
57.0
 40
57.0
 40
58.0
 40
58.0
 40
58.0
 40
59.0
 40
59.0
 40
59.0
 40
60.0
 40
60.0
 40
60.0
 40
61.0
 40
61.0
 40
61.0
 40
62.0
 40
62.0
 40
62.0
 40
63.0
 40
63.0
 40
63.0
 40
64.0
 40
64.0
 40
64.0
 40
65.0
 40
65.0
 40
65.0
 40
66.0
 40
66.0
 40
66.0
 40
67.0
 40
67.0
 40
67.0
 40
68.0
 40
68.0
 40
68.0
 40
69.0
 40
69.0
 40
69.0
 40
70.0
 40
70.0
 40
70.0
 40
71.0
 40
71.0
 40
71.0
 40
72.0
 40
72.0
 40
72.0
 40
73.0
 40
73.0
 40
73.0
 40
74.0
 40
74.0
 40
74.0
 40
75.0
 40
75.0
 40
75.0
 40
76.0
 40
76.0
 40
76.0
 40
77.0
 40
77.0
 40
77.0
 40
78.0
 40
78.0
 40
78.0
 40
79.0
 40
79.0
 40
79.0
 40
80.0
 40
80.0
 40
80.0
 40
81.0
 40
81.0
 40
81.0
 40
82.0
 40
82.0
 40
82.0
 40
83.0
 40
83.0
 40
83.0
 40
84.0
 40
84.0
 40
84.0
 40
85.0
 40
85.0
 40
85.0
 40
86.0
 40
86.0
 40
86.0
 40
87.0
 40
87.0
 40
87.0
 40
88.0
 40
88.0
 40
88.0
 40
89.0
 40
89.0
 40
89.0
 40
90.0
 40
90.0
 40
90.0
 40
91.0
 40
91.0
 40
91.0
 40
92.0
 40
92.0
 40
92.0
 40
93.0
 40
93.0
 40
93.0
 40
94.0
 40
94.0
 40
94.0
 40
95.0
 40
95.0
 40
95.0
 40
96.0
 40
96.0
 40
96.0
 40
97.0
 40
97.0
 40
97.0
 40
98.0
 40
98.0
 40
98.0
 40
99.0
 40
99.0
 40
99.0
 40
100.0
 40
100.0
 40
100.0
 40
101.0
 40
101.0
 40
101.0
 40
102.0
 40
102.0
 40
102.0
 40
103.0
 40
103.0
 40
103.0
 40
104.0
 40
104.0
 40
104.0
 40
105.0
 40
105.0
 40
105.0
 40
106.0
 40
106.0
 40
106.0
 40
107.0
 40
107.0
 40
107.0
 40
108.0
 40
108.0
 40
108.0
 40
109.0
 40
109.0
 40
109.0
 40
110.0
 40
110.0
 40
110.0
 40
111.0
 40
111.0
 40
111.0
 40
112.0
 40
112.0
 40
112.0
 40
113.0
 40
113.0
 40
113.0
 40
114.0
 40
114.0
 40
114.0
 40
115.0
 40
115.0
 40
115.0
 40
116.0
 40
116.0
 40
116.0
 40
117.0
 40
117.0
 40
117.0
 40
117.0
 10
4.447222391764322
 20
3.526388804117838
 30
0.0
 10
3.890277862548828
 20
3.723610983954535
 30
0.0
 10
3.25694465637207
 20
4.536110983954535
 30
0.0
 10
3.479166878594292
 20
4.179166581895617
 30
0.0
 10
3.338889016045464
 20
4.26249991522895
 30
0.0
 10
3.355555852254231
 20
4.298611005147298
 30
0.0
 10
3.365278032090929
 20
4.13611094156901
 30
0.0
 10
3.191666920979817
 20
4.32361094156901
 30
0.0
 10
3.190277947319878
 20
4.184722052680121
 30
0.0
 10
3.480555852254231
 20
3.940277523464626
 30
0.0
 10
3.490278032090929
 20
3.931944105360243
 30
0.0
 10
3.502778159247504
 20
3.924999660915798
 30
0.0
 10
3.511111365424262
 20
3.912499745686849
 30
0.0
 10
3.458333545260959
 20
3.918055216471354
 30
0.0
 10
3.098611407809787
 20
4.247221946716309
 30
0.0
 10
3.068055894639757
 20
4.362499766879611
 30
0.0
 10
3.022222518920898
 20
4.531944168938531
 30
0.0
 10
2.909722646077474
 20
4.419444190131293
 30
0.0
 10
3.040278116861979
 20
4.286110877990723
 30
0.0
 10
3.044444825914171
 20
4.281944168938531
 30
0.0
 10
3.079167048136393
 20
4.24305534362793
 30
0.0
 10
3.075000339084201
 20
4.227777587042914
 30
0.0
 10
3.061111450195312
 20
4.233333163791232
 30
0.0
 10
3.059722476535373
 20
4.256944232516818
 30
0.0
 10
3.033333672417534
 20
4.272221989101833
 30
0.0
 10
2.966666963365343
 20
4.312499788072374
 30
0.0
 10
3.02638922797309
 20
4.209721883138021
 30
0.0
 10
3.075000339084201
 20
4.14861085679796
 30
0.0
 10
3.159722646077474
 20
4.043055216471354
 30
0.0
 10
3.090278201633029
 20
4.048610899183485
 30
0.0
 10
3.30833371480306
 20
3.883332994249132
 30
0.0
 10
3.234722561306423
 20
3.863888634575738
 30
0.0
 10
2.795833587646484
 20
4.311110814412435
 30
0.0
 10
2.779167175292969
 20
4.324999703301324
 30
0.0
 10
2.76527828640408
 20
4.337499724494086
 30
0.0
 10
2.756944868299696
 20
4.309721946716309
 30
0.0
 10
2.769444995456272
 20
4.294444190131293
 30
0.0
 10
2.84583388434516
 20
4.19861094156901
 30
0.0
 10
2.758333841959635
 20
4.290277481079102
 30
0.0
 10
2.825000551011827
 20
4.188888549804688
 30
0.0
 10
2.780556148952908
 20
4.205555174085829
 30
0.0
 10
2.645833969116211
 20
4.436110814412435
 30
0.0
 10
2.619444953070746
 20
4.445832994249131
 30
0.0
 10
2.587500466240777
 20
4.458333015441895
 30
0.0
 10
2.547222773234049
 20
4.418055216471354
 30
0.0
 10
2.708333757188585
 20
4.229166348775228
 30
0.0
 10
2.715278201633029
 20
4.220833036634657
 30
0.0
 10
2.723611619737413
 20
4.212499618530273
 30
0.0
 10
2.730556064181858
 20
4.201388465033637
 30
0.0
 10
2.729167090521918
 20
4.201388465033637
 30
0.0
 10
2.677778244018555
 20
4.213888380262587
 30
0.0
 10
2.684722688462999
 20
4.187499576144748
 30
0.0
 10
2.70277828640408
 20
4.118055131700304
 30
0.0
 10
2.756944868299696
 20
4.131944020589192
 30
0.0
 10
2.752778159247504
 20
4.093055089314778
 30
0.0
 10
2.736111534966363
 20
4.101388507419162
 30
0.0
 10
2.458333757188585
 20
4.312499576144748
 30
0.0
 10
2.411111407809787
 20
4.362499554951985
 30
0.0
 10
2.38194465637207
 20
4.393055068122016
 30
0.0
 10
2.398611492580838
 20
4.343055089314778
 30
0.0
 10
2.337500254313151
 20
4.401388486226399
 30
0.0
 10
2.32083363003201
 20
4.416666242811415
 30
0.0
 10
2.300000296698676
 20
4.41944408416748
 30
0.0
 10
2.300000296698676
 20
4.394444041781955
 30
0.0
 10
2.298611323038737
 20
4.341666221618652
 30
0.0
 10
2.348611407809787
 20
4.343055195278591
 30
0.0
 10
2.480555852254231
 20
4.147221883138021
 30
0.0
 10
2.511111365424262
 20
4.102777481079102
 30
0.0
 10
2.481944825914171
 20
4.122221840752496
 30
0.0
 10
2.477778116861979
 20
4.127777523464626
 30
0.0
 10
2.333333757188585
 20
4.295833057827419
 30
0.0
 10
2.209722518920898
 20
4.352777481079102
 30
0.0
 10
2.348611407809787
 20
4.224999745686849
 30
0.0
 10
2.375000211927626
 20
4.199999703301324
 30
0.0
 10
2.415278116861979
 20
4.159722010294596
 30
0.0
 10
2.441666920979817
 20
4.123610814412435
 30
0.0
 10
2.400000254313151
 20
4.097222010294596
 30
0.0
 10
2.079166836208767
 20
4.424999660915798
 30
0.0
 10
2.051389058430989
 20
4.436110814412435
 30
0.0
 10
2.027777989705403
 20
4.445832994249131
 30
0.0
 10
2.000000211927626
 20
4.418055216471354
 30
0.0
 10
2.05000008477105
 20
4.337499724494086
 30
0.0
 10
2.025000042385525
 20
4.341666433546278
 30
0.0
 10
2.005555682712131
 20
4.322221967909071
 30
0.0
 10
2.034722222222222
 20
4.294444190131293
 30
0.0
 10
2.063888973659939
 20
4.266666412353516
 30
0.0
 10
2.106944402058919
 20
4.234721925523546
 30
0.0
 10
2.102777693006727
 20
4.224999745686849
 30
0.0
 10
2.069444444444444
 20
4.223610877990723
 30
0.0
 10
2.066666497124566
 20
4.19861094156901
 30
0.0
 10
2.045833163791233
 20
4.223610877990723
 30
0.0
 10
1.994444317287869
 20
4.286110877990723
 30
0.0
 10
1.940277523464627
 20
4.366666475931803
 30
0.0
 10
1.924999872843424
 20
4.318055364820692
 30
0.0
 10
1.91805542839898
 20
4.294444296095106
 30
0.0
 10
2.034722010294596
 20
4.16666645473904
 30
0.0
 10
2.029166539510091
 20
4.147222095065646
 30
0.0
 10
1.988888846503364
 20
4.133333206176758
 30
0.0
 10
2.01111094156901
 20
4.11805534362793
 30
0.0
 10
2.008333206176758
 20
4.10416645473904
 30
0.0
 10
1.969444274902344
 20
4.113888634575738
 30
0.0
 10
1.816666497124566
 20
4.286110877990723
 30
0.0
 10
1.827777650621202
 20
4.274999830457899
 30
0.0
 10
1.819444232516819
 20
4.280555407206217
 30
0.0
 10
1.79305542839898
 20
4.287499851650661
 30
0.0
 10
1.852777693006727
 20
4.215277565850152
 30
0.0
 10
1.838888804117838
 20
4.216666539510091
 30
0.0
 10
1.787499957614475
 20
4.254166497124566
 30
0.0
 10
1.768055491977268
 20
4.294444190131293
 30
0.0
 10
1.727777693006727
 20
4.377777523464626
 30
0.0
 10
1.590277671813965
 20
4.509721967909071
 30
0.0
 10
1.618055449591743
 20
4.419444190131293
 30
0.0
 10
1.640277650621202
 20
4.347222010294596
 30
0.0
 10
1.676388740539551
 20
4.331944147745768
 30
0.0
 10
1.665277693006727
 20
4.30416636996799
 30
0.0
 10
1.649999936421712
 20
4.266666412353516
 30
0.0
 10
1.777777671813965
 20
4.126388549804688
 30
0.0
 10
1.78055551317003
 20
4.111110899183485
 30
0.0
 10
1.744444423251682
 20
4.111110899183485
 30
0.0
 10
1.458333333333333
 20
4.401388698154025
 30
0.0
 10
1.495833290947808
 20
4.309722052680121
 30
0.0
 10
1.529166645473904
 20
4.227777587042914
 30
0.0
 10
1.573611047532823
 20
4.248610920376247
 30
0.0
 10
1.665277693006727
 20
4.066666497124566
 30
0.0
 10
1.663888825310601
 20
4.066666497124566
 30
0.0
 10
1.594444380866157
 20
4.141666412353516
 30
0.0
 10
1.602777693006727
 20
4.084722095065646
 30
0.0
 10
1.608333269755045
 20
4.052777608235677
 30
0.0
 10
1.636111047532823
 20
4.033333248562283
 30
0.0
 10
1.631944338480631
 20
4.026388804117838
 30
0.0
 10
1.612499872843424
 20
4.023611068725586
 30
0.0
 10
1.504166603088379
 20
4.143055386013454
 30
0.0
 10
1.516666518317328
 20
4.0625
 30
0.0
 10
1.522222095065647
 20
4.025000042385525
 30
0.0
 10
1.526388698154026
 20
4.043055640326606
 30
0.0
 10
1.534722116258409
 20
4.011111153496636
 30
0.0
 10
1.545833269755045
 20
3.96805551317003
 30
0.0
 10
1.474999851650662
 20
4.022222306993273
 30
0.0
 10
1.604166560702854
 20
3.861111111111111
 30
0.0
 10
1.630555470784505
 20
3.827777862548828
 30
0.0
 10
1.45833322736952
 20
3.894444359673394
 30
0.0
 10
1.362499872843424
 20
3.875
 30
0.0
 10
1.319444338480631
 20
3.866666581895616
 30
0.0
 10
1.341666539510091
 20
3.823611153496636
 30
0.0
 10
1.340277671813965
 20
3.811111026340061
 30
0.0
 10
1.29305542839898
 20
3.488888846503364
 30
0.0
 10
1.380555470784505
 20
3.537499957614475
 30
0.0
 10
1.616666581895616
 20
3.501388761732313
 30
0.0
 10
1.61527771419949
 20
3.494444317287869
 30
0.0
 10
1.49027771419949
 20
3.348610983954535
 30
0.0
 10
1.522222095065647
 20
3.308333290947808
 30
0.0
 10
1.555555449591743
 20
3.265277650621202
 30
0.0
 10
1.551388740539551
 20
3.268055597941081
 30
0.0
 10
1.54305542839898
 20
3.255555470784505
 30
0.0
 10
1.441666497124566
 20
3.098610983954535
 30
0.0
 10
1.50277762942844
 20
3.059722052680121
 30
0.0
 10
1.524999830457899
 20
3.084722095065647
 30
0.0
 10
1.559722052680121
 20
3.122222052680121
 30
0.0
 10
1.588888698154026
 20
3.255555470784505
 30
0.0
 10
1.669444296095106
 20
3.247222052680121
 30
0.0
 10
1.673611005147298
 20
3.236110899183485
 30
0.0
 10
1.673611005147298
 20
3.226388719346788
 30
0.0
 10
1.666666560702854
 20
3.216666539510091
 30
0.0
 10
1.588888804117838
 20
3.077777650621202
 30
0.0
 10
1.665277693006727
 20
3.095833248562283
 30
0.0
 10
1.647222095065647
 20
3.05555534362793
 30
0.0
 10
1.615277608235677
 20
2.988888634575738
 30
0.0
 10
1.658333248562283
 20
2.963888592190213
 30
0.0
 10
1.674999872843424
 20
2.983333163791233
 30
0.0
 10
1.688888761732313
 20
3.001388761732313
 30
0.0
 10
1.661110983954535
 20
3.006944232516819
 30
0.0
 10
1.749999894036187
 20
3.119444317287869
 30
0.0
 10
1.781944274902344
 20
3.047222137451172
 30
0.0
 10
1.626388761732313
 20
2.987499872843424
 30
0.0
 10
1.759722073872884
 20
2.915277693006727
 30
0.0
 10
1.772222095065647
 20
2.908333248562283
 30
0.0
 10
1.791666454739041
 20
2.91805542839898
 30
0.0
 10
1.786110983954535
 20
2.936111026340061
 30
0.0
 10
1.777777671813965
 20
2.963888804117838
 30
0.0
 10
1.804166581895616
 20
2.944444444444444
 30
0.0
 10
1.830555386013455
 20
2.962499830457899
 30
0.0
 10
1.833333121405707
 20
2.963888804117838
 30
0.0
 10
1.83611085679796
 20
2.968055301242404
 30
0.0
 10
1.841666539510091
 20
2.965277565850152
 30
0.0
 10
1.809722052680121
 20
2.899999830457899
 30
0.0
 10
1.811111026340061
 20
2.902777565850152
 30
0.0
 10
1.834722095065647
 20
2.890277650621202
 30
0.0
 10
1.854166454739041
 20
2.880555470784505
 30
0.0
 10
1.859722137451172
 20
2.894444359673394
 30
0.0
 10
1.865277608235677
 20
2.908333248562283
 30
0.0
 10
1.873611026340061
 20
2.924999872843424
 30
0.0
 10
1.890277650621202
 20
2.898611068725586
 30
0.0
 10
1.902777565850152
 20
2.934722052680121
 30
0.0
 10
1.909722010294596
 20
2.955555386013455
 30
0.0
 10
1.922221925523546
 20
2.987499872843424
 30
0.0
 10
1.944444232516819
 20
2.987499872843424
 30
0.0
 10
1.944444232516819
 20
2.976388719346788
 30
0.0
 10
1.894444147745768
 20
2.909722010294596
 30
0.0
 10
1.919444190131293
 20
2.884722179836697
 30
0.0
 10
1.970833036634657
 20
2.834722095065647
 30
0.0
 10
1.968055301242404
 20
2.873611026340061
 30
0.0
 10
2.05416636996799
 20
2.96805551317003
 30
0.0
 10
2.08611085679796
 20
2.922222137451172
 30
0.0
 10
2.104166454739041
 20
2.962500042385525
 30
0.0
 10
2.119444105360243
 20
2.984722137451172
 30
0.0
 10
2.119444105360243
 20
2.966666539510091
 30
0.0
 10
2.09861077202691
 20
2.94999991522895
 30
0.0
 10
2.112499660915799
 20
2.938888761732313
 30
0.0
 10
2.170832951863606
 20
2.893055386013455
 30
0.0
 10
2.286110772026909
 20
3.076388676961263
 30
0.0
 10
2.305555131700304
 20
3.076388676961263
 30
0.0
 10
2.308332867092556
 20
3.063888761732313
 30
0.0
 10
2.298610687255859
 20
3.069444232516819
 30
0.0
 10
2.284721798366971
 20
3.012499703301323
 30
0.0
 10
2.279166327582465
 20
2.990277396308051
 30
0.0
 10
2.299999660915799
 20
2.962499618530273
 30
0.0
 10
2.326388465033637
 20
3.006944232516819
 30
0.0
 10
2.366666158040364
 20
3.077777650621202
 30
0.0
 10
2.362499660915799
 20
3.07361094156901
 30
0.0
 10
2.368055131700304
 20
3.072221967909071
 30
0.0
 10
2.322221755981445
 20
2.979166454739041
 30
0.0
 10
2.37916628519694
 20
3.015277438693576
 30
0.0
 10
2.361110687255859
 20
2.986110899183485
 30
0.0
 10
2.348610772026909
 20
2.966666539510091
 30
0.0
 10
2.373610602484809
 20
2.920833163791233
 30
0.0
 10
2.415277269151475
 20
2.959722095065647
 30
0.0
 10
2.495832867092556
 20
3.036110983954535
 30
0.0
 10
2.488888422648112
 20
3.03055551317003
 30
0.0
 10
2.494443893432617
 20
3.029166539510091
 30
0.0
 10
2.494443893432617
 20
2.994444317287869
 30
0.0
 10
2.519443935818142
 20
2.990277608235677
 30
0.0
 10
2.529166115654839
 20
3.013888676961263
 30
0.0
 10
2.55972162882487
 20
3.083333121405707
 30
0.0
 10
2.555554919772678
 20
3.08611085679796
 30
0.0
 10
2.565277311537001
 20
3.090277565850152
 30
0.0
 10
2.570832782321506
 20
3.074999703301323
 30
0.0
 10
2.54722171359592
 20
3.05555534362793
 30
0.0
 10
2.56666628519694
 20
3.036110983954535
 30
0.0
 10
2.57916620042589
 20
3.023611068725586
 30
0.0
 10
2.570832994249132
 20
3.013888676961263
 30
0.0
 10
2.559721840752495
 20
2.970833248562283
 30
0.0
 10
2.555555131700304
 20
2.956944359673394
 30
0.0
 10
2.580555174085829
 20
2.934722052680121
 30
0.0
 10
2.594444062974718
 20
2.94861094156901
 30
0.0
 10
2.608332951863606
 20
2.962499830457899
 30
0.0
 10
2.615277396308051
 20
2.931944317287869
 30
0.0
 10
2.631944020589192
 20
2.955555386013455
 30
0.0
 10
2.644443935818142
 20
2.972222010294596
 30
0.0
 10
2.645832909478081
 20
2.991666581895616
 30
0.0
 10
2.662499533759223
 20
3.015277650621202
 30
0.0
 10
2.673610687255859
 20
3.009722179836697
 30
0.0
 10
2.676388422648112
 20
3.002777735392252
 30
0.0
 10
2.67222171359592
 20
2.99305534362793
 30
0.0
 10
2.661110560099284
 20
2.966666539510091
 30
0.0
 10
2.690277311537001
 20
2.977777481079102
 30
0.0
 10
2.681943893432617
 20
2.945833206176758
 30
0.0
 10
2.674999448988173
 20
2.916666454739041
 30
0.0
 10
2.665277269151475
 20
2.897222095065647
 30
0.0
 10
2.697221755981445
 20
2.890277650621202
 30
0.0
 10
2.718055089314778
 20
2.88611094156901
 30
0.0
 10
2.712499618530273
 20
2.909722010294596
 30
0.0
 10
2.736110687255859
 20
2.947222179836697
 30
0.0
 10
2.740277396308051
 20
2.940277735392252
 30
0.0
 10
2.738888422648112
 20
2.934722264607747
 30
0.0
 10
2.737499660915799
 20
2.929166581895616
 30
0.0
 10
2.734721925523546
 20
2.911110983954535
 30
0.0
 10
2.769444147745768
 20
2.880555470784505
 30
0.0
 10
2.783333036634657
 20
2.919444402058919
 30
0.0
 10
2.840277565850152
 20
3.069444444444444
 30
0.0
 10
2.845833036634657
 20
3.034722222222222
 30
0.0
 10
2.872221840752495
 20
3.049999872843424
 30
0.0
 10
2.909721798366971
 20
3.072222179836697
 30
0.0
 10
2.791666242811415
 20
2.931944317287869
 30
0.0
 10
2.849999533759223
 20
2.915277693006727
 30
0.0
 10
2.856943978203667
 20
2.912499957614475
 30
0.0
 10
2.89166620042589
 20
2.852777693006727
 30
0.0
 10
2.908332824707031
 20
2.899999830457899
 30
0.0
 10
2.919443978203667
 20
2.93055534362793
 30
0.0
 10
2.955554962158203
 20
3.002777523464627
 30
0.0
 10
2.972221798366971
 20
3.036110983954535
 30
0.0
 10
2.977777269151475
 20
3.018055386013455
 30
0.0
 10
2.956943935818142
 20
2.987499872843424
 30
0.0
 10
2.991666158040364
 20
2.977777693006727
 30
0.0
 10
3.026388380262587
 20
2.96805551317003
 30
0.0
 10
3.006944020589192
 20
3.045833163791233
 30
0.0
 10
3.083332909478081
 20
3.097222222222222
 30
0.0
 10
3.069444020589192
 20
3.07499991522895
 30
0.0
 10
3.063888549804688
 20
3.05000008477105
 30
0.0
 10
3.051388422648112
 20
3.027777777777778
 30
0.0
 10
2.981943978203667
 20
2.893055597941081
 30
0.0
 10
2.986110687255859
 20
2.900000042385525
 30
0.0
 10
3.009721755981445
 20
2.880555470784505
 30
0.0
 10
3.037499533759223
 20
2.859722137451172
 30
0.0
 10
3.045832951863606
 20
2.91805542839898
 30
0.0
 10
3.076388465033637
 20
2.962499830457899
 30
0.0
 10
3.083332909478081
 20
2.96111085679796
 30
0.0
 10
3.090277353922526
 20
2.906944274902344
 30
0.0
 10
3.14166620042589
 20
2.963888804117838
 30
0.0
 10
3.147221671210395
 20
2.970833248562283
 30
0.0
 10
3.149999618530273
 20
2.979166666666667
 30
0.0
 10
3.15972179836697
 20
2.984722137451172
 30
0.0
 10
3.156944062974718
 20
2.962499830457899
 30
0.0
 10
3.168055216471354
 20
2.962499830457899
 30
0.0
 10
3.208332909478081
 20
2.9375
 30
0.0
 10
3.252777311537001
 20
2.909722222222222
 30
0.0
 10
3.243055131700304
 20
3.001388973659939
 30
0.0
 10
3.352777269151475
 20
3.058333290947808
 30
0.0
 10
3.323610517713758
 20
2.970833248562283
 30
0.0
 10
3.229166242811415
 20
2.884722179836697
 30
0.0
 10
3.288888295491536
 20
2.861111111111111
 30
0.0
 10
3.306943893432617
 20
2.854166666666667
 30
0.0
 10
3.315277099609375
 20
2.881944444444444
 30
0.0
 10
3.32777722676595
 20
2.901388804117838
 30
0.0
 10
3.343055089314778
 20
2.924999872843424
 30
0.0
 10
3.347221586439344
 20
2.891666624281141
 30
0.0
 10
3.374999364217122
 20
2.895833333333333
 30
0.0
 10
3.419443766276042
 20
2.794444402058919
 30
0.0
 10
3.447221544053819
 20
2.865277820163303
 30
0.0
 10
3.523610432942708
 20
2.998611026340061
 30
0.0
 10
3.523610432942708
 20
2.9375
 30
0.0
 10
3.522221459282769
 20
2.966666539510091
 30
0.0
 10
3.512499279446072
 20
2.924999872843424
 30
0.0
 10
3.505554835001627
 20
2.893055386013455
 30
0.0
 10
3.548610475328233
 20
2.944444232516819
 30
0.0
 10
3.497221416897244
 20
2.788888719346788
 30
0.0
 10
3.493054707845052
 20
2.777777565850152
 30
0.0
 10
3.506943596733941
 20
2.749999788072374
 30
0.0
 10
3.526388168334961
 20
2.820833206176758
 30
0.0
 10
3.533332612779405
 20
2.847222010294596
 30
0.0
 10
3.543054792616102
 20
2.82499991522895
 30
0.0
 10
3.552776972452799
 20
2.851388719346788
 30
0.0
 10
3.57083257039388
 20
2.902777565850152
 30
0.0
 10
3.586110432942708
 20
2.82499991522895
 30
0.0
 10
3.608332316080729
 20
2.870833079020182
 30
0.0
 10
3.622221204969618
 20
2.89861085679796
 30
0.0
 10
3.624999152289496
 20
2.918055216471354
 30
0.0
 10
3.702776590983073
 20
3.008332994249132
 30
0.0
 10
4.038887871636285
 20
3.393055174085829
 30
0.0
 10
3.834721035427517
 20
3.224999745686849
 30
0.0
 10
4.304165310329861
 20
3.388888465033637
 30
0.0
 10
4.397221035427517
 20
3.420832951863606
 30
0.0
 10
4.427776336669922
 20
3.444444020589192
 30
0.0
 10
4.470831976996528
 20
3.429166158040364
 30
0.0
 10
4.4930542839898
 20
3.420832739935981
 30
0.0
 10
4.484720865885416
 20
3.447221755981445
 30
0.0
 10
4.509720696343316
 20
3.440277311537001
 30
0.0
 10
4.519443088107638
 20
3.437499576144748
 30
0.0
 10
4.526387532552083
 20
3.443055046929253
 30
0.0
 10
4.530554029676649
 20
3.45277722676595
 30
0.0
 10
4.544444613986545
 20
3.490277820163303
 30
0.0
 10
4.486111111111111
 20
3.51249991522895
 30
0.0
 10
4.447222391764322
 20
3.526388804117838
 30
0.0
  0
HATCH
  5
6A
330
41
100
AcDbEntity
  8
Calque 1
 62
   118
420
    24365
100
AcDbHatch
 10
0.0
 20
0.0
 30
0.0
210
0.0
220
0.0
230
1.0
  2
SOLID
 70
     1
 71
     0
 91
        1
 92
        1
 93
        1
 72
     4
 94
        3
 73
     0
 74
     1
 95
      356
 96
      352
 40
0.0
 40
0.0
 40
0.0
 40
0.0
 40
1.0
 40
1.0
 40
1.0
 40
2.0
 40
2.0
 40
2.0
 40
3.0
 40
3.0
 40
3.0
 40
4.0
 40
4.0
 40
4.0
 40
5.0
 40
5.0
 40
5.0
 40
6.0
 40
6.0
 40
6.0
 40
7.0
 40
7.0
 40
7.0
 40
8.0
 40
8.0
 40
8.0
 40
9.0
 40
9.0
 40
9.0
 40
10.0
 40
10.0
 40
10.0
 40
11.0
 40
11.0
 40
11.0
 40
12.0
 40
12.0
 40
12.0
 40
13.0
 40
13.0
 40
13.0
 40
14.0
 40
14.0
 40
14.0
 40
15.0
 40
15.0
 40
15.0
 40
16.0
 40
16.0
 40
16.0
 40
17.0
 40
17.0
 40
17.0
 40
18.0
 40
18.0
 40
18.0
 40
19.0
 40
19.0
 40
19.0
 40
20.0
 40
20.0
 40
20.0
 40
21.0
 40
21.0
 40
21.0
 40
22.0
 40
22.0
 40
22.0
 40
23.0
 40
23.0
 40
23.0
 40
24.0
 40
24.0
 40
24.0
 40
25.0
 40
25.0
 40
25.0
 40
26.0
 40
26.0
 40
26.0
 40
27.0
 40
27.0
 40
27.0
 40
28.0
 40
28.0
 40
28.0
 40
29.0
 40
29.0
 40
29.0
 40
30.0
 40
30.0
 40
30.0
 40
31.0
 40
31.0
 40
31.0
 40
32.0
 40
32.0
 40
32.0
 40
33.0
 40
33.0
 40
33.0
 40
34.0
 40
34.0
 40
34.0
 40
35.0
 40
35.0
 40
35.0
 40
36.0
 40
36.0
 40
36.0
 40
37.0
 40
37.0
 40
37.0
 40
38.0
 40
38.0
 40
38.0
 40
39.0
 40
39.0
 40
39.0
 40
40.0
 40
40.0
 40
40.0
 40
41.0
 40
41.0
 40
41.0
 40
42.0
 40
42.0
 40
42.0
 40
43.0
 40
43.0
 40
43.0
 40
44.0
 40
44.0
 40
44.0
 40
45.0
 40
45.0
 40
45.0
 40
46.0
 40
46.0
 40
46.0
 40
47.0
 40
47.0
 40
47.0
 40
48.0
 40
48.0
 40
48.0
 40
49.0
 40
49.0
 40
49.0
 40
50.0
 40
50.0
 40
50.0
 40
51.0
 40
51.0
 40
51.0
 40
52.0
 40
52.0
 40
52.0
 40
53.0
 40
53.0
 40
53.0
 40
54.0
 40
54.0
 40
54.0
 40
55.0
 40
55.0
 40
55.0
 40
56.0
 40
56.0
 40
56.0
 40
57.0
 40
57.0
 40
57.0
 40
58.0
 40
58.0
 40
58.0
 40
59.0
 40
59.0
 40
59.0
 40
60.0
 40
60.0
 40
60.0
 40
61.0
 40
61.0
 40
61.0
 40
62.0
 40
62.0
 40
62.0
 40
63.0
 40
63.0
 40
63.0
 40
64.0
 40
64.0
 40
64.0
 40
65.0
 40
65.0
 40
65.0
 40
66.0
 40
66.0
 40
66.0
 40
67.0
 40
67.0
 40
67.0
 40
68.0
 40
68.0
 40
68.0
 40
69.0
 40
69.0
 40
69.0
 40
70.0
 40
70.0
 40
70.0
 40
71.0
 40
71.0
 40
71.0
 40
72.0
 40
72.0
 40
72.0
 40
73.0
 40
73.0
 40
73.0
 40
74.0
 40
74.0
 40
74.0
 40
75.0
 40
75.0
 40
75.0
 40
76.0
 40
76.0
 40
76.0
 40
77.0
 40
77.0
 40
77.0
 40
78.0
 40
78.0
 40
78.0
 40
79.0
 40
79.0
 40
79.0
 40
80.0
 40
80.0
 40
80.0
 40
81.0
 40
81.0
 40
81.0
 40
82.0
 40
82.0
 40
82.0
 40
83.0
 40
83.0
 40
83.0
 40
84.0
 40
84.0
 40
84.0
 40
85.0
 40
85.0
 40
85.0
 40
86.0
 40
86.0
 40
86.0
 40
87.0
 40
87.0
 40
87.0
 40
88.0
 40
88.0
 40
88.0
 40
89.0
 40
89.0
 40
89.0
 40
90.0
 40
90.0
 40
90.0
 40
91.0
 40
91.0
 40
91.0
 40
92.0
 40
92.0
 40
92.0
 40
93.0
 40
93.0
 40
93.0
 40
94.0
 40
94.0
 40
94.0
 40
95.0
 40
95.0
 40
95.0
 40
96.0
 40
96.0
 40
96.0
 40
97.0
 40
97.0
 40
97.0
 40
98.0
 40
98.0
 40
98.0
 40
99.0
 40
99.0
 40
99.0
 40
100.0
 40
100.0
 40
100.0
 40
101.0
 40
101.0
 40
101.0
 40
102.0
 40
102.0
 40
102.0
 40
103.0
 40
103.0
 40
103.0
 40
104.0
 40
104.0
 40
104.0
 40
105.0
 40
105.0
 40
105.0
 40
106.0
 40
106.0
 40
106.0
 40
107.0
 40
107.0
 40
107.0
 40
108.0
 40
108.0
 40
108.0
 40
109.0
 40
109.0
 40
109.0
 40
110.0
 40
110.0
 40
110.0
 40
111.0
 40
111.0
 40
111.0
 40
112.0
 40
112.0
 40
112.0
 40
113.0
 40
113.0
 40
113.0
 40
114.0
 40
114.0
 40
114.0
 40
115.0
 40
115.0
 40
115.0
 40
116.0
 40
116.0
 40
116.0
 40
117.0
 40
117.0
 40
117.0
 40
117.0
 10
4.447222391764322
 20
3.526388804117838
 10
3.890277862548828
 20
3.723610983954535
 10
3.25694465637207
 20
4.536110983954535
 10
3.479166878594292
 20
4.179166581895617
 10
3.338889016045464
 20
4.26249991522895
 10
3.355555852254231
 20
4.298611005147298
 10
3.365278032090929
 20
4.13611094156901
 10
3.191666920979817
 20
4.32361094156901
 10
3.190277947319878
 20
4.184722052680121
 10
3.480555852254231
 20
3.940277523464626
 10
3.490278032090929
 20
3.931944105360243
 10
3.502778159247504
 20
3.924999660915798
 10
3.511111365424262
 20
3.912499745686849
 10
3.458333545260959
 20
3.918055216471354
 10
3.098611407809787
 20
4.247221946716309
 10
3.068055894639757
 20
4.362499766879611
 10
3.022222518920898
 20
4.531944168938531
 10
2.909722646077474
 20
4.419444190131293
 10
3.040278116861979
 20
4.286110877990723
 10
3.044444825914171
 20
4.281944168938531
 10
3.079167048136393
 20
4.24305534362793
 10
3.075000339084201
 20
4.227777587042914
 10
3.061111450195312
 20
4.233333163791232
 10
3.059722476535373
 20
4.256944232516818
 10
3.033333672417534
 20
4.272221989101833
 10
2.966666963365343
 20
4.312499788072374
 10
3.02638922797309
 20
4.209721883138021
 10
3.075000339084201
 20
4.14861085679796
 10
3.159722646077474
 20
4.043055216471354
 10
3.090278201633029
 20
4.048610899183485
 10
3.30833371480306
 20
3.883332994249132
 10
3.234722561306423
 20
3.863888634575738
 10
2.795833587646484
 20
4.311110814412435
 10
2.779167175292969
 20
4.324999703301324
 10
2.76527828640408
 20
4.337499724494086
 10
2.756944868299696
 20
4.309721946716309
 10
2.769444995456272
 20
4.294444190131293
 10
2.84583388434516
 20
4.19861094156901
 10
2.758333841959635
 20
4.290277481079102
 10
2.825000551011827
 20
4.188888549804688
 10
2.780556148952908
 20
4.205555174085829
 10
2.645833969116211
 20
4.436110814412435
 10
2.619444953070746
 20
4.445832994249131
 10
2.587500466240777
 20
4.458333015441895
 10
2.547222773234049
 20
4.418055216471354
 10
2.708333757188585
 20
4.229166348775228
 10
2.715278201633029
 20
4.220833036634657
 10
2.723611619737413
 20
4.212499618530273
 10
2.730556064181858
 20
4.201388465033637
 10
2.729167090521918
 20
4.201388465033637
 10
2.677778244018555
 20
4.213888380262587
 10
2.684722688462999
 20
4.187499576144748
 10
2.70277828640408
 20
4.118055131700304
 10
2.756944868299696
 20
4.131944020589192
 10
2.752778159247504
 20
4.093055089314778
 10
2.736111534966363
 20
4.101388507419162
 10
2.458333757188585
 20
4.312499576144748
 10
2.411111407809787
 20
4.362499554951985
 10
2.38194465637207
 20
4.393055068122016
 10
2.398611492580838
 20
4.343055089314778
 10
2.337500254313151
 20
4.401388486226399
 10
2.32083363003201
 20
4.416666242811415
 10
2.300000296698676
 20
4.41944408416748
 10
2.300000296698676
 20
4.394444041781955
 10
2.298611323038737
 20
4.341666221618652
 10
2.348611407809787
 20
4.343055195278591
 10
2.480555852254231
 20
4.147221883138021
 10
2.511111365424262
 20
4.102777481079102
 10
2.481944825914171
 20
4.122221840752496
 10
2.477778116861979
 20
4.127777523464626
 10
2.333333757188585
 20
4.295833057827419
 10
2.209722518920898
 20
4.352777481079102
 10
2.348611407809787
 20
4.224999745686849
 10
2.375000211927626
 20
4.199999703301324
 10
2.415278116861979
 20
4.159722010294596
 10
2.441666920979817
 20
4.123610814412435
 10
2.400000254313151
 20
4.097222010294596
 10
2.079166836208767
 20
4.424999660915798
 10
2.051389058430989
 20
4.436110814412435
 10
2.027777989705403
 20
4.445832994249131
 10
2.000000211927626
 20
4.418055216471354
 10
2.05000008477105
 20
4.337499724494086
 10
2.025000042385525
 20
4.341666433546278
 10
2.005555682712131
 20
4.322221967909071
 10
2.034722222222222
 20
4.294444190131293
 10
2.063888973659939
 20
4.266666412353516
 10
2.106944402058919
 20
4.234721925523546
 10
2.102777693006727
 20
4.224999745686849
 10
2.069444444444444
 20
4.223610877990723
 10
2.066666497124566
 20
4.19861094156901
 10
2.045833163791233
 20
4.223610877990723
 10
1.994444317287869
 20
4.286110877990723
 10
1.940277523464627
 20
4.366666475931803
 10
1.924999872843424
 20
4.318055364820692
 10
1.91805542839898
 20
4.294444296095106
 10
2.034722010294596
 20
4.16666645473904
 10
2.029166539510091
 20
4.147222095065646
 10
1.988888846503364
 20
4.133333206176758
 10
2.01111094156901
 20
4.11805534362793
 10
2.008333206176758
 20
4.10416645473904
 10
1.969444274902344
 20
4.113888634575738
 10
1.816666497124566
 20
4.286110877990723
 10
1.827777650621202
 20
4.274999830457899
 10
1.819444232516819
 20
4.280555407206217
 10
1.79305542839898
 20
4.287499851650661
 10
1.852777693006727
 20
4.215277565850152
 10
1.838888804117838
 20
4.216666539510091
 10
1.787499957614475
 20
4.254166497124566
 10
1.768055491977268
 20
4.294444190131293
 10
1.727777693006727
 20
4.377777523464626
 10
1.590277671813965
 20
4.509721967909071
 10
1.618055449591743
 20
4.419444190131293
 10
1.640277650621202
 20
4.347222010294596
 10
1.676388740539551
 20
4.331944147745768
 10
1.665277693006727
 20
4.30416636996799
 10
1.649999936421712
 20
4.266666412353516
 10
1.777777671813965
 20
4.126388549804688
 10
1.78055551317003
 20
4.111110899183485
 10
1.744444423251682
 20
4.111110899183485
 10
1.458333333333333
 20
4.401388698154025
 10
1.495833290947808
 20
4.309722052680121
 10
1.529166645473904
 20
4.227777587042914
 10
1.573611047532823
 20
4.248610920376247
 10
1.665277693006727
 20
4.066666497124566
 10
1.663888825310601
 20
4.066666497124566
 10
1.594444380866157
 20
4.141666412353516
 10
1.602777693006727
 20
4.084722095065646
 10
1.608333269755045
 20
4.052777608235677
 10
1.636111047532823
 20
4.033333248562283
 10
1.631944338480631
 20
4.026388804117838
 10
1.612499872843424
 20
4.023611068725586
 10
1.504166603088379
 20
4.143055386013454
 10
1.516666518317328
 20
4.0625
 10
1.522222095065647
 20
4.025000042385525
 10
1.526388698154026
 20
4.043055640326606
 10
1.534722116258409
 20
4.011111153496636
 10
1.545833269755045
 20
3.96805551317003
 10
1.474999851650662
 20
4.022222306993273
 10
1.604166560702854
 20
3.861111111111111
 10
1.630555470784505
 20
3.827777862548828
 10
1.45833322736952
 20
3.894444359673394
 10
1.362499872843424
 20
3.875
 10
1.319444338480631
 20
3.866666581895616
 10
1.341666539510091
 20
3.823611153496636
 10
1.340277671813965
 20
3.811111026340061
 10
1.29305542839898
 20
3.488888846503364
 10
1.380555470784505
 20
3.537499957614475
 10
1.616666581895616
 20
3.501388761732313
 10
1.61527771419949
 20
3.494444317287869
 10
1.49027771419949
 20
3.348610983954535
 10
1.522222095065647
 20
3.308333290947808
 10
1.555555449591743
 20
3.265277650621202
 10
1.551388740539551
 20
3.268055597941081
 10
1.54305542839898
 20
3.255555470784505
 10
1.441666497124566
 20
3.098610983954535
 10
1.50277762942844
 20
3.059722052680121
 10
1.524999830457899
 20
3.084722095065647
 10
1.559722052680121
 20
3.122222052680121
 10
1.588888698154026
 20
3.255555470784505
 10
1.669444296095106
 20
3.247222052680121
 10
1.673611005147298
 20
3.236110899183485
 10
1.673611005147298
 20
3.226388719346788
 10
1.666666560702854
 20
3.216666539510091
 10
1.588888804117838
 20
3.077777650621202
 10
1.665277693006727
 20
3.095833248562283
 10
1.647222095065647
 20
3.05555534362793
 10
1.615277608235677
 20
2.988888634575738
 10
1.658333248562283
 20
2.963888592190213
 10
1.674999872843424
 20
2.983333163791233
 10
1.688888761732313
 20
3.001388761732313
 10
1.661110983954535
 20
3.006944232516819
 10
1.749999894036187
 20
3.119444317287869
 10
1.781944274902344
 20
3.047222137451172
 10
1.626388761732313
 20
2.987499872843424
 10
1.759722073872884
 20
2.915277693006727
 10
1.772222095065647
 20
2.908333248562283
 10
1.791666454739041
 20
2.91805542839898
 10
1.786110983954535
 20
2.936111026340061
 10
1.777777671813965
 20
2.963888804117838
 10
1.804166581895616
 20
2.944444444444444
 10
1.830555386013455
 20
2.962499830457899
 10
1.833333121405707
 20
2.963888804117838
 10
1.83611085679796
 20
2.968055301242404
 10
1.841666539510091
 20
2.965277565850152
 10
1.809722052680121
 20
2.899999830457899
 10
1.811111026340061
 20
2.902777565850152
 10
1.834722095065647
 20
2.890277650621202
 10
1.854166454739041
 20
2.880555470784505
 10
1.859722137451172
 20
2.894444359673394
 10
1.865277608235677
 20
2.908333248562283
 10
1.873611026340061
 20
2.924999872843424
 10
1.890277650621202
 20
2.898611068725586
 10
1.902777565850152
 20
2.934722052680121
 10
1.909722010294596
 20
2.955555386013455
 10
1.922221925523546
 20
2.987499872843424
 10
1.944444232516819
 20
2.987499872843424
 10
1.944444232516819
 20
2.976388719346788
 10
1.894444147745768
 20
2.909722010294596
 10
1.919444190131293
 20
2.884722179836697
 10
1.970833036634657
 20
2.834722095065647
 10
1.968055301242404
 20
2.873611026340061
 10
2.05416636996799
 20
2.96805551317003
 10
2.08611085679796
 20
2.922222137451172
 10
2.104166454739041
 20
2.962500042385525
 10
2.119444105360243
 20
2.984722137451172
 10
2.119444105360243
 20
2.966666539510091
 10
2.09861077202691
 20
2.94999991522895
 10
2.112499660915799
 20
2.938888761732313
 10
2.170832951863606
 20
2.893055386013455
 10
2.286110772026909
 20
3.076388676961263
 10
2.305555131700304
 20
3.076388676961263
 10
2.308332867092556
 20
3.063888761732313
 10
2.298610687255859
 20
3.069444232516819
 10
2.284721798366971
 20
3.012499703301323
 10
2.279166327582465
 20
2.990277396308051
 10
2.299999660915799
 20
2.962499618530273
 10
2.326388465033637
 20
3.006944232516819
 10
2.366666158040364
 20
3.077777650621202
 10
2.362499660915799
 20
3.07361094156901
 10
2.368055131700304
 20
3.072221967909071
 10
2.322221755981445
 20
2.979166454739041
 10
2.37916628519694
 20
3.015277438693576
 10
2.361110687255859
 20
2.986110899183485
 10
2.348610772026909
 20
2.966666539510091
 10
2.373610602484809
 20
2.920833163791233
 10
2.415277269151475
 20
2.959722095065647
 10
2.495832867092556
 20
3.036110983954535
 10
2.488888422648112
 20
3.03055551317003
 10
2.494443893432617
 20
3.029166539510091
 10
2.494443893432617
 20
2.994444317287869
 10
2.519443935818142
 20
2.990277608235677
 10
2.529166115654839
 20
3.013888676961263
 10
2.55972162882487
 20
3.083333121405707
 10
2.555554919772678
 20
3.08611085679796
 10
2.565277311537001
 20
3.090277565850152
 10
2.570832782321506
 20
3.074999703301323
 10
2.54722171359592
 20
3.05555534362793
 10
2.56666628519694
 20
3.036110983954535
 10
2.57916620042589
 20
3.023611068725586
 10
2.570832994249132
 20
3.013888676961263
 10
2.559721840752495
 20
2.970833248562283
 10
2.555555131700304
 20
2.956944359673394
 10
2.580555174085829
 20
2.934722052680121
 10
2.594444062974718
 20
2.94861094156901
 10
2.608332951863606
 20
2.962499830457899
 10
2.615277396308051
 20
2.931944317287869
 10
2.631944020589192
 20
2.955555386013455
 10
2.644443935818142
 20
2.972222010294596
 10
2.645832909478081
 20
2.991666581895616
 10
2.662499533759223
 20
3.015277650621202
 10
2.673610687255859
 20
3.009722179836697
 10
2.676388422648112
 20
3.002777735392252
 10
2.67222171359592
 20
2.99305534362793
 10
2.661110560099284
 20
2.966666539510091
 10
2.690277311537001
 20
2.977777481079102
 10
2.681943893432617
 20
2.945833206176758
 10
2.674999448988173
 20
2.916666454739041
 10
2.665277269151475
 20
2.897222095065647
 10
2.697221755981445
 20
2.890277650621202
 10
2.718055089314778
 20
2.88611094156901
 10
2.712499618530273
 20
2.909722010294596
 10
2.736110687255859
 20
2.947222179836697
 10
2.740277396308051
 20
2.940277735392252
 10
2.738888422648112
 20
2.934722264607747
 10
2.737499660915799
 20
2.929166581895616
 10
2.734721925523546
 20
2.911110983954535
 10
2.769444147745768
 20
2.880555470784505
 10
2.783333036634657
 20
2.919444402058919
 10
2.840277565850152
 20
3.069444444444444
 10
2.845833036634657
 20
3.034722222222222
 10
2.872221840752495
 20
3.049999872843424
 10
2.909721798366971
 20
3.072222179836697
 10
2.791666242811415
 20
2.931944317287869
 10
2.849999533759223
 20
2.915277693006727
 10
2.856943978203667
 20
2.912499957614475
 10
2.89166620042589
 20
2.852777693006727
 10
2.908332824707031
 20
2.899999830457899
 10
2.919443978203667
 20
2.93055534362793
 10
2.955554962158203
 20
3.002777523464627
 10
2.972221798366971
 20
3.036110983954535
 10
2.977777269151475
 20
3.018055386013455
 10
2.956943935818142
 20
2.987499872843424
 10
2.991666158040364
 20
2.977777693006727
 10
3.026388380262587
 20
2.96805551317003
 10
3.006944020589192
 20
3.045833163791233
 10
3.083332909478081
 20
3.097222222222222
 10
3.069444020589192
 20
3.07499991522895
 10
3.063888549804688
 20
3.05000008477105
 10
3.051388422648112
 20
3.027777777777778
 10
2.981943978203667
 20
2.893055597941081
 10
2.986110687255859
 20
2.900000042385525
 10
3.009721755981445
 20
2.880555470784505
 10
3.037499533759223
 20
2.859722137451172
 10
3.045832951863606
 20
2.91805542839898
 10
3.076388465033637
 20
2.962499830457899
 10
3.083332909478081
 20
2.96111085679796
 10
3.090277353922526
 20
2.906944274902344
 10
3.14166620042589
 20
2.963888804117838
 10
3.147221671210395
 20
2.970833248562283
 10
3.149999618530273
 20
2.979166666666667
 10
3.15972179836697
 20
2.984722137451172
 10
3.156944062974718
 20
2.962499830457899
 10
3.168055216471354
 20
2.962499830457899
 10
3.208332909478081
 20
2.9375
 10
3.252777311537001
 20
2.909722222222222
 10
3.243055131700304
 20
3.001388973659939
 10
3.352777269151475
 20
3.058333290947808
 10
3.323610517713758
 20
2.970833248562283
 10
3.229166242811415
 20
2.884722179836697
 10
3.288888295491536
 20
2.861111111111111
 10
3.306943893432617
 20
2.854166666666667
 10
3.315277099609375
 20
2.881944444444444
 10
3.32777722676595
 20
2.901388804117838
 10
3.343055089314778
 20
2.924999872843424
 10
3.347221586439344
 20
2.891666624281141
 10
3.374999364217122
 20
2.895833333333333
 10
3.419443766276042
 20
2.794444402058919
 10
3.447221544053819
 20
2.865277820163303
 10
3.523610432942708
 20
2.998611026340061
 10
3.523610432942708
 20
2.9375
 10
3.522221459282769
 20
2.966666539510091
 10
3.512499279446072
 20
2.924999872843424
 10
3.505554835001627
 20
2.893055386013455
 10
3.548610475328233
 20
2.944444232516819
 10
3.497221416897244
 20
2.788888719346788
 10
3.493054707845052
 20
2.777777565850152
 10
3.506943596733941
 20
2.749999788072374
 10
3.526388168334961
 20
2.820833206176758
 10
3.533332612779405
 20
2.847222010294596
 10
3.543054792616102
 20
2.82499991522895
 10
3.552776972452799
 20
2.851388719346788
 10
3.57083257039388
 20
2.902777565850152
 10
3.586110432942708
 20
2.82499991522895
 10
3.608332316080729
 20
2.870833079020182
 10
3.622221204969618
 20
2.89861085679796
 10
3.624999152289496
 20
2.918055216471354
 10
3.702776590983073
 20
3.008332994249132
 10
4.038887871636285
 20
3.393055174085829
 10
3.834721035427517
 20
3.224999745686849
 10
4.304165310329861
 20
3.388888465033637
 10
4.397221035427517
 20
3.420832951863606
 10
4.427776336669922
 20
3.444444020589192
 10
4.470831976996528
 20
3.429166158040364
 10
4.4930542839898
 20
3.420832739935981
 10
4.484720865885416
 20
3.447221755981445
 10
4.509720696343316
 20
3.440277311537001
 10
4.519443088107638
 20
3.437499576144748
 10
4.526387532552083
 20
3.443055046929253
 10
4.530554029676649
 20
3.45277722676595
 10
4.544444613986545
 20
3.490277820163303
 10
4.486111111111111
 20
3.51249991522895
 10
4.447222391764322
 20
3.526388804117838
 97
        0
 97
        0
 75
     2
 76
     1
 98
        0
  0
SPLINE
  5
6B
330
41
100
AcDbEntity
  8
Calque 1
370
     0
100
AcDbSpline
210
0.0
220
0.0
230
1.0
 70
    11
 71
     3
 72
    38
 73
    34
 74
     0
 42
0.0000000001
 43
0.0000000001
 12
1.0
 22
0.0
 32
0.0
 13
1.0
 23
0.0
 33
0.0
 40
0.0
 40
0.0
 40
0.0
 40
0.0
 40
1.0
 40
1.0
 40
1.0
 40
2.0
 40
2.0
 40
2.0
 40
3.0
 40
3.0
 40
3.0
 40
4.0
 40
4.0
 40
4.0
 40
5.0
 40
5.0
 40
5.0
 40
6.0
 40
6.0
 40
6.0
 40
7.0
 40
7.0
 40
7.0
 40
8.0
 40
8.0
 40
8.0
 40
9.0
 40
9.0
 40
9.0
 40
10.0
 40
10.0
 40
10.0
 40
11.0
 40
11.0
 40
11.0
 40
11.0
 10
2.591666751437717
 20
4.138888888888888
 30
0.0
 10
2.593055725097656
 20
3.82499991522895
 30
0.0
 10
2.597222222222222
 20
3.51249991522895
 30
0.0
 10
2.601388931274414
 20
3.198611153496636
 30
0.0
 10
2.609722349378798
 20
2.673611111111111
 30
0.0
 10
2.618055555555555
 20
2.148611280653212
 30
0.0
 10
2.650000042385525
 20
1.625
 30
0.0
 10
2.656944486829969
 20
1.522222306993273
 30
0.0
 10
2.662499957614475
 20
1.419444613986545
 30
0.0
 10
2.67500008477105
 20
1.316666497124566
 30
0.0
 10
2.679166793823242
 20
1.283333248562283
 30
0.0
 10
2.681944529215495
 20
1.248611026340061
 30
0.0
 10
2.690277947319878
 20
1.215277777777778
 30
0.0
 10
2.70694457160102
 20
1.140277862548828
 30
0.0
 10
2.777777989705403
 20
1.134722391764323
 30
0.0
 10
2.827777862548828
 20
1.152777777777778
 30
0.0
 10
2.876388973659939
 20
1.170833163791233
 30
0.0
 10
2.875
 20
1.208333333333333
 30
0.0
 10
2.879166709052192
 20
1.266666836208767
 30
0.0
 10
2.884722179836697
 20
1.350000169542101
 30
0.0
 10
2.884722179836697
 20
1.433333502875434
 30
0.0
 10
2.886111153496636
 20
1.518055809868706
 30
0.0
 10
2.886111153496636
 20
1.768055809868706
 30
0.0
 10
2.879166709052192
 20
2.018055809868707
 30
0.0
 10
2.869444529215495
 20
2.268055809868706
 30
0.0
 10
2.8500001695421
 20
2.798611323038737
 30
0.0
 10
2.822222391764323
 20
3.329166836208767
 30
0.0
 10
2.783333460489909
 20
3.858333587646484
 30
0.0
 10
2.777777989705403
 20
3.934722476535373
 30
0.0
 10
2.788888931274414
 20
4.116667005750868
 30
0.0
 10
2.751388973659939
 20
4.183333502875434
 30
0.0
 10
2.720833248562283
 20
4.238888846503364
 30
0.0
 10
2.591666751437717
 20
4.138888888888888
 30
0.0
 10
2.591666751437717
 20
4.138888888888888
 30
0.0
  0
HATCH
  5
6C
330
41
100
AcDbEntity
  8
Calque 1
 62
    22
420
 15086378
100
AcDbHatch
 10
0.0
 20
0.0
 30
0.0
210
0.0
220
0.0
230
1.0
  2
SOLID
 70
     1
 71
     0
 91
        1
 92
        1
 93
        1
 72
     4
 94
        3
 73
     0
 74
     1
 95
       38
 96
       34
 40
0.0
 40
0.0
 40
0.0
 40
0.0
 40
1.0
 40
1.0
 40
1.0
 40
2.0
 40
2.0
 40
2.0
 40
3.0
 40
3.0
 40
3.0
 40
4.0
 40
4.0
 40
4.0
 40
5.0
 40
5.0
 40
5.0
 40
6.0
 40
6.0
 40
6.0
 40
7.0
 40
7.0
 40
7.0
 40
8.0
 40
8.0
 40
8.0
 40
9.0
 40
9.0
 40
9.0
 40
10.0
 40
10.0
 40
10.0
 40
11.0
 40
11.0
 40
11.0
 40
11.0
 10
2.591666751437717
 20
4.138888888888888
 10
2.593055725097656
 20
3.82499991522895
 10
2.597222222222222
 20
3.51249991522895
 10
2.601388931274414
 20
3.198611153496636
 10
2.609722349378798
 20
2.673611111111111
 10
2.618055555555555
 20
2.148611280653212
 10
2.650000042385525
 20
1.625
 10
2.656944486829969
 20
1.522222306993273
 10
2.662499957614475
 20
1.419444613986545
 10
2.67500008477105
 20
1.316666497124566
 10
2.679166793823242
 20
1.283333248562283
 10
2.681944529215495
 20
1.248611026340061
 10
2.690277947319878
 20
1.215277777777778
 10
2.70694457160102
 20
1.140277862548828
 10
2.777777989705403
 20
1.134722391764323
 10
2.827777862548828
 20
1.152777777777778
 10
2.876388973659939
 20
1.170833163791233
 10
2.875
 20
1.208333333333333
 10
2.879166709052192
 20
1.266666836208767
 10
2.884722179836697
 20
1.350000169542101
 10
2.884722179836697
 20
1.433333502875434
 10
2.886111153496636
 20
1.518055809868706
 10
2.886111153496636
 20
1.768055809868706
 10
2.879166709052192
 20
2.018055809868707
 10
2.869444529215495
 20
2.268055809868706
 10
2.8500001695421
 20
2.798611323038737
 10
2.822222391764323
 20
3.329166836208767
 10
2.783333460489909
 20
3.858333587646484
 10
2.777777989705403
 20
3.934722476535373
 10
2.788888931274414
 20
4.116667005750868
 10
2.751388973659939
 20
4.183333502875434
 10
2.720833248562283
 20
4.238888846503364
 10
2.591666751437717
 20
4.138888888888888
 10
2.591666751437717
 20
4.138888888888888
 97
        0
 97
        0
 75
     2
 76
     1
 98
        0
  0
INSERT
  5
6E
330
41
100
AcDbEntity
  8
Calque 1
100
AcDbBlockReference
  2
block 7
 10
0.0
 20
0.0
 30
0.0
  0
ENDBLK
  5
44
330
41
100
AcDbEntity
  8
0
100
AcDbBlockEnd
  0
BLOCK
  5
47
330
45
100
AcDbEntity
  8
0
100
AcDbBlockBegin
  2
block 3
 70
     0
 10
0.0
 20
0.0
 30
0.0
  3
block 3
  1

  0
SPLINE
  5
49
330
45
100
AcDbEntity
  8
Calque 1
370
     0
100
AcDbSpline
210
0.0
220
0.0
230
1.0
 70
    11
 71
     3
 72
    44
 73
    40
 74
     0
 42
0.0000000001
 43
0.0000000001
 12
1.0
 22
0.0
 32
0.0
 13
1.0
 23
0.0
 33
0.0
 40
0.0
 40
0.0
 40
0.0
 40
0.0
 40
1.0
 40
1.0
 40
1.0
 40
2.0
 40
2.0
 40
2.0
 40
3.0
 40
3.0
 40
3.0
 40
4.0
 40
4.0
 40
4.0
 40
5.0
 40
5.0
 40
5.0
 40
6.0
 40
6.0
 40
6.0
 40
7.0
 40
7.0
 40
7.0
 40
8.0
 40
8.0
 40
8.0
 40
9.0
 40
9.0
 40
9.0
 40
10.0
 40
10.0
 40
10.0
 40
11.0
 40
11.0
 40
11.0
 40
12.0
 40
12.0
 40
12.0
 40
13.0
 40
13.0
 40
13.0
 40
13.0
 10
4.423611111111111
 20
1.963888804117838
 30
0.0
 10
4.102777693006727
 20
2.191666497124566
 30
0.0
 10
3.8500001695421
 20
2.184722052680121
 30
0.0
 10
3.8500001695421
 20
2.184722052680121
 30
0.0
 10
3.598611195882161
 20
3.05555534362793
 30
0.0
 10
3.393055809868706
 20
3.099999745686849
 30
0.0
 10
2.611111323038737
 20
3.099999745686849
 30
0.0
 10
2.336111280653212
 20
3.099999745686849
 30
0.0
 10
2.062500211927626
 20
3.069444232516819
 30
0.0
 10
1.895833545260959
 20
2.813888549804688
 30
0.0
 10
1.763889100816515
 20
2.649999618530273
 30
0.0
 10
1.708333545260959
 20
2.144443935818142
 30
0.0
 10
1.708333545260959
 20
2.144443935818142
 30
0.0
 10
1.708333545260959
 20
2.144443935818142
 30
0.0
 10
1.313889079623752
 20
1.994444105360243
 30
0.0
 10
1.313889079623752
 20
1.18472162882487
 30
0.0
 10
1.313889079623752
 20
1.18472162882487
 30
0.0
 10
1.500000211927626
 20
1.186110602484809
 30
0.0
 10
1.534722434149848
 20
1.186110602484809
 30
0.0
 10
1.534722434149848
 20
1.186110602484809
 30
0.0
 10
1.523611280653212
 20
1.74583265516493
 30
0.0
 10
2.012500339084201
 20
1.74583265516493
 30
0.0
 10
2.501389397515191
 20
1.74583265516493
 30
0.0
 10
2.502778159247504
 20
1.198610517713759
 30
0.0
 10
2.502778159247504
 20
1.198610517713759
 30
0.0
 10
2.502778159247504
 20
1.198610517713759
 30
0.0
 10
3.361111111111111
 20
1.208333333333333
 30
0.0
 10
3.361111111111111
 20
1.208333333333333
 30
0.0
 10
3.361111111111111
 20
1.208333333333333
 30
0.0
 10
3.365277820163303
 20
1.756944444444444
 30
0.0
 10
3.875
 20
1.756944444444444
 30
0.0
 10
4.384722391764322
 20
1.756944444444444
 30
0.0
 10
4.388888888888888
 20
1.193055470784505
 30
0.0
 10
4.388888888888888
 20
1.193055470784505
 30
0.0
 10
4.388888888888888
 20
1.193055470784505
 30
0.0
 10
4.595833248562283
 20
1.138888888888889
 30
0.0
 10
4.649999830457899
 20
1.193055470784505
 30
0.0
 10
4.701388888888888
 20
1.247222052680121
 30
0.0
 10
4.744444529215494
 20
1.736111111111111
 30
0.0
 10
4.423611111111111
 20
1.963888804117838
 30
0.0
  0
SPLINE
  5
4A
330
45
100
AcDbEntity
  8
Calque 1
370
     0
100
AcDbSpline
210
0.0
220
0.0
230
1.0
 70
    11
 71
     3
 72
    14
 73
    10
 74
     0
 42
0.0000000001
 43
0.0000000001
 12
1.0
 22
0.0
 32
0.0
 13
1.0
 23
0.0
 33
0.0
 40
0.0
 40
0.0
 40
0.0
 40
0.0
 40
1.0
 40
1.0
 40
1.0
 40
2.0
 40
2.0
 40
2.0
 40
3.0
 40
3.0
 40
3.0
 40
3.0
 10
2.618055555555555
 20
2.220833248562283
 30
0.0
 10
2.618055555555555
 20
2.220833248562283
 30
0.0
 10
1.881944444444444
 20
2.220833248562283
 30
0.0
 10
1.881944444444444
 20
2.220833248562283
 30
0.0
 10
1.96805551317003
 20
2.813888761732313
 30
0.0
 10
2.115277820163303
 20
2.956944359673394
 30
0.0
 10
2.618055555555555
 20
2.956944359673394
 30
0.0
 10
2.618055555555555
 20
2.956944359673394
 30
0.0
 10
2.618055555555555
 20
2.220833248562283
 30
0.0
 10
2.618055555555555
 20
2.220833248562283
 30
0.0
  0
SPLINE
  5
4B
330
45
100
AcDbEntity
  8
Calque 1
370
     0
100
AcDbSpline
210
0.0
220
0.0
230
1.0
 70
    11
 71
     3
 72
    14
 73
    10
 74
     0
 42
0.0000000001
 43
0.0000000001
 12
1.0
 22
0.0
 32
0.0
 13
1.0
 23
0.0
 33
0.0
 40
0.0
 40
0.0
 40
0.0
 40
0.0
 40
1.0
 40
1.0
 40
1.0
 40
2.0
 40
2.0
 40
2.0
 40
3.0
 40
3.0
 40
3.0
 40
3.0
 10
2.754166709052192
 20
2.220833248562283
 30
0.0
 10
2.754166709052192
 20
2.220833248562283
 30
0.0
 10
2.754166709052192
 20
2.956944359673394
 30
0.0
 10
2.754166709052192
 20
2.956944359673394
 30
0.0
 10
3.065277735392252
 20
2.956944359673394
 30
0.0
 10
3.559722052680121
 20
3.018055386013455
 30
0.0
 10
3.683333502875434
 20
2.220833248562283
 30
0.0
 10
3.683333502875434
 20
2.220833248562283
 30
0.0
 10
2.754166709052192
 20
2.220833248562283
 30
0.0
 10
2.754166709052192
 20
2.220833248562283
 30
0.0
  0
HATCH
  5
4C
330
45
100
AcDbEntity
  8
Calque 1
 62
    12
420
 13178135
100
AcDbHatch
 10
0.0
 20
0.0
 30
0.0
210
0.0
220
0.0
230
1.0
  2
SOLID
 70
     1
 71
     0
 91
        3
 92
        1
 93
        1
 72
     4
 94
        3
 73
     0
 74
     1
 95
       44
 96
       40
 40
0.0
 40
0.0
 40
0.0
 40
0.0
 40
1.0
 40
1.0
 40
1.0
 40
2.0
 40
2.0
 40
2.0
 40
3.0
 40
3.0
 40
3.0
 40
4.0
 40
4.0
 40
4.0
 40
5.0
 40
5.0
 40
5.0
 40
6.0
 40
6.0
 40
6.0
 40
7.0
 40
7.0
 40
7.0
 40
8.0
 40
8.0
 40
8.0
 40
9.0
 40
9.0
 40
9.0
 40
10.0
 40
10.0
 40
10.0
 40
11.0
 40
11.0
 40
11.0
 40
12.0
 40
12.0
 40
12.0
 40
13.0
 40
13.0
 40
13.0
 40
13.0
 10
4.423611111111111
 20
1.963888804117838
 10
4.102777693006727
 20
2.191666497124566
 10
3.8500001695421
 20
2.184722052680121
 10
3.8500001695421
 20
2.184722052680121
 10
3.598611195882161
 20
3.05555534362793
 10
3.393055809868706
 20
3.099999745686849
 10
2.611111323038737
 20
3.099999745686849
 10
2.336111280653212
 20
3.099999745686849
 10
2.062500211927626
 20
3.069444232516819
 10
1.895833545260959
 20
2.813888549804688
 10
1.763889100816515
 20
2.649999618530273
 10
1.708333545260959
 20
2.144443935818142
 10
1.708333545260959
 20
2.144443935818142
 10
1.708333545260959
 20
2.144443935818142
 10
1.313889079623752
 20
1.994444105360243
 10
1.313889079623752
 20
1.18472162882487
 10
1.313889079623752
 20
1.18472162882487
 10
1.500000211927626
 20
1.186110602484809
 10
1.534722434149848
 20
1.186110602484809
 10
1.534722434149848
 20
1.186110602484809
 10
1.523611280653212
 20
1.74583265516493
 10
2.012500339084201
 20
1.74583265516493
 10
2.501389397515191
 20
1.74583265516493
 10
2.502778159247504
 20
1.198610517713759
 10
2.502778159247504
 20
1.198610517713759
 10
2.502778159247504
 20
1.198610517713759
 10
3.361111111111111
 20
1.208333333333333
 10
3.361111111111111
 20
1.208333333333333
 10
3.361111111111111
 20
1.208333333333333
 10
3.365277820163303
 20
1.756944444444444
 10
3.875
 20
1.756944444444444
 10
4.384722391764322
 20
1.756944444444444
 10
4.388888888888888
 20
1.193055470784505
 10
4.388888888888888
 20
1.193055470784505
 10
4.388888888888888
 20
1.193055470784505
 10
4.595833248562283
 20
1.138888888888889
 10
4.649999830457899
 20
1.193055470784505
 10
4.701388888888888
 20
1.247222052680121
 10
4.744444529215494
 20
1.736111111111111
 10
4.423611111111111
 20
1.963888804117838
 97
        0
 97
        0
 92
        1
 93
        1
 72
     4
 94
        3
 73
     0
 74
     1
 95
       14
 96
       10
 40
0.0
 40
0.0
 40
0.0
 40
0.0
 40
1.0
 40
1.0
 40
1.0
 40
2.0
 40
2.0
 40
2.0
 40
3.0
 40
3.0
 40
3.0
 40
3.0
 10
2.618055555555555
 20
2.220833248562283
 10
2.618055555555555
 20
2.220833248562283
 10
1.881944444444444
 20
2.220833248562283
 10
1.881944444444444
 20
2.220833248562283
 10
1.96805551317003
 20
2.813888761732313
 10
2.115277820163303
 20
2.956944359673394
 10
2.618055555555555
 20
2.956944359673394
 10
2.618055555555555
 20
2.956944359673394
 10
2.618055555555555
 20
2.220833248562283
 10
2.618055555555555
 20
2.220833248562283
 97
        0
 97
        0
 92
        1
 93
        1
 72
     4
 94
        3
 73
     0
 74
     1
 95
       14
 96
       10
 40
0.0
 40
0.0
 40
0.0
 40
0.0
 40
1.0
 40
1.0
 40
1.0
 40
2.0
 40
2.0
 40
2.0
 40
3.0
 40
3.0
 40
3.0
 40
3.0
 10
2.754166709052192
 20
2.220833248562283
 10
2.754166709052192
 20
2.220833248562283
 10
2.754166709052192
 20
2.956944359673394
 10
2.754166709052192
 20
2.956944359673394
 10
3.065277735392252
 20
2.956944359673394
 10
3.559722052680121
 20
3.018055386013455
 10
3.683333502875434
 20
2.220833248562283
 10
3.683333502875434
 20
2.220833248562283
 10
2.754166709052192
 20
2.220833248562283
 10
2.754166709052192
 20
2.220833248562283
 97
        0
 97
        0
 75
     2
 76
     1
 98
        0
  0
INSERT
  5
4E
330
45
100
AcDbEntity
  8
Calque 1
100
AcDbBlockReference
  2
block 4
 10
0.0
 20
0.0
 30
0.0
  0
INSERT
  5
57
330
45
100
AcDbEntity
  8
Calque 1
100
AcDbBlockReference
  2
block 5
 10
0.0
 20
0.0
 30
0.0
  0
SPLINE
  5
5F
330
45
100
AcDbEntity
  8
Calque 1
370
     0
100
AcDbSpline
210
0.0
220
0.0
230
1.0
 70
    11
 71
     3
 72
    17
 73
    13
 74
     0
 42
0.0000000001
 43
0.0000000001
 12
1.0
 22
0.0
 32
0.0
 13
1.0
 23
0.0
 33
0.0
 40
0.0
 40
0.0
 40
0.0
 40
0.0
 40
1.0
 40
1.0
 40
1.0
 40
2.0
 40
2.0
 40
2.0
 40
3.0
 40
3.0
 40
3.0
 40
4.0
 40
4.0
 40
4.0
 40
4.0
 10
4.416666666666666
 20
1.670833163791233
 30
0.0
 10
4.476388719346788
 20
1.655555301242404
 30
0.0
 10
4.570833418104383
 20
1.658333248562283
 30
0.0
 10
4.640277862548828
 20
1.662499745686849
 30
0.0
 10
4.60138914320204
 20
1.774999830457899
 30
0.0
 10
4.534722222222222
 20
1.88611094156901
 30
0.0
 10
4.423611111111111
 20
1.965277353922526
 30
0.0
 10
4.416666666666666
 20
1.970832824707031
 30
0.0
 10
4.409722222222222
 20
1.974999745686849
 30
0.0
 10
4.402777777777778
 20
1.979166242811415
 30
0.0
 10
4.379166497124566
 20
1.88611094156901
 30
0.0
 10
4.337499830457899
 20
1.690277947319878
 30
0.0
 10
4.416666666666666
 20
1.670833163791233
 30
0.0
  0
HATCH
  5
60
330
45
100
AcDbEntity
  8
Calque 1
 62
    22
420
 15086378
100
AcDbHatch
 10
0.0
 20
0.0
 30
0.0
210
0.0
220
0.0
230
1.0
  2
SOLID
 70
     1
 71
     0
 91
        1
 92
        1
 93
        1
 72
     4
 94
        3
 73
     0
 74
     1
 95
       17
 96
       13
 40
0.0
 40
0.0
 40
0.0
 40
0.0
 40
1.0
 40
1.0
 40
1.0
 40
2.0
 40
2.0
 40
2.0
 40
3.0
 40
3.0
 40
3.0
 40
4.0
 40
4.0
 40
4.0
 40
4.0
 10
4.416666666666666
 20
1.670833163791233
 10
4.476388719346788
 20
1.655555301242404
 10
4.570833418104383
 20
1.658333248562283
 10
4.640277862548828
 20
1.662499745686849
 10
4.60138914320204
 20
1.774999830457899
 10
4.534722222222222
 20
1.88611094156901
 10
4.423611111111111
 20
1.965277353922526
 10
4.416666666666666
 20
1.970832824707031
 10
4.409722222222222
 20
1.974999745686849
 10
4.402777777777778
 20
1.979166242811415
 10
4.379166497124566
 20
1.88611094156901
 10
4.337499830457899
 20
1.690277947319878
 10
4.416666666666666
 20
1.670833163791233
 97
        0
 97
        0
 75
     2
 76
     1
 98
        0
  0
SPLINE
  5
61
330
45
100
AcDbEntity
  8
Calque 1
370
     0
100
AcDbSpline
210
0.0
220
0.0
230
1.0
 70
    11
 71
     3
 72
    14
 73
    10
 74
     0
 42
0.0000000001
 43
0.0000000001
 12
1.0
 22
0.0
 32
0.0
 13
1.0
 23
0.0
 33
0.0
 40
0.0
 40
0.0
 40
0.0
 40
0.0
 40
1.0
 40
1.0
 40
1.0
 40
2.0
 40
2.0
 40
2.0
 40
3.0
 40
3.0
 40
3.0
 40
3.0
 10
1.506944444444444
 20
1.673611111111111
 30
0.0
 10
1.527777777777778
 20
1.725000169542101
 30
0.0
 10
1.491666687859429
 20
1.797222137451172
 30
0.0
 10
1.444444444444444
 20
1.856944613986545
 30
0.0
 10
1.404166645473904
 20
1.777777777777778
 30
0.0
 10
1.369444423251682
 20
1.67638905843099
 30
0.0
 10
1.345833354526096
 20
1.55138905843099
 30
0.0
 10
1.411111089918349
 20
1.570833418104383
 30
0.0
 10
1.481944402058919
 20
1.609722137451172
 30
0.0
 10
1.506944444444444
 20
1.673611111111111
 30
0.0
  0
HATCH
  5
62
330
45
100
AcDbEntity
  8
Calque 1
 62
    22
420
 15086378
100
AcDbHatch
 10
0.0
 20
0.0
 30
0.0
210
0.0
220
0.0
230
1.0
  2
SOLID
 70
     1
 71
     0
 91
        1
 92
        1
 93
        1
 72
     4
 94
        3
 73
     0
 74
     1
 95
       14
 96
       10
 40
0.0
 40
0.0
 40
0.0
 40
0.0
 40
1.0
 40
1.0
 40
1.0
 40
2.0
 40
2.0
 40
2.0
 40
3.0
 40
3.0
 40
3.0
 40
3.0
 10
1.506944444444444
 20
1.673611111111111
 10
1.527777777777778
 20
1.725000169542101
 10
1.491666687859429
 20
1.797222137451172
 10
1.444444444444444
 20
1.856944613986545
 10
1.404166645473904
 20
1.777777777777778
 10
1.369444423251682
 20
1.67638905843099
 10
1.345833354526096
 20
1.55138905843099
 10
1.411111089918349
 20
1.570833418104383
 10
1.481944402058919
 20
1.609722137451172
 10
1.506944444444444
 20
1.673611111111111
 97
        0
 97
        0
 75
     2
 76
     1
 98
        0
  0
INSERT
  5
64
330
45
100
AcDbEntity
  8
Calque 1
100
AcDbBlockReference
  2
block 6
 10
0.0
 20
0.0
 30
0.0
  0
ENDBLK
  5
48
330
45
100
AcDbEntity
  8
0
100
AcDbBlockEnd
  0
BLOCK
  5
4F
330
4D
100
AcDbEntity
  8
0
100
AcDbBlockBegin
  2
block 4
 70
     0
 10
0.0
 20
0.0
 30
0.0
  3
block 4
  1

  0
SPLINE
  5
51
330
4D
100
AcDbEntity
  8
Calque 1
370
     0
100
AcDbSpline
210
0.0
220
0.0
230
1.0
 70
    11
 71
     3
 72
    17
 73
    13
 74
     0
 42
0.0000000001
 43
0.0000000001
 12
1.0
 22
0.0
 32
0.0
 13
1.0
 23
0.0
 33
0.0
 40
0.0
 40
0.0
 40
0.0
 40
0.0
 40
1.0
 40
1.0
 40
1.0
 40
2.0
 40
2.0
 40
2.0
 40
3.0
 40
3.0
 40
3.0
 40
4.0
 40
4.0
 40
4.0
 40
4.0
 10
3.880555470784505
 20
1.658333248562283
 30
0.0
 10
4.089963277180989
 20
1.658333248562283
 30
0.0
 10
4.259721967909071
 20
1.488574557834201
 30
0.0
 10
4.259721967909071
 20
1.279166751437717
 30
0.0
 10
4.259721967909071
 20
1.069758945041233
 30
0.0
 10
4.089963277180989
 20
0.900000254313151
 30
0.0
 10
3.880555470784505
 20
0.900000254313151
 30
0.0
 10
3.671147664388021
 20
0.900000254313151
 30
0.0
 10
3.501388761732313
 20
1.069758945041233
 30
0.0
 10
3.501388761732313
 20
1.279166751437717
 30
0.0
 10
3.501388761732313
 20
1.488574557834201
 30
0.0
 10
3.671147664388021
 20
1.658333248562283
 30
0.0
 10
3.880555470784505
 20
1.658333248562283
 30
0.0
  0
HATCH
  5
52
330
4D
100
AcDbEntity
  8
Calque 1
 62
     7
420
 16777215
100
AcDbHatch
 10
0.0
 20
0.0
 30
0.0
210
0.0
220
0.0
230
1.0
  2
SOLID
 70
     1
 71
     0
 91
        1
 92
        1
 93
        1
 72
     4
 94
        3
 73
     0
 74
     1
 95
       17
 96
       13
 40
0.0
 40
0.0
 40
0.0
 40
0.0
 40
1.0
 40
1.0
 40
1.0
 40
2.0
 40
2.0
 40
2.0
 40
3.0
 40
3.0
 40
3.0
 40
4.0
 40
4.0
 40
4.0
 40
4.0
 10
3.880555470784505
 20
1.658333248562283
 10
4.089963277180989
 20
1.658333248562283
 10
4.259721967909071
 20
1.488574557834201
 10
4.259721967909071
 20
1.279166751437717
 10
4.259721967909071
 20
1.069758945041233
 10
4.089963277180989
 20
0.900000254313151
 10
3.880555470784505
 20
0.900000254313151
 10
3.671147664388021
 20
0.900000254313151
 10
3.501388761732313
 20
1.069758945041233
 10
3.501388761732313
 20
1.279166751437717
 10
3.501388761732313
 20
1.488574557834201
 10
3.671147664388021
 20
1.658333248562283
 10
3.880555470784505
 20
1.658333248562283
 97
        0
 97
        0
 75
     2
 76
     1
 98
        0
  0
SPLINE
  5
53
330
4D
100
AcDbEntity
  8
Calque 1
370
     0
100
AcDbSpline
210
0.0
220
0.0
230
1.0
 70
    11
 71
     3
 72
    17
 73
    13
 74
     0
 42
0.0000000001
 43
0.0000000001
 12
1.0
 22
0.0
 32
0.0
 13
1.0
 23
0.0
 33
0.0
 40
0.0
 40
0.0
 40
0.0
 40
0.0
 40
1.0
 40
1.0
 40
1.0
 40
2.0
 40
2.0
 40
2.0
 40
3.0
 40
3.0
 40
3.0
 40
4.0
 40
4.0
 40
4.0
 40
4.0
 10
3.880555470784505
 20
1.458333333333333
 30
0.0
 10
3.979506598578559
 20
1.458333333333333
 30
0.0
 10
4.059722052680121
 20
1.378117879231771
 30
0.0
 10
4.059722052680121
 20
1.279166751437717
 30
0.0
 10
4.059722052680121
 20
1.180215623643663
 30
0.0
 10
3.979506598578559
 20
1.100000169542101
 30
0.0
 10
3.880555470784505
 20
1.100000169542101
 30
0.0
 10
3.781604342990451
 20
1.100000169542101
 30
0.0
 10
3.701388888888889
 20
1.180215623643663
 30
0.0
 10
3.701388888888889
 20
1.279166751437717
 30
0.0
 10
3.701388888888889
 20
1.378117879231771
 30
0.0
 10
3.781604342990451
 20
1.458333333333333
 30
0.0
 10
3.880555470784505
 20
1.458333333333333
 30
0.0
  0
SPLINE
  5
54
330
4D
100
AcDbEntity
  8
Calque 1
370
     0
100
AcDbSpline
210
0.0
220
0.0
230
1.0
 70
    11
 71
     3
 72
    17
 73
    13
 74
     0
 42
0.0000000001
 43
0.0000000001
 12
1.0
 22
0.0
 32
0.0
 13
1.0
 23
0.0
 33
0.0
 40
0.0
 40
0.0
 40
0.0
 40
0.0
 40
1.0
 40
1.0
 40
1.0
 40
2.0
 40
2.0
 40
2.0
 40
3.0
 40
3.0
 40
3.0
 40
4.0
 40
4.0
 40
4.0
 40
4.0
 10
3.880555470784505
 20
1.347222222222222
 30
0.0
 10
3.918141682942708
 20
1.347222222222222
 30
0.0
 10
3.94861094156901
 20
1.31675296359592
 30
0.0
 10
3.94861094156901
 20
1.279166751437717
 30
0.0
 10
3.94861094156901
 20
1.241580539279514
 30
0.0
 10
3.918141682942708
 20
1.211111280653212
 30
0.0
 10
3.880555470784505
 20
1.211111280653212
 30
0.0
 10
3.842969258626302
 20
1.211111280653212
 30
0.0
 10
3.8125
 20
1.241580539279514
 30
0.0
 10
3.8125
 20
1.279166751437717
 30
0.0
 10
3.8125
 20
1.31675296359592
 30
0.0
 10
3.842969258626302
 20
1.347222222222222
 30
0.0
 10
3.880555470784505
 20
1.347222222222222
 30
0.0
  0
HATCH
  5
55
330
4D
100
AcDbEntity
  8
Calque 1
 62
     7
420
 16777215
100
AcDbHatch
 10
0.0
 20
0.0
 30
0.0
210
0.0
220
0.0
230
1.0
  2
SOLID
 70
     1
 71
     0
 91
        1
 92
        1
 93
        1
 72
     4
 94
        3
 73
     0
 74
     1
 95
       17
 96
       13
 40
0.0
 40
0.0
 40
0.0
 40
0.0
 40
1.0
 40
1.0
 40
1.0
 40
2.0
 40
2.0
 40
2.0
 40
3.0
 40
3.0
 40
3.0
 40
4.0
 40
4.0
 40
4.0
 40
4.0
 10
3.880555470784505
 20
1.347222222222222
 10
3.918141682942708
 20
1.347222222222222
 10
3.94861094156901
 20
1.31675296359592
 10
3.94861094156901
 20
1.279166751437717
 10
3.94861094156901
 20
1.241580539279514
 10
3.918141682942708
 20
1.211111280653212
 10
3.880555470784505
 20
1.211111280653212
 10
3.842969258626302
 20
1.211111280653212
 10
3.8125
 20
1.241580539279514
 10
3.8125
 20
1.279166751437717
 10
3.8125
 20
1.31675296359592
 10
3.842969258626302
 20
1.347222222222222
 10
3.880555470784505
 20
1.347222222222222
 97
        0
 97
        0
 75
     2
 76
     1
 98
        0
  0
ENDBLK
  5
50
330
4D
100
AcDbEntity
  8
0
100
AcDbBlockEnd
  0
BLOCK
  5
58
330
56
100
AcDbEntity
  8
0
100
AcDbBlockBegin
  2
block 5
 70
     0
 10
0.0
 20
0.0
 30
0.0
  3
block 5
  1

  0
SPLINE
  5
5A
330
56
100
AcDbEntity
  8
Calque 1
370
     0
100
AcDbSpline
210
0.0
220
0.0
230
1.0
 70
    11
 71
     3
 72
    17
 73
    13
 74
     0
 42
0.0000000001
 43
0.0000000001
 12
1.0
 22
0.0
 32
0.0
 13
1.0
 23
0.0
 33
0.0
 40
0.0
 40
0.0
 40
0.0
 40
0.0
 40
1.0
 40
1.0
 40
1.0
 40
2.0
 40
2.0
 40
2.0
 40
3.0
 40
3.0
 40
3.0
 40
4.0
 40
4.0
 40
4.0
 40
4.0
 10
2.008333418104383
 20
1.658333248562283
 30
0.0
 10
2.217741436428494
 20
1.658333248562283
 30
0.0
 10
2.387500127156575
 20
1.488574557834201
 30
0.0
 10
2.387500127156575
 20
1.279166751437717
 30
0.0
 10
2.387500127156575
 20
1.069758945041233
 30
0.0
 10
2.217741436428494
 20
0.900000254313151
 30
0.0
 10
2.008333418104383
 20
0.900000254313151
 30
0.0
 10
1.798925399780273
 20
0.900000254313151
 30
0.0
 10
1.629166709052192
 20
1.069758945041233
 30
0.0
 10
1.629166709052192
 20
1.279166751437717
 30
0.0
 10
1.629166709052192
 20
1.488574557834201
 30
0.0
 10
1.798925399780273
 20
1.658333248562283
 30
0.0
 10
2.008333418104383
 20
1.658333248562283
 30
0.0
  0
HATCH
  5
5B
330
56
100
AcDbEntity
  8
Calque 1
 62
     7
420
 16777215
100
AcDbHatch
 10
0.0
 20
0.0
 30
0.0
210
0.0
220
0.0
230
1.0
  2
SOLID
 70
     1
 71
     0
 91
        1
 92
        1
 93
        1
 72
     4
 94
        3
 73
     0
 74
     1
 95
       17
 96
       13
 40
0.0
 40
0.0
 40
0.0
 40
0.0
 40
1.0
 40
1.0
 40
1.0
 40
2.0
 40
2.0
 40
2.0
 40
3.0
 40
3.0
 40
3.0
 40
4.0
 40
4.0
 40
4.0
 40
4.0
 10
2.008333418104383
 20
1.658333248562283
 10
2.217741436428494
 20
1.658333248562283
 10
2.387500127156575
 20
1.488574557834201
 10
2.387500127156575
 20
1.279166751437717
 10
2.387500127156575
 20
1.069758945041233
 10
2.217741436428494
 20
0.900000254313151
 10
2.008333418104383
 20
0.900000254313151
 10
1.798925399780273
 20
0.900000254313151
 10
1.629166709052192
 20
1.069758945041233
 10
1.629166709052192
 20
1.279166751437717
 10
1.629166709052192
 20
1.488574557834201
 10
1.798925399780273
 20
1.658333248562283
 10
2.008333418104383
 20
1.658333248562283
 97
        0
 97
        0
 75
     2
 76
     1
 98
        0
  0
SPLINE
  5
5C
330
56
100
AcDbEntity
  8
Calque 1
370
     0
100
AcDbSpline
210
0.0
220
0.0
230
1.0
 70
    11
 71
     3
 72
    17
 73
    13
 74
     0
 42
0.0000000001
 43
0.0000000001
 12
1.0
 22
0.0
 32
0.0
 13
1.0
 23
0.0
 33
0.0
 40
0.0
 40
0.0
 40
0.0
 40
0.0
 40
1.0
 40
1.0
 40
1.0
 40
2.0
 40
2.0
 40
2.0
 40
3.0
 40
3.0
 40
3.0
 40
4.0
 40
4.0
 40
4.0
 40
4.0
 10
2.008333418104383
 20
1.458333333333333
 30
0.0
 10
2.107284333970811
 20
1.458333333333333
 30
0.0
 10
2.1875
 20
1.378117879231771
 30
0.0
 10
2.1875
 20
1.279166751437717
 30
0.0
 10
2.1875
 20
1.180215623643663
 30
0.0
 10
2.107284333970811
 20
1.100000169542101
 30
0.0
 10
2.008333418104383
 20
1.100000169542101
 30
0.0
 10
1.909382502237956
 20
1.100000169542101
 30
0.0
 10
1.829166836208767
 20
1.180215623643663
 30
0.0
 10
1.829166836208767
 20
1.279166751437717
 30
0.0
 10
1.829166836208767
 20
1.378117879231771
 30
0.0
 10
1.909382502237956
 20
1.458333333333333
 30
0.0
 10
2.008333418104383
 20
1.458333333333333
 30
0.0
  0
SPLINE
  5
5D
330
56
100
AcDbEntity
  8
Calque 1
370
     0
100
AcDbSpline
210
0.0
220
0.0
230
1.0
 70
    11
 71
     3
 72
    17
 73
    13
 74
     0
 42
0.0000000001
 43
0.0000000001
 12
1.0
 22
0.0
 32
0.0
 13
1.0
 23
0.0
 33
0.0
 40
0.0
 40
0.0
 40
0.0
 40
0.0
 40
1.0
 40
1.0
 40
1.0
 40
2.0
 40
2.0
 40
2.0
 40
3.0
 40
3.0
 40
3.0
 40
4.0
 40
4.0
 40
4.0
 40
4.0
 10
2.008333418104383
 20
1.347222222222222
 30
0.0
 10
2.045919418334961
 20
1.347222222222222
 30
0.0
 10
2.076388888888889
 20
1.31675296359592
 30
0.0
 10
2.076388888888889
 20
1.279166751437717
 30
0.0
 10
2.076388888888889
 20
1.241580539279514
 30
0.0
 10
2.045919418334961
 20
1.211111280653212
 30
0.0
 10
2.008333418104383
 20
1.211111280653212
 30
0.0
 10
1.970747417873806
 20
1.211111280653212
 30
0.0
 10
1.940277947319878
 20
1.241580539279514
 30
0.0
 10
1.940277947319878
 20
1.279166751437717
 30
0.0
 10
1.940277947319878
 20
1.31675296359592
 30
0.0
 10
1.970747417873806
 20
1.347222222222222
 30
0.0
 10
2.008333418104383
 20
1.347222222222222
 30
0.0
  0
HATCH
  5
5E
330
56
100
AcDbEntity
  8
Calque 1
 62
     7
420
 16777215
100
AcDbHatch
 10
0.0
 20
0.0
 30
0.0
210
0.0
220
0.0
230
1.0
  2
SOLID
 70
     1
 71
     0
 91
        1
 92
        1
 93
        1
 72
     4
 94
        3
 73
     0
 74
     1
 95
       17
 96
       13
 40
0.0
 40
0.0
 40
0.0
 40
0.0
 40
1.0
 40
1.0
 40
1.0
 40
2.0
 40
2.0
 40
2.0
 40
3.0
 40
3.0
 40
3.0
 40
4.0
 40
4.0
 40
4.0
 40
4.0
 10
2.008333418104383
 20
1.347222222222222
 10
2.045919418334961
 20
1.347222222222222
 10
2.076388888888889
 20
1.31675296359592
 10
2.076388888888889
 20
1.279166751437717
 10
2.076388888888889
 20
1.241580539279514
 10
2.045919418334961
 20
1.211111280653212
 10
2.008333418104383
 20
1.211111280653212
 10
1.970747417873806
 20
1.211111280653212
 10
1.940277947319878
 20
1.241580539279514
 10
1.940277947319878
 20
1.279166751437717
 10
1.940277947319878
 20
1.31675296359592
 10
1.970747417873806
 20
1.347222222222222
 10
2.008333418104383
 20
1.347222222222222
 97
        0
 97
        0
 75
     2
 76
     1
 98
        0
  0
ENDBLK
  5
59
330
56
100
AcDbEntity
  8
0
100
AcDbBlockEnd
  0
BLOCK
  5
65
330
63
100
AcDbEntity
  8
0
100
AcDbBlockBegin
  2
block 6
 70
     0
 10
0.0
 20
0.0
 30
0.0
  3
block 6
  1

  0
SPLINE
  5
67
330
63
100
AcDbEntity
  8
Calque 1
370
     0
100
AcDbSpline
210
0.0
220
0.0
230
1.0
 70
    11
 71
     3
 72
    20
 73
    16
 74
     0
 42
0.0000000001
 43
0.0000000001
 12
1.0
 22
0.0
 32
0.0
 13
1.0
 23
0.0
 33
0.0
 40
0.0
 40
0.0
 40
0.0
 40
0.0
 40
1.0
 40
1.0
 40
1.0
 40
2.0
 40
2.0
 40
2.0
 40
3.0
 40
3.0
 40
3.0
 40
4.0
 40
4.0
 40
4.0
 40
5.0
 40
5.0
 40
5.0
 40
5.0
 10
2.798611111111111
 20
2.054166581895616
 30
0.0
 10
2.856944402058919
 20
2.054166581895616
 30
0.0
 10
2.915277693006727
 20
2.054166581895616
 30
0.0
 10
2.973611195882161
 20
2.054166581895616
 30
0.0
 10
3.016666836208767
 20
2.054166581895616
 30
0.0
 10
3.018055597941081
 20
2.122222052680121
 30
0.0
 10
2.973611195882161
 20
2.122222052680121
 30
0.0
 10
2.915277904934353
 20
2.122222052680121
 30
0.0
 10
2.856944613986545
 20
2.122222052680121
 30
0.0
 10
2.798611111111111
 20
2.122222052680121
 30
0.0
 10
2.755555470784505
 20
2.122222052680121
 30
0.0
 10
2.755555470784505
 20
2.054166581895616
 30
0.0
 10
2.798611111111111
 20
2.054166581895616
 30
0.0
 10
2.798611111111111
 20
2.054166581895616
 30
0.0
 10
2.798611111111111
 20
2.054166581895616
 30
0.0
 10
2.798611111111111
 20
2.054166581895616
 30
0.0
  0
HATCH
  5
68
330
63
100
AcDbEntity
  8
Calque 1
 62
     7
420
 16777215
100
AcDbHatch
 10
0.0
 20
0.0
 30
0.0
210
0.0
220
0.0
230
1.0
  2
SOLID
 70
     1
 71
     0
 91
        1
 92
        1
 93
        1
 72
     4
 94
        3
 73
     0
 74
     1
 95
       20
 96
       16
 40
0.0
 40
0.0
 40
0.0
 40
0.0
 40
1.0
 40
1.0
 40
1.0
 40
2.0
 40
2.0
 40
2.0
 40
3.0
 40
3.0
 40
3.0
 40
4.0
 40
4.0
 40
4.0
 40
5.0
 40
5.0
 40
5.0
 40
5.0
 10
2.798611111111111
 20
2.054166581895616
 10
2.856944402058919
 20
2.054166581895616
 10
2.915277693006727
 20
2.054166581895616
 10
2.973611195882161
 20
2.054166581895616
 10
3.016666836208767
 20
2.054166581895616
 10
3.018055597941081
 20
2.122222052680121
 10
2.973611195882161
 20
2.122222052680121
 10
2.915277904934353
 20
2.122222052680121
 10
2.856944613986545
 20
2.122222052680121
 10
2.798611111111111
 20
2.122222052680121
 10
2.755555470784505
 20
2.122222052680121
 10
2.755555470784505
 20
2.054166581895616
 10
2.798611111111111
 20
2.054166581895616
 10
2.798611111111111
 20
2.054166581895616
 10
2.798611111111111
 20
2.054166581895616
 10
2.798611111111111
 20
2.054166581895616
 97
        0
 97
        0
 75
     2
 76
     1
 98
        0
  0
ENDBLK
  5
66
330
63
100
AcDbEntity
  8
0
100
AcDbBlockEnd
  0
BLOCK
  5
6F
330
6D
100
AcDbEntity
  8
0
100
AcDbBlockBegin
  2
block 7
 70
     0
 10
0.0
 20
0.0
 30
0.0
  3
block 7
  1

  0
INSERT
  5
72
330
6D
100
AcDbEntity
  8
Calque 1
100
AcDbBlockReference
  2
block 8
 10
0.0
 20
0.0
 30
0.0
  0
INSERT
  5
7C
330
6D
100
AcDbEntity
  8
Calque 1
100
AcDbBlockReference
  2
block 9
 10
0.0
 20
0.0
 30
0.0
  0
SPLINE
  5
83
330
6D
100
AcDbEntity
  8
Calque 1
370
     0
100
AcDbSpline
210
0.0
220
0.0
230
1.0
 70
    11
 71
     3
 72
    17
 73
    13
 74
     0
 42
0.0000000001
 43
0.0000000001
 12
1.0
 22
0.0
 32
0.0
 13
1.0
 23
0.0
 33
0.0
 40
0.0
 40
0.0
 40
0.0
 40
0.0
 40
1.0
 40
1.0
 40
1.0
 40
2.0
 40
2.0
 40
2.0
 40
3.0
 40
3.0
 40
3.0
 40
4.0
 40
4.0
 40
4.0
 40
4.0
 10
2.711111068725586
 20
4.388888888888888
 30
0.0
 10
2.588888804117838
 20
4.383333312140571
 30
0.0
 10
2.493055555555555
 20
4.334722201029459
 30
0.0
 10
2.493055555555555
 20
4.211111068725586
 30
0.0
 10
2.493055555555555
 20
4.091666539510091
 30
0.0
 10
2.588888804117838
 20
4.023611068725586
 30
0.0
 10
2.711111068725586
 20
4.023611068725586
 30
0.0
 10
2.833333333333333
 20
4.023611068725586
 30
0.0
 10
2.929166581895616
 20
4.090277777777778
 30
0.0
 10
2.929166581895616
 20
4.209722095065646
 30
0.0
 10
2.929166581895616
 20
4.333333333333333
 30
0.0
 10
2.833333333333333
 20
4.384722179836697
 30
0.0
 10
2.711111068725586
 20
4.388888888888888
 30
0.0
  0
HATCH
  5
84
330
6D
100
AcDbEntity
  8
Calque 1
 62
    12
420
 13178135
100
AcDbHatch
 10
0.0
 20
0.0
 30
0.0
210
0.0
220
0.0
230
1.0
  2
SOLID
 70
     1
 71
     0
 91
        1
 92
        1
 93
        1
 72
     4
 94
        3
 73
     0
 74
     1
 95
       17
 96
       13
 40
0.0
 40
0.0
 40
0.0
 40
0.0
 40
1.0
 40
1.0
 40
1.0
 40
2.0
 40
2.0
 40
2.0
 40
3.0
 40
3.0
 40
3.0
 40
4.0
 40
4.0
 40
4.0
 40
4.0
 10
2.711111068725586
 20
4.388888888888888
 10
2.588888804117838
 20
4.383333312140571
 10
2.493055555555555
 20
4.334722201029459
 10
2.493055555555555
 20
4.211111068725586
 10
2.493055555555555
 20
4.091666539510091
 10
2.588888804117838
 20
4.023611068725586
 10
2.711111068725586
 20
4.023611068725586
 10
2.833333333333333
 20
4.023611068725586
 10
2.929166581895616
 20
4.090277777777778
 10
2.929166581895616
 20
4.209722095065646
 10
2.929166581895616
 20
4.333333333333333
 10
2.833333333333333
 20
4.384722179836697
 10
2.711111068725586
 20
4.388888888888888
 97
        0
 97
        0
 75
     2
 76
     1
 98
        0
  0
ENDBLK
  5
70
330
6D
100
AcDbEntity
  8
0
100
AcDbBlockEnd
  0
BLOCK
  5
73
330
71
100
AcDbEntity
  8
0
100
AcDbBlockBegin
  2
block 8
 70
     0
 10
0.0
 20
0.0
 30
0.0
  3
block 8
  1

  0
SPLINE
  5
75
330
71
100
AcDbEntity
  8
Calque 1
370
     0
100
AcDbSpline
210
0.0
220
0.0
230
1.0
 70
    11
 71
     3
 72
    53
 73
    49
 74
     0
 42
0.0000000001
 43
0.0000000001
 12
1.0
 22
0.0
 32
0.0
 13
1.0
 23
0.0
 33
0.0
 40
0.0
 40
0.0
 40
0.0
 40
0.0
 40
1.0
 40
1.0
 40
1.0
 40
2.0
 40
2.0
 40
2.0
 40
3.0
 40
3.0
 40
3.0
 40
4.0
 40
4.0
 40
4.0
 40
5.0
 40
5.0
 40
5.0
 40
6.0
 40
6.0
 40
6.0
 40
7.0
 40
7.0
 40
7.0
 40
8.0
 40
8.0
 40
8.0
 40
9.0
 40
9.0
 40
9.0
 40
10.0
 40
10.0
 40
10.0
 40
11.0
 40
11.0
 40
11.0
 40
12.0
 40
12.0
 40
12.0
 40
13.0
 40
13.0
 40
13.0
 40
14.0
 40
14.0
 40
14.0
 40
15.0
 40
15.0
 40
15.0
 40
16.0
 40
16.0
 40
16.0
 40
16.0
 10
4.091666751437717
 20
3.573611153496636
 30
0.0
 10
4.047222137451172
 20
3.627777735392252
 30
0.0
 10
4.01249991522895
 20
3.479166666666667
 30
0.0
 10
4.044444613986545
 20
3.440277735392252
 30
0.0
 10
4.055555555555555
 20
3.427777820163303
 30
0.0
 10
4.063888973659939
 20
3.415277693006727
 30
0.0
 10
4.070833418104383
 20
3.400000042385525
 30
0.0
 10
4.07499991522895
 20
3.391666624281141
 30
0.0
 10
4.070833418104383
 20
3.395833333333333
 30
0.0
 10
4.07499991522895
 20
3.386111153496636
 30
0.0
 10
4.07499991522895
 20
3.384722179836697
 30
0.0
 10
4.07499991522895
 20
3.384722179836697
 30
0.0
 10
4.07499991522895
 20
3.384722179836697
 30
0.0
 10
4.07499991522895
 20
3.381944444444444
 30
0.0
 10
4.07499991522895
 20
3.380555470784505
 30
0.0
 10
4.07499991522895
 20
3.379166709052192
 30
0.0
 10
4.07499991522895
 20
3.379166709052192
 30
0.0
 10
4.07361094156901
 20
3.377777735392252
 30
0.0
 10
4.07361094156901
 20
3.375
 30
0.0
 10
4.076388888888888
 20
3.38749991522895
 30
0.0
 10
4.070832994249132
 20
3.368055555555555
 30
0.0
 10
4.069444444444445
 20
3.363888846503364
 30
0.0
 10
4.068055470784505
 20
3.359722137451172
 30
0.0
 10
4.058333502875434
 20
3.341666539510091
 30
0.0
 10
4.05000008477105
 20
3.331944359673394
 30
0.0
 10
3.998611026340061
 20
3.265277650621202
 30
0.0
 10
3.911111195882161
 20
3.226388719346788
 30
0.0
 10
3.830555809868706
 20
3.209722095065647
 30
0.0
 10
3.558333502875434
 20
3.152777565850152
 30
0.0
 10
3.295833587646484
 20
3.309722052680121
 30
0.0
 10
3.126389185587565
 20
3.509722179836697
 30
0.0
 10
2.961111492580838
 20
3.705555597941081
 30
0.0
 10
2.859722561306424
 20
3.944444444444444
 30
0.0
 10
2.793055852254231
 20
4.188888973659939
 30
0.0
 10
2.786111407809787
 20
4.216666751437717
 30
0.0
 10
2.766667048136393
 20
4.241666793823242
 30
0.0
 10
2.740278032090929
 20
4.219444486829969
 30
0.0
 10
2.71388922797309
 20
4.198611153496636
 30
0.0
 10
2.712500254313151
 20
4.141666624281141
 30
0.0
 10
2.720833672417534
 20
4.11250008477105
 30
0.0
 10
2.830555809868706
 20
3.708333333333333
 30
0.0
 10
3.054167005750868
 20
3.234722349378798
 30
0.0
 10
3.479167090521918
 20
3.083333333333333
 30
0.0
 10
3.686111450195312
 20
3.009722179836697
 30
0.0
 10
3.990278032090929
 20
3.020833333333333
 30
0.0
 10
4.115278032090929
 20
3.234722137451172
 30
0.0
 10
4.17500008477105
 20
3.340277777777778
 30
0.0
 10
4.168055640326606
 20
3.477777693006727
 30
0.0
 10
4.091666751437717
 20
3.573611153496636
 30
0.0
  0
HATCH
  5
76
330
71
100
AcDbEntity
  8
Calque 1
 62
    22
420
 15086378
100
AcDbHatch
 10
0.0
 20
0.0
 30
0.0
210
0.0
220
0.0
230
1.0
  2
SOLID
 70
     1
 71
     0
 91
        1
 92
        1
 93
        1
 72
     4
 94
        3
 73
     0
 74
     1
 95
       53
 96
       49
 40
0.0
 40
0.0
 40
0.0
 40
0.0
 40
1.0
 40
1.0
 40
1.0
 40
2.0
 40
2.0
 40
2.0
 40
3.0
 40
3.0
 40
3.0
 40
4.0
 40
4.0
 40
4.0
 40
5.0
 40
5.0
 40
5.0
 40
6.0
 40
6.0
 40
6.0
 40
7.0
 40
7.0
 40
7.0
 40
8.0
 40
8.0
 40
8.0
 40
9.0
 40
9.0
 40
9.0
 40
10.0
 40
10.0
 40
10.0
 40
11.0
 40
11.0
 40
11.0
 40
12.0
 40
12.0
 40
12.0
 40
13.0
 40
13.0
 40
13.0
 40
14.0
 40
14.0
 40
14.0
 40
15.0
 40
15.0
 40
15.0
 40
16.0
 40
16.0
 40
16.0
 40
16.0
 10
4.091666751437717
 20
3.573611153496636
 10
4.047222137451172
 20
3.627777735392252
 10
4.01249991522895
 20
3.479166666666667
 10
4.044444613986545
 20
3.440277735392252
 10
4.055555555555555
 20
3.427777820163303
 10
4.063888973659939
 20
3.415277693006727
 10
4.070833418104383
 20
3.400000042385525
 10
4.07499991522895
 20
3.391666624281141
 10
4.070833418104383
 20
3.395833333333333
 10
4.07499991522895
 20
3.386111153496636
 10
4.07499991522895
 20
3.384722179836697
 10
4.07499991522895
 20
3.384722179836697
 10
4.07499991522895
 20
3.384722179836697
 10
4.07499991522895
 20
3.381944444444444
 10
4.07499991522895
 20
3.380555470784505
 10
4.07499991522895
 20
3.379166709052192
 10
4.07499991522895
 20
3.379166709052192
 10
4.07361094156901
 20
3.377777735392252
 10
4.07361094156901
 20
3.375
 10
4.076388888888888
 20
3.38749991522895
 10
4.070832994249132
 20
3.368055555555555
 10
4.069444444444445
 20
3.363888846503364
 10
4.068055470784505
 20
3.359722137451172
 10
4.058333502875434
 20
3.341666539510091
 10
4.05000008477105
 20
3.331944359673394
 10
3.998611026340061
 20
3.265277650621202
 10
3.911111195882161
 20
3.226388719346788
 10
3.830555809868706
 20
3.209722095065647
 10
3.558333502875434
 20
3.152777565850152
 10
3.295833587646484
 20
3.309722052680121
 10
3.126389185587565
 20
3.509722179836697
 10
2.961111492580838
 20
3.705555597941081
 10
2.859722561306424
 20
3.944444444444444
 10
2.793055852254231
 20
4.188888973659939
 10
2.786111407809787
 20
4.216666751437717
 10
2.766667048136393
 20
4.241666793823242
 10
2.740278032090929
 20
4.219444486829969
 10
2.71388922797309
 20
4.198611153496636
 10
2.712500254313151
 20
4.141666624281141
 10
2.720833672417534
 20
4.11250008477105
 10
2.830555809868706
 20
3.708333333333333
 10
3.054167005750868
 20
3.234722349378798
 10
3.479167090521918
 20
3.083333333333333
 10
3.686111450195312
 20
3.009722179836697
 10
3.990278032090929
 20
3.020833333333333
 10
4.115278032090929
 20
3.234722137451172
 10
4.17500008477105
 20
3.340277777777778
 10
4.168055640326606
 20
3.477777693006727
 10
4.091666751437717
 20
3.573611153496636
 97
        0
 97
        0
 75
     2
 76
     1
 98
        0
  0
SPLINE
  5
77
330
71
100
AcDbEntity
  8
Calque 1
370
     0
100
AcDbSpline
210
0.0
220
0.0
230
1.0
 70
    11
 71
     3
 72
    35
 73
    31
 74
     0
 42
0.0000000001
 43
0.0000000001
 12
1.0
 22
0.0
 32
0.0
 13
1.0
 23
0.0
 33
0.0
 40
0.0
 40
0.0
 40
0.0
 40
0.0
 40
1.0
 40
1.0
 40
1.0
 40
2.0
 40
2.0
 40
2.0
 40
3.0
 40
3.0
 40
3.0
 40
4.0
 40
4.0
 40
4.0
 40
5.0
 40
5.0
 40
5.0
 40
6.0
 40
6.0
 40
6.0
 40
7.0
 40
7.0
 40
7.0
 40
8.0
 40
8.0
 40
8.0
 40
9.0
 40
9.0
 40
9.0
 40
10.0
 40
10.0
 40
10.0
 40
10.0
 10
2.626388973659939
 20
4.1875
 30
0.0
 10
2.497222264607747
 20
4.005555470784505
 30
0.0
 10
2.284722222222222
 20
3.763888888888889
 30
0.0
 10
2.033333460489909
 20
3.818055470784505
 30
0.0
 10
1.968055725097656
 20
3.831944359673394
 30
0.0
 10
1.905555725097656
 20
3.870833290947808
 30
0.0
 10
1.86388905843099
 20
3.922222137451172
 30
0.0
 10
1.847222434149848
 20
3.943055470784505
 30
0.0
 10
1.834722306993273
 20
3.965277777777778
 30
0.0
 10
1.825000127156575
 20
3.988888846503364
 30
0.0
 10
1.825000127156575
 20
3.988888846503364
 30
0.0
 10
1.820833418104383
 20
4.002777735392252
 30
0.0
 10
1.820833418104383
 20
4.005555470784505
 30
0.0
 10
1.820833418104383
 20
4.006944444444445
 30
0.0
 10
1.820833418104383
 20
4.008333206176758
 30
0.0
 10
1.822222391764323
 20
4.01111094156901
 30
0.0
 10
1.829166836208767
 20
4.037499745686849
 30
0.0
 10
1.829166836208767
 20
4.095833248562283
 30
0.0
 10
1.80000008477105
 20
4.109722137451172
 30
0.0
 10
1.768055597941081
 20
4.125
 30
0.0
 10
1.752777841356066
 20
4.079166624281141
 30
0.0
 10
1.747222264607747
 20
4.056944317287869
 30
0.0
 10
1.705555597941081
 20
3.891666624281141
 30
0.0
 10
1.833333333333333
 20
3.720833248562283
 30
0.0
 10
1.986111111111111
 20
3.670833163791233
 30
0.0
 10
2.276388804117838
 20
3.576388676961263
 30
0.0
 10
2.53055551317003
 20
3.865277608235677
 30
0.0
 10
2.677777820163303
 20
4.07361094156901
 30
0.0
 10
2.706944359673394
 20
4.115277820163302
 30
0.0
 10
2.677777820163303
 20
4.261111153496636
 30
0.0
 10
2.626388973659939
 20
4.1875
 30
0.0
  0
SPLINE
  5
78
330
71
100
AcDbEntity
  8
Calque 1
370
     0
100
AcDbSpline
210
0.0
220
0.0
230
1.0
 70
    27
 71
     3
 72
    14
 73
    10
 74
     0
 42
0.0000000001
 43
0.0000000001
 12
1.0
 22
0.0
 32
0.0
 13
1.0
 23
0.0
 33
0.0
 40
0.0
 40
0.0
 40
0.0
 40
0.0
 40
1.0
 40
1.0
 40
1.0
 40
2.0
 40
2.0
 40
2.0
 40
3.0
 40
3.0
 40
3.0
 40
3.0
 10
1.819444444444444
 20
4.006944444444445
 30
0.0
 10
1.819444444444444
 20
4.006944444444445
 30
0.0
 10
1.819444444444444
 20
4.006944444444445
 30
0.0
 10
1.819444444444444
 20
4.006944444444445
 30
0.0
 10
1.819444444444444
 20
4.008333418104383
 30
0.0
 10
1.819444444444444
 20
4.008333418104383
 30
0.0
 10
1.819444444444444
 20
4.009722179836697
 30
0.0
 10
1.819444444444444
 20
4.008333418104383
 30
0.0
 10
1.819444444444444
 20
4.008333418104383
 30
0.0
 10
1.819444444444444
 20
4.006944444444445
 30
0.0
  0
SPLINE
  5
79
330
71
100
AcDbEntity
  8
Calque 1
370
     0
100
AcDbSpline
210
0.0
220
0.0
230
1.0
 70
    27
 71
     3
 72
    11
 73
     7
 74
     0
 42
0.0000000001
 43
0.0000000001
 12
1.0
 22
0.0
 32
0.0
 13
1.0
 23
0.0
 33
0.0
 40
0.0
 40
0.0
 40
0.0
 40
0.0
 40
1.0
 40
1.0
 40
1.0
 40
2.0
 40
2.0
 40
2.0
 40
2.0
 10
1.819444444444444
 20
4.004166709052192
 30
0.0
 10
1.819444444444444
 20
4.001388973659939
 30
0.0
 10
1.819444444444444
 20
4.002777735392252
 30
0.0
 10
1.819444444444444
 20
4.004166709052192
 30
0.0
 10
1.819444444444444
 20
4.004166709052192
 30
0.0
 10
1.819444444444444
 20
4.004166709052192
 30
0.0
 10
1.819444444444444
 20
4.004166709052192
 30
0.0
  0
HATCH
  5
7A
330
71
100
AcDbEntity
  8
Calque 1
 62
    22
420
 15086378
100
AcDbHatch
 10
0.0
 20
0.0
 30
0.0
210
0.0
220
0.0
230
1.0
  2
SOLID
 70
     1
 71
     0
 91
        3
 92
        1
 93
        1
 72
     4
 94
        3
 73
     0
 74
     1
 95
       35
 96
       31
 40
0.0
 40
0.0
 40
0.0
 40
0.0
 40
1.0
 40
1.0
 40
1.0
 40
2.0
 40
2.0
 40
2.0
 40
3.0
 40
3.0
 40
3.0
 40
4.0
 40
4.0
 40
4.0
 40
5.0
 40
5.0
 40
5.0
 40
6.0
 40
6.0
 40
6.0
 40
7.0
 40
7.0
 40
7.0
 40
8.0
 40
8.0
 40
8.0
 40
9.0
 40
9.0
 40
9.0
 40
10.0
 40
10.0
 40
10.0
 40
10.0
 10
2.626388973659939
 20
4.1875
 10
2.497222264607747
 20
4.005555470784505
 10
2.284722222222222
 20
3.763888888888889
 10
2.033333460489909
 20
3.818055470784505
 10
1.968055725097656
 20
3.831944359673394
 10
1.905555725097656
 20
3.870833290947808
 10
1.86388905843099
 20
3.922222137451172
 10
1.847222434149848
 20
3.943055470784505
 10
1.834722306993273
 20
3.965277777777778
 10
1.825000127156575
 20
3.988888846503364
 10
1.825000127156575
 20
3.988888846503364
 10
1.820833418104383
 20
4.002777735392252
 10
1.820833418104383
 20
4.005555470784505
 10
1.820833418104383
 20
4.006944444444445
 10
1.820833418104383
 20
4.008333206176758
 10
1.822222391764323
 20
4.01111094156901
 10
1.829166836208767
 20
4.037499745686849
 10
1.829166836208767
 20
4.095833248562283
 10
1.80000008477105
 20
4.109722137451172
 10
1.768055597941081
 20
4.125
 10
1.752777841356066
 20
4.079166624281141
 10
1.747222264607747
 20
4.056944317287869
 10
1.705555597941081
 20
3.891666624281141
 10
1.833333333333333
 20
3.720833248562283
 10
1.986111111111111
 20
3.670833163791233
 10
2.276388804117838
 20
3.576388676961263
 10
2.53055551317003
 20
3.865277608235677
 10
2.677777820163303
 20
4.07361094156901
 10
2.706944359673394
 20
4.115277820163302
 10
2.677777820163303
 20
4.261111153496636
 10
2.626388973659939
 20
4.1875
 97
        0
 97
        0
 92
        1
 93
        1
 72
     4
 94
        3
 73
     0
 74
     1
 95
       14
 96
       10
 40
0.0
 40
0.0
 40
0.0
 40
0.0
 40
1.0
 40
1.0
 40
1.0
 40
2.0
 40
2.0
 40
2.0
 40
3.0
 40
3.0
 40
3.0
 40
3.0
 10
1.819444444444444
 20
4.006944444444445
 10
1.819444444444444
 20
4.006944444444445
 10
1.819444444444444
 20
4.006944444444445
 10
1.819444444444444
 20
4.006944444444445
 10
1.819444444444444
 20
4.008333418104383
 10
1.819444444444444
 20
4.008333418104383
 10
1.819444444444444
 20
4.009722179836697
 10
1.819444444444444
 20
4.008333418104383
 10
1.819444444444444
 20
4.008333418104383
 10
1.819444444444444
 20
4.006944444444445
 97
        0
 97
        0
 92
        1
 93
        1
 72
     4
 94
        3
 73
     0
 74
     1
 95
       11
 96
        7
 40
0.0
 40
0.0
 40
0.0
 40
0.0
 40
1.0
 40
1.0
 40
1.0
 40
2.0
 40
2.0
 40
2.0
 40
2.0
 10
1.819444444444444
 20
4.004166709052192
 10
1.819444444444444
 20
4.001388973659939
 10
1.819444444444444
 20
4.002777735392252
 10
1.819444444444444
 20
4.004166709052192
 10
1.819444444444444
 20
4.004166709052192
 10
1.819444444444444
 20
4.004166709052192
 10
1.819444444444444
 20
4.004166709052192
 97
        0
 97
        0
 75
     2
 76
     1
 98
        0
  0
ENDBLK
  5
74
330
71
100
AcDbEntity
  8
0
100
AcDbBlockEnd
  0
BLOCK
  5
7D
330
7B
100
AcDbEntity
  8
0
100
AcDbBlockBegin
  2
block 9
 70
     0
 10
0.0
 20
0.0
 30
0.0
  3
block 9
  1

  0
SPLINE
  5
7F
330
7B
100
AcDbEntity
  8
Calque 1
370
     0
100
AcDbSpline
210
0.0
220
0.0
230
1.0
 70
    11
 71
     3
 72
    59
 73
    55
 74
     0
 42
0.0000000001
 43
0.0000000001
 12
1.0
 22
0.0
 32
0.0
 13
1.0
 23
0.0
 33
0.0
 40
0.0
 40
0.0
 40
0.0
 40
0.0
 40
1.0
 40
1.0
 40
1.0
 40
2.0
 40
2.0
 40
2.0
 40
3.0
 40
3.0
 40
3.0
 40
4.0
 40
4.0
 40
4.0
 40
5.0
 40
5.0
 40
5.0
 40
6.0
 40
6.0
 40
6.0
 40
7.0
 40
7.0
 40
7.0
 40
8.0
 40
8.0
 40
8.0
 40
9.0
 40
9.0
 40
9.0
 40
10.0
 40
10.0
 40
10.0
 40
11.0
 40
11.0
 40
11.0
 40
12.0
 40
12.0
 40
12.0
 40
13.0
 40
13.0
 40
13.0
 40
14.0
 40
14.0
 40
14.0
 40
15.0
 40
15.0
 40
15.0
 40
16.0
 40
16.0
 40
16.0
 40
17.0
 40
17.0
 40
17.0
 40
18.0
 40
18.0
 40
18.0
 40
18.0
 10
3.672222137451172
 20
4.997222264607747
 30
0.0
 10
3.579166412353516
 20
5.169444508022732
 30
0.0
 10
3.347222222222222
 20
5.081944465637207
 30
0.0
 10
3.21805551317003
 20
5.006944444444444
 30
0.0
 10
2.983333375718858
 20
4.870833290947808
 30
0.0
 10
2.790277693006727
 20
4.645833333333333
 30
0.0
 10
2.723611195882161
 20
4.380555576748318
 30
0.0
 10
2.716666751437717
 20
4.355555534362793
 30
0.0
 10
2.716666751437717
 20
4.295833375718859
 30
0.0
 10
2.745833502875434
 20
4.281944486829969
 30
0.0
 10
2.777777989705403
 20
4.266666730244954
 30
0.0
 10
2.793055640326606
 20
4.3125
 30
0.0
 10
2.798611323038737
 20
4.334722306993273
 30
0.0
 10
2.848611407809787
 20
4.534722328186035
 30
0.0
 10
3.009722391764323
 20
4.708333439297146
 30
0.0
 10
3.176389058430989
 20
4.820833418104383
 30
0.0
 10
3.272222306993272
 20
4.884722285800509
 30
0.0
 10
3.48750008477105
 20
5.011111153496636
 30
0.0
 10
3.595833672417534
 20
4.904166751437717
 30
0.0
 10
3.623611450195312
 20
4.876388973659939
 30
0.0
 10
3.626389397515191
 20
4.841666751437717
 30
0.0
 10
3.627777947319878
 20
4.804166793823242
 30
0.0
 10
3.627777947319878
 20
4.802777926127115
 30
0.0
 10
3.627777947319878
 20
4.802777926127115
 30
0.0
 10
3.627777947319878
 20
4.801389058430989
 30
0.0
 10
3.627777947319878
 20
4.801389058430989
 30
0.0
 10
3.627777947319878
 20
4.801389058430989
 30
0.0
 10
3.627777947319878
 20
4.801389058430989
 30
0.0
 10
3.627777947319878
 20
4.793055746290419
 30
0.0
 10
3.627777947319878
 20
4.783333460489908
 30
0.0
 10
3.627777947319878
 20
4.775000148349338
 30
0.0
 10
3.627777947319878
 20
4.765277968512641
 30
0.0
 10
3.626388973659939
 20
4.755555682712131
 30
0.0
 10
3.626388973659939
 20
4.745833502875434
 30
0.0
 10
3.625
 20
4.720833460489908
 30
0.0
 10
3.626388973659939
 20
4.740277926127115
 30
0.0
 10
3.623611026340061
 20
4.720833460489908
 30
0.0
 10
3.606944190131293
 20
4.615277926127115
 30
0.0
 10
3.561111026340061
 20
4.512500127156575
 30
0.0
 10
3.476388719346788
 20
4.430555661519368
 30
0.0
 10
3.304166581895616
 20
4.265277862548828
 30
0.0
 10
3.04305542839898
 20
4.234722349378798
 30
0.0
 10
2.815277523464627
 20
4.23750008477105
 30
0.0
 10
2.758332994249132
 20
4.238888952467176
 30
0.0
 10
2.751388549804688
 20
4.08194457160102
 30
0.0
 10
2.806944105360243
 20
4.08055559794108
 30
0.0
 10
3.043055216471354
 20
4.076388888888888
 30
0.0
 10
3.299999660915798
 20
4.111111111111111
 30
0.0
 10
3.486110687255859
 20
4.270833333333333
 30
0.0
 10
3.601388295491536
 20
4.369444423251681
 30
0.0
 10
3.670832739935981
 20
4.512500021192762
 30
0.0
 10
3.695832994249132
 20
4.659722222222222
 30
0.0
 10
3.715277777777778
 20
4.766666624281141
 30
0.0
 10
3.723611195882161
 20
4.900000042385525
 30
0.0
 10
3.672222137451172
 20
4.997222264607747
 30
0.0
  0
HATCH
  5
80
330
7B
100
AcDbEntity
  8
Calque 1
 62
    22
420
 15086378
100
AcDbHatch
 10
0.0
 20
0.0
 30
0.0
210
0.0
220
0.0
230
1.0
  2
SOLID
 70
     1
 71
     0
 91
        1
 92
        1
 93
        1
 72
     4
 94
        3
 73
     0
 74
     1
 95
       59
 96
       55
 40
0.0
 40
0.0
 40
0.0
 40
0.0
 40
1.0
 40
1.0
 40
1.0
 40
2.0
 40
2.0
 40
2.0
 40
3.0
 40
3.0
 40
3.0
 40
4.0
 40
4.0
 40
4.0
 40
5.0
 40
5.0
 40
5.0
 40
6.0
 40
6.0
 40
6.0
 40
7.0
 40
7.0
 40
7.0
 40
8.0
 40
8.0
 40
8.0
 40
9.0
 40
9.0
 40
9.0
 40
10.0
 40
10.0
 40
10.0
 40
11.0
 40
11.0
 40
11.0
 40
12.0
 40
12.0
 40
12.0
 40
13.0
 40
13.0
 40
13.0
 40
14.0
 40
14.0
 40
14.0
 40
15.0
 40
15.0
 40
15.0
 40
16.0
 40
16.0
 40
16.0
 40
17.0
 40
17.0
 40
17.0
 40
18.0
 40
18.0
 40
18.0
 40
18.0
 10
3.672222137451172
 20
4.997222264607747
 10
3.579166412353516
 20
5.169444508022732
 10
3.347222222222222
 20
5.081944465637207
 10
3.21805551317003
 20
5.006944444444444
 10
2.983333375718858
 20
4.870833290947808
 10
2.790277693006727
 20
4.645833333333333
 10
2.723611195882161
 20
4.380555576748318
 10
2.716666751437717
 20
4.355555534362793
 10
2.716666751437717
 20
4.295833375718859
 10
2.745833502875434
 20
4.281944486829969
 10
2.777777989705403
 20
4.266666730244954
 10
2.793055640326606
 20
4.3125
 10
2.798611323038737
 20
4.334722306993273
 10
2.848611407809787
 20
4.534722328186035
 10
3.009722391764323
 20
4.708333439297146
 10
3.176389058430989
 20
4.820833418104383
 10
3.272222306993272
 20
4.884722285800509
 10
3.48750008477105
 20
5.011111153496636
 10
3.595833672417534
 20
4.904166751437717
 10
3.623611450195312
 20
4.876388973659939
 10
3.626389397515191
 20
4.841666751437717
 10
3.627777947319878
 20
4.804166793823242
 10
3.627777947319878
 20
4.802777926127115
 10
3.627777947319878
 20
4.802777926127115
 10
3.627777947319878
 20
4.801389058430989
 10
3.627777947319878
 20
4.801389058430989
 10
3.627777947319878
 20
4.801389058430989
 10
3.627777947319878
 20
4.801389058430989
 10
3.627777947319878
 20
4.793055746290419
 10
3.627777947319878
 20
4.783333460489908
 10
3.627777947319878
 20
4.775000148349338
 10
3.627777947319878
 20
4.765277968512641
 10
3.626388973659939
 20
4.755555682712131
 10
3.626388973659939
 20
4.745833502875434
 10
3.625
 20
4.720833460489908
 10
3.626388973659939
 20
4.740277926127115
 10
3.623611026340061
 20
4.720833460489908
 10
3.606944190131293
 20
4.615277926127115
 10
3.561111026340061
 20
4.512500127156575
 10
3.476388719346788
 20
4.430555661519368
 10
3.304166581895616
 20
4.265277862548828
 10
3.04305542839898
 20
4.234722349378798
 10
2.815277523464627
 20
4.23750008477105
 10
2.758332994249132
 20
4.238888952467176
 10
2.751388549804688
 20
4.08194457160102
 10
2.806944105360243
 20
4.08055559794108
 10
3.043055216471354
 20
4.076388888888888
 10
3.299999660915798
 20
4.111111111111111
 10
3.486110687255859
 20
4.270833333333333
 10
3.601388295491536
 20
4.369444423251681
 10
3.670832739935981
 20
4.512500021192762
 10
3.695832994249132
 20
4.659722222222222
 10
3.715277777777778
 20
4.766666624281141
 10
3.723611195882161
 20
4.900000042385525
 10
3.672222137451172
 20
4.997222264607747
 97
        0
 97
        0
 75
     2
 76
     1
 98
        0
  0
SPLINE
  5
81
330
7B
100
AcDbEntity
  8
Calque 1
370
     0
100
AcDbSpline
210
0.0
220
0.0
230
1.0
 70
    11
 71
     3
 72
    53
 73
    49
 74
     0
 42
0.0000000001
 43
0.0000000001
 12
1.0
 22
0.0
 32
0.0
 13
1.0
 23
0.0
 33
0.0
 40
0.0
 40
0.0
 40
0.0
 40
0.0
 40
1.0
 40
1.0
 40
1.0
 40
2.0
 40
2.0
 40
2.0
 40
3.0
 40
3.0
 40
3.0
 40
4.0
 40
4.0
 40
4.0
 40
5.0
 40
5.0
 40
5.0
 40
6.0
 40
6.0
 40
6.0
 40
7.0
 40
7.0
 40
7.0
 40
8.0
 40
8.0
 40
8.0
 40
9.0
 40
9.0
 40
9.0
 40
10.0
 40
10.0
 40
10.0
 40
11.0
 40
11.0
 40
11.0
 40
12.0
 40
12.0
 40
12.0
 40
13.0
 40
13.0
 40
13.0
 40
14.0
 40
14.0
 40
14.0
 40
15.0
 40
15.0
 40
15.0
 40
16.0
 40
16.0
 40
16.0
 40
16.0
 10
2.259722179836697
 20
4.96805551317003
 30
0.0
 10
2.13749991522895
 20
5.051388846503364
 30
0.0
 10
1.901388804117838
 20
5.174999978807237
 30
0.0
 10
1.772222201029459
 20
5.038888825310601
 30
0.0
 10
1.693055576748318
 20
4.955555491977267
 30
0.0
 10
1.693055576748318
 20
4.813888761732313
 30
0.0
 10
1.704166624281141
 20
4.705555491977267
 30
0.0
 10
1.719444380866157
 20
4.563888867696126
 30
0.0
 10
1.770833333333333
 20
4.422222137451172
 30
0.0
 10
1.869444317287869
 20
4.316666603088379
 30
0.0
 10
2.052777608235677
 20
4.119444317287869
 30
0.0
 10
2.33611085679796
 20
4.076388888888888
 30
0.0
 10
2.593055301242404
 20
4.080555386013454
 30
0.0
 10
2.649999830457899
 20
4.081944359673394
 30
0.0
 10
2.655555301242404
 20
4.238888740539551
 30
0.0
 10
2.601388719346788
 20
4.237499872843424
 30
0.0
 10
2.272222095065647
 20
4.231944296095106
 30
0.0
 10
1.870833079020182
 20
4.32499991522895
 30
0.0
 10
1.791666454739041
 20
4.691666497124566
 30
0.0
 10
1.786110983954535
 20
4.72083314259847
 30
0.0
 10
1.786110983954535
 20
4.719444274902344
 30
0.0
 10
1.783333036634657
 20
4.748610920376247
 30
0.0
 10
1.781944062974718
 20
4.758333100212945
 30
0.0
 10
1.781944062974718
 20
4.76944425370958
 30
0.0
 10
1.780555301242404
 20
4.779166433546278
 30
0.0
 10
1.780555301242404
 20
4.784722010294596
 30
0.0
 10
1.780555301242404
 20
4.790277587042914
 30
0.0
 10
1.780555301242404
 20
4.794444190131293
 30
0.0
 10
1.780555301242404
 20
4.794444190131293
 30
0.0
 10
1.780555301242404
 20
4.794444190131293
 30
0.0
 10
1.780555301242404
 20
4.794444190131293
 30
0.0
 10
1.780555301242404
 20
4.820833100212945
 30
0.0
 10
1.779166327582465
 20
4.851388613382975
 30
0.0
 10
1.790277481079102
 20
4.874999788072373
 30
0.0
 10
1.852777481079102
 20
5.012499809265137
 30
0.0
 10
2.087499618530273
 20
4.901388698154025
 30
0.0
 10
2.170832951863606
 20
4.852777587042914
 30
0.0
 10
2.369444105360243
 20
4.737499766879611
 30
0.0
 10
2.555555131700304
 20
4.544444190131293
 30
0.0
 10
2.611110687255859
 20
4.316666497124566
 30
0.0
 10
2.618055131700304
 20
4.288888719346788
 30
0.0
 10
2.637499491373698
 20
4.265277650621202
 30
0.0
 10
2.663888507419162
 20
4.286110983954535
 30
0.0
 10
2.690277311537001
 20
4.306944317287869
 30
0.0
 10
2.69166628519694
 20
4.363888740539551
 30
0.0
 10
2.683332867092556
 20
4.393055386013454
 30
0.0
 10
2.625
 20
4.631944444444444
 30
0.0
 10
2.458333333333333
 20
4.833333333333333
 30
0.0
 10
2.259722179836697
 20
4.96805551317003
 30
0.0
  0
HATCH
  5
82
330
7B
100
AcDbEntity
  8
Calque 1
 62
    22
420
 15086378
100
AcDbHatch
 10
0.0
 20
0.0
 30
0.0
210
0.0
220
0.0
230
1.0
  2
SOLID
 70
     1
 71
     0
 91
        1
 92
        1
 93
        1
 72
     4
 94
        3
 73
     0
 74
     1
 95
       53
 96
       49
 40
0.0
 40
0.0
 40
0.0
 40
0.0
 40
1.0
 40
1.0
 40
1.0
 40
2.0
 40
2.0
 40
2.0
 40
3.0
 40
3.0
 40
3.0
 40
4.0
 40
4.0
 40
4.0
 40
5.0
 40
5.0
 40
5.0
 40
6.0
 40
6.0
 40
6.0
 40
7.0
 40
7.0
 40
7.0
 40
8.0
 40
8.0
 40
8.0
 40
9.0
 40
9.0
 40
9.0
 40
10.0
 40
10.0
 40
10.0
 40
11.0
 40
11.0
 40
11.0
 40
12.0
 40
12.0
 40
12.0
 40
13.0
 40
13.0
 40
13.0
 40
14.0
 40
14.0
 40
14.0
 40
15.0
 40
15.0
 40
15.0
 40
16.0
 40
16.0
 40
16.0
 40
16.0
 10
2.259722179836697
 20
4.96805551317003
 10
2.13749991522895
 20
5.051388846503364
 10
1.901388804117838
 20
5.174999978807237
 10
1.772222201029459
 20
5.038888825310601
 10
1.693055576748318
 20
4.955555491977267
 10
1.693055576748318
 20
4.813888761732313
 10
1.704166624281141
 20
4.705555491977267
 10
1.719444380866157
 20
4.563888867696126
 10
1.770833333333333
 20
4.422222137451172
 10
1.869444317287869
 20
4.316666603088379
 10
2.052777608235677
 20
4.119444317287869
 10
2.33611085679796
 20
4.076388888888888
 10
2.593055301242404
 20
4.080555386013454
 10
2.649999830457899
 20
4.081944359673394
 10
2.655555301242404
 20
4.238888740539551
 10
2.601388719346788
 20
4.237499872843424
 10
2.272222095065647
 20
4.231944296095106
 10
1.870833079020182
 20
4.32499991522895
 10
1.791666454739041
 20
4.691666497124566
 10
1.786110983954535
 20
4.72083314259847
 10
1.786110983954535
 20
4.719444274902344
 10
1.783333036634657
 20
4.748610920376247
 10
1.781944062974718
 20
4.758333100212945
 10
1.781944062974718
 20
4.76944425370958
 10
1.780555301242404
 20
4.779166433546278
 10
1.780555301242404
 20
4.784722010294596
 10
1.780555301242404
 20
4.790277587042914
 10
1.780555301242404
 20
4.794444190131293
 10
1.780555301242404
 20
4.794444190131293
 10
1.780555301242404
 20
4.794444190131293
 10
1.780555301242404
 20
4.794444190131293
 10
1.780555301242404
 20
4.820833100212945
 10
1.779166327582465
 20
4.851388613382975
 10
1.790277481079102
 20
4.874999788072373
 10
1.852777481079102
 20
5.012499809265137
 10
2.087499618530273
 20
4.901388698154025
 10
2.170832951863606
 20
4.852777587042914
 10
2.369444105360243
 20
4.737499766879611
 10
2.555555131700304
 20
4.544444190131293
 10
2.611110687255859
 20
4.316666497124566
 10
2.618055131700304
 20
4.288888719346788
 10
2.637499491373698
 20
4.265277650621202
 10
2.663888507419162
 20
4.286110983954535
 10
2.690277311537001
 20
4.306944317287869
 10
2.69166628519694
 20
4.363888740539551
 10
2.683332867092556
 20
4.393055386013454
 10
2.625
 20
4.631944444444444
 10
2.458333333333333
 20
4.833333333333333
 10
2.259722179836697
 20
4.96805551317003
 97
        0
 97
        0
 75
     2
 76
     1
 98
        0
  0
ENDBLK
  5
7E
330
7B
100
AcDbEntity
  8
0
100
AcDbBlockEnd
  0
ENDSEC
  0
SECTION
  2
ENTITIES
  0
INSERT
  5
42
330
1F
100
AcDbEntity
  8
Calque 1
100
AcDbBlockReference
  2
block 2
 10
0.0
 20
0.0
 30
0.0
  0
ENDSEC
  0
SECTION
  2
OBJECTS
  0
DICTIONARY
  5
C
330
0
100
AcDbDictionary
281
     1
  3
ACAD_GROUP
350
D
  3
ACAD_LAYOUT
350
1A
  3
ACAD_MATERIAL
350
3B
  3
ACAD_MLEADERSTYLE
350
86
  3
ACAD_MLINESTYLE
350
17
  3
ACAD_PLOTSETTINGS
350
19
  3
ACAD_PLOTSTYLENAME
350
E
  3
ACAD_TABLESTYLE
350
85
  3
ACAD_VISUALSTYLE
350
2A
  0
SUN
  5
3F
330
29
100
AcDbSun
 90
        1
290
     0
 63
     7
421
 16777215
 40
1.0
291
     1
 91
  2455826
 92
 54000000
292
     0
 70
     2
 71
   256
280
     1
  0
DICTIONARY
  5
D
102
{ACAD_REACTORS
330
C
102
}
330
C
100
AcDbDictionary
281
     1
  0
DICTIONARY
  5
1A
102
{ACAD_REACTORS
330
C
102
}
330
C
100
AcDbDictionary
281
     1
  3
Layout1
350
1E
  3
Layout2
350
26
  3
Model
350
22
  0
DICTIONARY
  5
3B
102
{ACAD_REACTORS
330
C
102
}
330
C
100
AcDbDictionary
281
     1
  3
ByBlock
350
3D
  3
ByLayer
350
3C
  3
Global
350
3E
  0
DICTIONARY
  5
86
102
{ACAD_REACTORS
330
C
102
}
330
C
100
AcDbDictionary
281
     1
  0
DICTIONARY
  5
17
102
{ACAD_REACTORS
330
C
102
}
330
C
100
AcDbDictionary
281
     1
  3
Standard
350
18
  0
DICTIONARY
  5
19
102
{ACAD_REACTORS
330
C
102
}
330
C
100
AcDbDictionary
281
     1
  0
ACDBDICTIONARYWDFLT
  5
E
102
{ACAD_REACTORS
330
C
102
}
330
C
100
AcDbDictionary
281
     1
  3
Normal
350
F
100
AcDbDictionaryWithDefault
340
F
  0
DICTIONARY
  5
85
102
{ACAD_REACTORS
330
C
102
}
330
C
100
AcDbDictionary
281
     1
  0
DICTIONARY
  5
2A
102
{ACAD_REACTORS
330
C
102
}
330
C
100
AcDbDictionary
281
     1
  3
2dWireframe
350
2F
  3
3D Hidden
350
31
  3
3dWireframe
350
30
  3
Basic
350
32
  3
Brighten
350
36
  3
ColorChange
350
3A
  3
Conceptual
350
34
  3
Dim
350
35
  3
Facepattern
350
39
  3
Flat
350
2B
  3
FlatWithEdges
350
2C
  3
Gouraud
350
2D
  3
GouraudWithEdges
350
2E
  3
Linepattern
350
38
  3
Realistic
350
33
  3
Thicken
350
37
  0
LAYOUT
  5
1E
102
{ACAD_REACTORS
330
1A
102
}
330
1A
100
AcDbPlotSettings
  1

  2
none_device
  4

  6

 40
0.0
 41
0.0
 42
0.0
 43
0.0
 44
0.0
 45
0.0
 46
0.0
 47
0.0
 48
0.0
 49
0.0
140
0.0
141
0.0
142
1.0
143
1.0
 70
   688
 72
     0
 73
     0
 74
     5
  7

 75
    16
 76
     0
 77
     2
 78
   300
147
1.0
148
0.0
149
0.0
100
AcDbLayout
  1
Layout1
 70
     1
 71
     1
 10
0.0
 20
0.0
 11
12.0
 21
9.0
 12
0.0
 22
0.0
 32
0.0
 14
1.000000000000000E+20
 24
1.000000000000000E+20
 34
1.000000000000000E+20
 15
-1.000000000000000E+20
 25
-1.000000000000000E+20
 35
-1.000000000000000E+20
146
0.0
 13
0.0
 23
0.0
 33
0.0
 16
1.0
 26
0.0
 36
0.0
 17
0.0
 27
1.0
 37
0.0
 76
     0
330
1B
  0
LAYOUT
  5
26
102
{ACAD_REACTORS
330
1A
102
}
330
1A
100
AcDbPlotSettings
  1

  2
none_device
  4

  6

 40
0.0
 41
0.0
 42
0.0
 43
0.0
 44
0.0
 45
0.0
 46
0.0
 47
0.0
 48
0.0
 49
0.0
140
0.0
141
0.0
142
1.0
143
1.0
 70
   688
 72
     0
 73
     0
 74
     5
  7

 75
    16
 76
     0
 77
     2
 78
   300
147
1.0
148
0.0
149
0.0
100
AcDbLayout
  1
Layout2
 70
     1
 71
     2
 10
0.0
 20
0.0
 11
0.0
 21
0.0
 12
0.0
 22
0.0
 32
0.0
 14
0.0
 24
0.0
 34
0.0
 15
0.0
 25
0.0
 35
0.0
146
0.0
 13
0.0
 23
0.0
 33
0.0
 16
1.0
 26
0.0
 36
0.0
 17
0.0
 27
1.0
 37
0.0
 76
     0
330
23
  0
LAYOUT
  5
22
102
{ACAD_REACTORS
330
1A
102
}
330
1A
100
AcDbPlotSettings
  1

  2
none_device
  4

  6

 40
0.0
 41
0.0
 42
0.0
 43
0.0
 44
0.0
 45
0.0
 46
0.0
 47
0.0
 48
0.0
 49
0.0
140
0.0
141
0.0
142
1.0
143
1.0
 70
  1712
 72
     0
 73
     0
 74
     0
  7

 75
     0
 76
     0
 77
     2
 78
   300
147
1.0
148
0.0
149
0.0
100
AcDbLayout
  1
Model
 70
     1
 71
     0
 10
0.0
 20
0.0
 11
12.0
 21
9.0
 12
0.0
 22
0.0
 32
0.0
 14
1.000000000000000E+20
 24
1.000000000000000E+20
 34
1.000000000000000E+20
 15
-1.000000000000000E+20
 25
-1.000000000000000E+20
 35
-1.000000000000000E+20
146
0.0
 13
0.0
 23
0.0
 33
0.0
 16
1.0
 26
0.0
 36
0.0
 17
0.0
 27
1.0
 37
0.0
 76
     0
330
1F
331
29
  0
MATERIAL
  5
3D
102
{ACAD_REACTORS
330
3B
102
}
330
3B
100
AcDbMaterial
  1
ByBlock
 72
     1
 94
      127
  0
MATERIAL
  5
3C
102
{ACAD_REACTORS
330
3B
102
}
330
3B
100
AcDbMaterial
  1
ByLayer
 72
     1
 94
      127
  0
MATERIAL
  5
3E
102
{ACAD_REACTORS
330
3B
102
}
330
3B
100
AcDbMaterial
  1
Global
 72
     1
 94
      127
  0
MLINESTYLE
  5
18
102
{ACAD_REACTORS
330
17
102
}
330
17
100
AcDbMlineStyle
  2
Standard
 70
     0
  3

 62
   256
 51
90.0
 52
90.0
 71
     2
 49
0.5
 62
   256
  6
BYLAYER
 49
-0.5
 62
   256
  6
BYLAYER
  0
ACDBPLACEHOLDER
  5
F
102
{ACAD_REACTORS
330
E
102
}
330
E
  0
VISUALSTYLE
  5
2F
102
{ACAD_REACTORS
330
2A
102
}
330
2A
100
AcDbVisualStyle
  2
2dWireframe
 70
     4
177
     2
291
     0
 71
     0
176
     1
 72
     2
176
     1
 73
     0
176
     1
 90
        0
176
     1
 40
-0.6
176
     1
 41
-30.0
176
     1
 62
     5
 63
     7
421
 16777215
176
     1
 74
     1
176
     1
 91
        4
176
     1
 64
     7
176
     1
 65
   257
176
     1
 75
     1
176
     1
175
     1
176
     1
 42
1.0
176
     1
 92
        0
176
     1
 66
   257
176
     1
 43
1.0
176
     1
 76
     1
176
     1
 77
     6
176
     1
 78
     2
176
     1
 67
     7
176
     1
 79
     5
176
     1
170
     0
176
     1
171
     0
176
     1
290
     0
176
     1
 93
        1
176
     1
 44
0.0
176
     1
173
     0
176
     1
  0
VISUALSTYLE
  5
31
102
{ACAD_REACTORS
330
2A
102
}
330
2A
100
AcDbVisualStyle
  2
3D Hidden
 70
     6
177
     2
291
     0
 71
     1
176
     1
 72
     2
176
     1
 73
     2
176
     1
 90
        0
176
     1
 40
-0.6
176
     1
 41
-30.0
176
     1
 62
     5
 63
     7
421
 16777215
176
     1
 74
     2
176
     1
 91
        2
176
     1
 64
     7
176
     1
 65
   257
176
     1
 75
     2
176
     1
175
     1
176
     1
 42
40.0
176
     1
 92
        0
176
     1
 66
   257
176
     1
 43
1.0
176
     1
 76
     1
176
     1
 77
     6
176
     1
 78
     2
176
     1
 67
     7
176
     1
 79
     3
176
     1
170
     0
176
     1
171
     0
176
     1
290
     0
176
     1
 93
        1
176
     1
 44
0.0
176
     1
173
     0
176
     1
  0
VISUALSTYLE
  5
30
102
{ACAD_REACTORS
330
2A
102
}
330
2A
100
AcDbVisualStyle
  2
3dWireframe
 70
     5
177
     2
291
     0
 71
     0
176
     1
 72
     2
176
     1
 73
     0
176
     1
 90
        0
176
     1
 40
-0.6
176
     1
 41
-30.0
176
     1
 62
     5
 63
     7
421
 16777215
176
     1
 74
     1
176
     1
 91
        4
176
     1
 64
     7
176
     1
 65
   257
176
     1
 75
     1
176
     1
175
     1
176
     1
 42
1.0
176
     1
 92
        0
176
     1
 66
   257
176
     1
 43
1.0
176
     1
 76
     1
176
     1
 77
     6
176
     1
 78
     2
176
     1
 67
     7
176
     1
 79
     5
176
     1
170
     0
176
     1
171
     0
176
     1
290
     0
176
     1
 93
        1
176
     1
 44
0.0
176
     1
173
     0
176
     1
  0
VISUALSTYLE
  5
32
102
{ACAD_REACTORS
330
2A
102
}
330
2A
100
AcDbVisualStyle
  2
Basic
 70
     7
177
     2
291
     1
 71
     1
176
     1
 72
     0
176
     1
 73
     1
176
     1
 90
        0
176
     1
 40
-0.6
176
     1
 41
-30.0
176
     1
 62
     5
 63
     7
421
 16777215
176
     1
 74
     0
176
     1
 91
        4
176
     1
 64
     7
176
     1
 65
   257
176
     1
 75
     1
176
     1
175
     1
176
     1
 42
1.0
176
     1
 92
        8
176
     1
 66
     7
176
     1
 43
1.0
176
     1
 76
     1
176
     1
 77
     6
176
     1
 78
     2
176
     1
 67
     7
176
     1
 79
     5
176
     1
170
     0
176
     1
171
     0
176
     1
290
     0
176
     1
 93
        1
176
     1
 44
0.0
176
     1
173
     0
176
     1
  0
VISUALSTYLE
  5
36
102
{ACAD_REACTORS
330
2A
102
}
330
2A
100
AcDbVisualStyle
  2
Brighten
 70
    12
177
     2
291
     1
 71
     2
176
     1
 72
     2
176
     1
 73
     0
176
     1
 90
        0
176
     1
 40
-0.6
176
     1
 41
-30.0
176
     1
 62
     5
 63
     7
421
 16777215
176
     1
 74
     1
176
     1
 91
        4
176
     1
 64
     7
176
     1
 65
   257
176
     1
 75
     1
176
     1
175
     1
176
     1
 42
1.0
176
     1
 92
        8
176
     1
 66
     7
176
     1
 43
1.0
176
     1
 76
     1
176
     1
 77
     6
176
     1
 78
     2
176
     1
 67
     7
176
     1
 79
     5
176
     1
170
     0
176
     1
171
     0
176
     1
290
     0
176
     1
 93
        1
176
     1
 44
50.0
176
     1
173
     0
176
     1
  0
VISUALSTYLE
  5
3A
102
{ACAD_REACTORS
330
2A
102
}
330
2A
100
AcDbVisualStyle
  2
ColorChange
 70
    16
177
     2
291
     1
 71
     2
176
     1
 72
     2
176
     1
 73
     3
176
     1
 90
        0
176
     1
 40
-0.6
176
     1
 41
-30.0
176
     1
 62
     5
 63
     8
421
  8421504
176
     1
 74
     1
176
     1
 91
        4
176
     1
 64
     7
176
     1
 65
   257
176
     1
 75
     1
176
     1
175
     1
176
     1
 42
1.0
176
     1
 92
        8
176
     1
 66
     8
424
  8421504
176
     1
 43
1.0
176
     1
 76
     1
176
     1
 77
     6
176
     1
 78
     2
176
     1
 67
     7
176
     1
 79
     5
176
     1
170
     0
176
     1
171
     0
176
     1
290
     0
176
     1
 93
        1
176
     1
 44
0.0
176
     1
173
     0
176
     1
  0
VISUALSTYLE
  5
34
102
{ACAD_REACTORS
330
2A
102
}
330
2A
100
AcDbVisualStyle
  2
Conceptual
 70
     9
177
     2
291
     0
 71
     3
176
     1
 72
     2
176
     1
 73
     0
176
     1
 90
        0
176
     1
 40
-0.6
176
     1
 41
-30.0
176
     1
 62
     5
 63
     7
421
 16777215
176
     1
 74
     2
176
     1
 91
        2
176
     1
 64
     7
176
     1
 65
   257
176
     1
 75
     1
176
     1
175
     1
176
     1
 42
40.0
176
     1
 92
        8
176
     1
 66
     7
176
     1
 43
1.0
176
     1
 76
     1
176
     1
 77
     6
176
     1
 78
     2
176
     1
 67
     7
176
     1
 79
     3
176
     1
170
     0
176
     1
171
     0
176
     1
290
     0
176
     1
 93
        1
176
     1
 44
0.0
176
     1
173
     0
176
     1
  0
VISUALSTYLE
  5
35
102
{ACAD_REACTORS
330
2A
102
}
330
2A
100
AcDbVisualStyle
  2
Dim
 70
    11
177
     2
291
     1
 71
     2
176
     1
 72
     2
176
     1
 73
     0
176
     1
 90
        0
176
     1
 40
-0.6
176
     1
 41
-30.0
176
     1
 62
     5
 63
     7
421
 16777215
176
     1
 74
     1
176
     1
 91
        4
176
     1
 64
     7
176
     1
 65
   257
176
     1
 75
     1
176
     1
175
     1
176
     1
 42
1.0
176
     1
 92
        8
176
     1
 66
     7
176
     1
 43
1.0
176
     1
 76
     1
176
     1
 77
     6
176
     1
 78
     2
176
     1
 67
     7
176
     1
 79
     5
176
     1
170
     0
176
     1
171
     0
176
     1
290
     0
176
     1
 93
        1
176
     1
 44
-50.0
176
     1
173
     0
176
     1
  0
VISUALSTYLE
  5
39
102
{ACAD_REACTORS
330
2A
102
}
330
2A
100
AcDbVisualStyle
  2
Facepattern
 70
    15
177
     2
291
     1
 71
     2
176
     1
 72
     2
176
     1
 73
     0
176
     1
 90
        0
176
     1
 40
-0.6
176
     1
 41
-30.0
176
     1
 62
     5
 63
     7
421
 16777215
176
     1
 74
     1
176
     1
 91
        4
176
     1
 64
     7
176
     1
 65
   257
176
     1
 75
     1
176
     1
175
     1
176
     1
 42
1.0
176
     1
 92
        8
176
     1
 66
     7
176
     1
 43
1.0
176
     1
 76
     1
176
     1
 77
     6
176
     1
 78
     2
176
     1
 67
     7
176
     1
 79
     5
176
     1
170
     0
176
     1
171
     0
176
     1
290
     0
176
     1
 93
        1
176
     1
 44
0.0
176
     1
173
     0
176
     1
  0
VISUALSTYLE
  5
2B
102
{ACAD_REACTORS
330
2A
102
}
330
2A
100
AcDbVisualStyle
  2
Flat
 70
     0
177
     2
291
     1
 71
     2
176
     1
 72
     1
176
     1
 73
     1
176
     1
 90
        2
176
     1
 40
-0.6
176
     1
 41
30.0
176
     1
 62
     5
 63
     7
421
 16777215
176
     1
 74
     0
176
     1
 91
        4
176
     1
 64
     7
176
     1
 65
   257
176
     1
 75
     1
176
     1
175
     1
176
     1
 42
1.0
176
     1
 92
        8
176
     1
 66
     7
176
     1
 43
1.0
176
     1
 76
     1
176
     1
 77
     6
176
     1
 78
     2
176
     1
 67
     7
176
     1
 79
     5
176
     1
170
     0
176
     1
171
     0
176
     1
290
     0
176
     1
 93
       13
176
     1
 44
0.0
176
     1
173
     0
176
     1
  0
VISUALSTYLE
  5
2C
102
{ACAD_REACTORS
330
2A
102
}
330
2A
100
AcDbVisualStyle
  2
FlatWithEdges
 70
     1
177
     2
291
     1
 71
     2
176
     1
 72
     1
176
     1
 73
     1
176
     1
 90
        2
176
     1
 40
-0.6
176
     1
 41
30.0
176
     1
 62
     5
 63
     7
421
 16777215
176
     1
 74
     1
176
     1
 91
        4
176
     1
 64
     7
176
     1
 65
   257
176
     1
 75
     1
176
     1
175
     1
176
     1
 42
1.0
176
     1
 92
        0
176
     1
 66
   257
176
     1
 43
1.0
176
     1
 76
     1
176
     1
 77
     6
176
     1
 78
     2
176
     1
 67
     7
176
     1
 79
     5
176
     1
170
     0
176
     1
171
     0
176
     1
290
     0
176
     1
 93
       13
176
     1
 44
0.0
176
     1
173
     0
176
     1
  0
VISUALSTYLE
  5
2D
102
{ACAD_REACTORS
330
2A
102
}
330
2A
100
AcDbVisualStyle
  2
Gouraud
 70
     2
177
     2
291
     1
 71
     2
176
     1
 72
     2
176
     1
 73
     1
176
     1
 90
        2
176
     1
 40
-0.6
176
     1
 41
30.0
176
     1
 62
     5
 63
     7
421
 16777215
176
     1
 74
     0
176
     1
 91
        4
176
     1
 64
     7
176
     1
 65
   257
176
     1
 75
     1
176
     1
175
     1
176
     1
 42
1.0
176
     1
 92
        0
176
     1
 66
     7
176
     1
 43
1.0
176
     1
 76
     1
176
     1
 77
     6
176
     1
 78
     2
176
     1
 67
     7
176
     1
 79
     5
176
     1
170
     0
176
     1
171
     0
176
     1
290
     0
176
     1
 93
       13
176
     1
 44
0.0
176
     1
173
     0
176
     1
  0
VISUALSTYLE
  5
2E
102
{ACAD_REACTORS
330
2A
102
}
330
2A
100
AcDbVisualStyle
  2
GouraudWithEdges
 70
     3
177
     2
291
     1
 71
     2
176
     1
 72
     2
176
     1
 73
     1
176
     1
 90
        2
176
     1
 40
-0.6
176
     1
 41
30.0
176
     1
 62
     5
 63
     7
421
 16777215
176
     1
 74
     1
176
     1
 91
        4
176
     1
 64
     7
176
     1
 65
   257
176
     1
 75
     1
176
     1
175
     1
176
     1
 42
1.0
176
     1
 92
        0
176
     1
 66
   257
176
     1
 43
1.0
176
     1
 76
     1
176
     1
 77
     6
176
     1
 78
     2
176
     1
 67
     7
176
     1
 79
     5
176
     1
170
     0
176
     1
171
     0
176
     1
290
     0
176
     1
 93
       13
176
     1
 44
0.0
176
     1
173
     0
176
     1
  0
VISUALSTYLE
  5
38
102
{ACAD_REACTORS
330
2A
102
}
330
2A
100
AcDbVisualStyle
  2
Linepattern
 70
    14
177
     2
291
     1
 71
     2
176
     1
 72
     2
176
     1
 73
     0
176
     1
 90
        0
176
     1
 40
-0.6
176
     1
 41
-30.0
176
     1
 62
     5
 63
     7
421
 16777215
176
     1
 74
     1
176
     1
 91
        4
176
     1
 64
     7
176
     1
 65
   257
176
     1
 75
     7
176
     1
175
     7
176
     1
 42
1.0
176
     1
 92
        8
176
     1
 66
     7
176
     1
 43
1.0
176
     1
 76
     1
176
     1
 77
     6
176
     1
 78
     2
176
     1
 67
     7
176
     1
 79
     5
176
     1
170
     0
176
     1
171
     0
176
     1
290
     0
176
     1
 93
        1
176
     1
 44
0.0
176
     1
173
     0
176
     1
  0
VISUALSTYLE
  5
33
102
{ACAD_REACTORS
330
2A
102
}
330
2A
100
AcDbVisualStyle
  2
Realistic
 70
     8
177
     2
291
     0
 71
     2
176
     1
 72
     2
176
     1
 73
     0
176
     1
 90
        0
176
     1
 40
-0.6
176
     1
 41
-30.0
176
     1
 62
     5
 63
     7
421
 16777215
176
     1
 74
     1
176
     1
 91
        0
176
     1
 64
     7
176
     1
 65
   257
176
     1
 75
     1
176
     1
175
     1
176
     1
 42
1.0
176
     1
 92
        8
176
     1
 66
     8
424
  7895160
176
     1
 43
1.0
176
     1
 76
     1
176
     1
 77
     6
176
     1
 78
     2
176
     1
 67
     7
176
     1
 79
     5
176
     1
170
     0
176
     1
171
     0
176
     1
290
     0
176
     1
 93
       13
176
     1
 44
0.0
176
     1
173
     0
176
     1
  0
VISUALSTYLE
  5
37
102
{ACAD_REACTORS
330
2A
102
}
330
2A
100
AcDbVisualStyle
  2
Thicken
 70
    13
177
     2
291
     1
 71
     2
176
     1
 72
     2
176
     1
 73
     0
176
     1
 90
        0
176
     1
 40
-0.6
176
     1
 41
-30.0
176
     1
 62
     5
 63
     7
421
 16777215
176
     1
 74
     1
176
     1
 91
        4
176
     1
 64
     7
176
     1
 65
   257
176
     1
 75
     1
176
     1
175
     1
176
     1
 42
1.0
176
     1
 92
       12
176
     1
 66
     7
176
     1
 43
1.0
176
     1
 76
     1
176
     1
 77
     6
176
     1
 78
     2
176
     1
 67
     7
176
     1
 79
     5
176
     1
170
     0
176
     1
171
     0
176
     1
290
     0
176
     1
 93
        1
176
     1
 44
0.0
176
     1
173
     0
176
     1
  0
ENDSEC
  0
EOF
